<svg width="300" height="120" viewBox="0 0 300 120" fill="none" xmlns="http://www.w3.org/2000/svg">
<g clip-path="url(#clip0_1_8)">
<g filter="url(#filter0_ddddddiiiiiii_1_8)">
<path d="M15.299 99.792C14.9577 99.792 14.4457 99.5787 13.763 99.152L14.275 97.616C14.275 97.5307 14.2323 97.4453 14.147 97.36C14.147 97.2747 14.1043 97.1467 14.019 96.976C13.763 96.72 13.635 96.5493 13.635 96.464L13.891 93.392C13.891 92.88 14.0617 92.3253 14.403 91.728C14.7443 91.1307 14.915 90.704 14.915 90.448C14.915 90.192 14.659 90.064 14.147 90.064H13.891L13.507 86.352L12.867 84.432C13.0377 84.2613 13.2083 84.0907 13.379 83.92C13.635 83.7493 13.891 83.5787 14.147 83.408V82.896C13.635 82.5547 13.251 82.3413 12.995 82.256L13.507 81.744L12.867 80.976C13.0377 80.3787 13.0803 80.0373 12.995 79.952L12.611 79.312C12.611 78.9707 12.8243 78.4587 13.251 77.776H13.763C15.1283 77.776 15.8537 77.4773 15.939 76.88C15.8537 76.88 15.939 76.624 16.195 76.112L16.451 75.344C16.0243 75.5147 15.5123 75.728 14.915 75.984C14.3177 76.1547 13.6777 76.368 12.995 76.624C12.9097 76.5387 12.867 76.4107 12.867 76.24C12.867 75.8987 12.867 75.5573 12.867 75.216C12.9523 74.7893 12.9523 74.3627 12.867 73.936C12.867 73.936 12.7817 73.808 12.611 73.552C12.611 73.552 12.6963 73.3813 12.867 73.04C13.123 72.784 13.1657 72.6133 12.995 72.528C12.995 72.4427 12.867 72.272 12.611 72.016C12.355 71.76 12.227 71.5893 12.227 71.504V70.992C12.227 70.3947 12.355 69.84 12.611 69.328C13.0377 69.1573 13.251 68.8587 13.251 68.432C13.251 67.7493 12.995 67.4933 12.483 67.664V67.408C12.483 67.2373 12.483 67.024 12.483 66.768C12.483 66.4267 12.4403 66 12.355 65.488C12.611 65.4027 12.7817 65.232 12.867 64.976C13.0377 64.72 12.9523 64.592 12.611 64.592H12.227L11.715 63.312L11.843 62.544C11.9283 62.288 11.971 62.032 11.971 61.776C12.1417 61.6907 12.3123 61.5627 12.483 61.392C12.739 61.2213 12.995 61.0507 13.251 60.88V60.368C13.3363 60.368 13.4217 60.368 13.507 60.368C13.5923 60.2827 13.7203 60.1973 13.891 60.112L13.507 59.984C13.251 59.984 13.0803 60.0267 12.995 60.112C12.739 60.1973 12.227 60.1973 11.459 60.112C11.5443 59.856 11.971 59.2587 12.739 58.32L12.355 57.68C12.4403 57.5947 12.483 57.3387 12.483 56.912L11.843 53.328V51.92C11.6723 51.664 11.331 51.3227 10.819 50.896V50.512L11.459 50.256L11.715 51.152C11.8003 51.2373 11.9283 51.28 12.099 51.28C12.4403 51.28 12.867 50.9387 13.379 50.256L11.587 49.232L11.459 48.08L12.867 47.568C12.7817 47.568 12.5257 47.312 12.099 46.8L11.587 46.416C11.2457 46.3307 11.075 46.2027 11.075 46.032C11.075 45.3493 11.4163 44.7947 12.099 44.368L11.843 43.216C11.7577 42.704 11.3737 42.3627 10.691 42.192L11.075 38.48C11.075 38.3947 11.075 38.3093 11.075 38.224C11.1603 38.1387 11.2457 38.0107 11.331 37.84L11.459 37.328L10.947 36.56C10.7763 36.304 10.947 36.0907 11.459 35.92C11.203 35.7493 10.9043 35.408 10.563 34.896L10.819 34.384C10.9043 34.2987 10.947 34.1707 10.947 34L10.563 32.976V29.904C10.563 29.904 10.6483 29.7333 10.819 29.392L10.947 28.88C10.947 28.7093 10.7763 28.3253 10.435 27.728C10.0083 27.1307 9.795 26.7893 9.795 26.704L10.051 22.864C10.307 22.7787 10.6057 22.6507 10.947 22.48C11.2883 22.3093 11.6723 22.1387 12.099 21.968C12.2697 22.1387 12.3977 22.5653 12.483 23.248L13.635 23.504C13.635 23.8453 13.4643 24.2293 13.123 24.656C13.891 24.9973 14.275 25.168 14.275 25.168H14.659L14.787 24.784L14.147 24.528L14.403 23.888C14.4883 23.7173 14.403 23.4187 14.147 22.992C14.403 22.8213 14.7017 22.608 15.043 22.352C15.3843 22.096 15.7257 21.84 16.067 21.584C16.2377 21.584 16.4083 21.6693 16.579 21.84C16.6643 21.9253 16.7497 22.0107 16.835 22.096C16.9203 22.1813 17.0483 22.3093 17.219 22.48C17.9017 22.736 18.4563 22.864 18.883 22.864C19.139 22.864 19.4377 22.6933 19.779 22.352C20.2057 22.096 20.4617 21.968 20.547 21.968C21.059 22.3093 21.571 22.5227 22.083 22.608H23.363C23.5337 22.608 23.8323 22.3947 24.259 21.968C24.6857 21.5413 24.899 21.328 24.899 21.328C24.9843 21.4133 25.1123 21.456 25.283 21.456C25.4537 21.456 25.667 21.4987 25.923 21.584C25.7523 21.7547 25.8803 22.096 26.307 22.608L27.331 22.224C27.5017 22.224 27.715 22.352 27.971 22.608L28.867 23.248C29.2083 22.9067 29.3363 22.4373 29.251 21.84H29.763L31.555 22.736C31.6403 22.6507 31.811 22.352 32.067 21.84L33.219 22.224C33.3897 22.224 33.6457 21.968 33.987 21.456H34.499C34.499 21.5413 34.627 21.6693 34.883 21.84C35.0537 22.0107 35.0963 22.224 35.011 22.48L35.267 22.608C35.4377 22.608 35.523 22.5653 35.523 22.48C35.779 22.224 35.7363 21.7973 35.395 21.2C35.8217 20.944 36.163 20.816 36.419 20.816C36.5897 20.816 36.8457 20.9867 37.187 21.328C37.6137 21.7547 37.955 21.968 38.211 21.968C38.467 21.712 38.7657 21.5413 39.107 21.456L42.691 20.56H43.075C42.9897 21.1573 42.9897 21.5413 43.075 21.712C43.2457 21.7973 43.2457 22.4373 43.075 23.632C43.1603 23.376 43.203 23.632 43.203 24.4C42.5203 24.8267 42.179 25.1253 42.179 25.296C42.179 25.552 42.3497 25.7227 42.691 25.808C42.8617 26.4053 43.0323 27.0027 43.203 27.6C43.3737 28.112 43.5017 28.6667 43.587 29.264C43.587 29.3493 43.5017 29.5627 43.331 29.904C43.075 30.16 42.947 30.3307 42.947 30.416C42.8617 30.672 42.819 31.0987 42.819 31.696L43.075 32.848C43.331 33.0187 43.5017 33.3173 43.587 33.744C43.587 33.9147 43.459 34.1707 43.203 34.512C42.947 34.768 42.691 34.896 42.435 34.896L41.795 34.64C41.283 34.4693 41.027 34.384 41.027 34.384L40.771 34.512C40.6857 34.5973 40.6003 34.64 40.515 34.64L37.955 34.896C37.8697 34.896 37.3577 34.5547 36.419 33.872C36.2483 34.128 35.8217 34.4693 35.139 34.896H33.347C32.835 34.9813 32.2803 35.0667 31.683 35.152C31.171 35.2373 30.5737 35.3227 29.891 35.408L28.099 35.152C28.4403 34.9813 28.3977 34.5547 27.971 33.872C27.459 33.2747 27.1603 32.976 27.075 32.976L26.563 34.128C26.563 34.2987 26.5203 34.4693 26.435 34.64C25.923 34.9813 25.411 35.408 24.899 35.92L25.027 37.712C25.027 37.8827 24.9417 38.0533 24.771 38.224C24.6003 38.5653 24.515 38.736 24.515 38.736C24.6003 38.992 24.643 39.4187 24.643 40.016L23.235 41.296C23.235 41.296 23.4057 41.3813 23.747 41.552L24.387 41.296C24.387 41.296 24.4723 41.4667 24.643 41.808C24.643 41.808 24.515 42.0213 24.259 42.448C24.3443 42.704 24.387 43.344 24.387 44.368L24.131 44.88C24.131 45.2213 24.3017 45.6907 24.643 46.288C24.899 46.8853 24.9843 47.3547 24.899 47.696L24.643 48.848C24.9843 49.1893 25.155 49.616 25.155 50.128C25.155 50.384 25.0697 50.768 24.899 51.28C25.0697 51.7067 25.411 51.9627 25.923 52.048C26.2643 52.1333 26.4777 52.2187 26.563 52.304C26.7337 52.3893 26.8617 52.4747 26.947 52.56C27.0323 52.9013 27.2457 53.072 27.587 53.072C28.0137 53.072 28.3977 52.944 28.739 52.688L29.251 52.176C29.3363 52.176 29.5497 52.2613 29.891 52.432C30.147 52.432 30.4457 52.304 30.787 52.048C31.2137 51.792 31.4697 51.664 31.555 51.664C31.6403 51.664 31.8537 51.8347 32.195 52.176C32.5363 52.5173 32.7497 52.688 32.835 52.688L35.907 52.432C36.2483 52.432 36.4617 52.304 36.547 52.048C36.6323 51.792 36.8457 51.5787 37.187 51.408L38.979 51.28C39.1497 51.4507 39.2777 51.6213 39.363 51.792C39.363 51.8773 39.1497 52.4747 38.723 53.584V53.968C38.723 54.1387 38.723 54.352 38.723 54.608C38.8083 54.864 38.8937 55.2053 38.979 55.632L38.211 55.76C37.8697 55.8453 37.699 56.0587 37.699 56.4C37.699 56.4853 37.827 56.656 38.083 56.912C38.339 56.912 38.595 56.656 38.851 56.144L39.107 56.4C38.9363 57.168 38.8083 57.5947 38.723 57.68L39.107 59.984C39.0217 60.0693 38.9363 60.1973 38.851 60.368C38.7657 60.4533 38.6377 60.6667 38.467 61.008V62.032C38.8937 62.1173 39.4483 62.6293 40.131 63.568C40.131 63.9093 39.8323 64.2507 39.235 64.592C39.0643 64.7627 38.8937 64.8907 38.723 64.976C38.5523 65.0613 38.4243 65.1467 38.339 65.232C38.339 65.232 38.2963 65.232 38.211 65.232H38.339C38.339 65.1467 38.339 65.104 38.339 65.104L37.315 64.848L35.139 64.976L33.731 65.232V64.72H33.347C33.0057 64.72 32.6643 64.8053 32.323 64.976C31.9817 65.3173 31.7257 65.488 31.555 65.488L30.147 65.232L28.611 65.616C28.2697 65.616 27.9283 65.616 27.587 65.616C27.331 65.616 27.1177 65.6587 26.947 65.744C26.435 65.8293 25.923 66.128 25.411 66.64C25.667 66.896 25.667 67.3653 25.411 68.048L26.051 68.816C25.7097 69.328 25.2403 69.712 24.643 69.968C24.7283 70.0533 24.8137 70.1387 24.899 70.224C25.0697 70.3093 25.3257 70.3947 25.667 70.48C26.179 70.992 26.435 71.4187 26.435 71.76L26.563 72.656L26.179 73.04C25.3257 72.6133 25.027 72.4 25.283 72.4C24.9417 72.4 24.771 72.6133 24.771 73.04C25.027 73.1253 25.411 73.5093 25.923 74.192C26.3497 74.8747 26.563 75.5147 26.563 76.112L26.307 77.648C26.3923 77.904 26.435 78.4587 26.435 79.312C26.435 79.568 26.2643 79.824 25.923 80.08L26.819 80.72C26.819 80.8053 26.563 81.104 26.051 81.616C26.2217 81.9573 26.3923 82.2987 26.563 82.64C26.819 82.896 27.0323 83.2373 27.203 83.664V83.92C27.203 84.5173 26.9043 84.8587 26.307 84.944C26.1363 84.944 26.0083 85.1147 25.923 85.456C25.8377 85.7973 25.8803 85.968 26.051 85.968L26.179 85.84C26.2643 85.84 26.4777 85.9253 26.819 86.096L26.947 89.04C26.947 89.2107 26.9043 89.3387 26.819 89.424L26.691 89.808C26.7763 89.9787 26.8617 90.192 26.947 90.448C27.1177 90.6187 27.2457 90.8747 27.331 91.216C27.5017 91.472 27.3737 91.8133 26.947 92.24L27.203 92.624C27.2883 92.7947 27.331 92.9653 27.331 93.136L27.203 94.416L26.947 95.44C26.947 95.44 27.1603 95.7387 27.587 96.336C27.9283 96.7627 28.099 97.104 28.099 97.36C28.099 97.7013 27.843 98.0853 27.331 98.512C26.9043 98.8533 26.563 99.024 26.307 99.024L25.795 98.768C25.6243 98.6827 25.4963 98.5973 25.411 98.512C25.3257 98.512 25.2403 98.512 25.155 98.512C24.9843 98.512 24.771 98.64 24.515 98.896C24.259 99.152 24.0883 99.28 24.003 99.28H23.235C22.467 99.28 21.955 99.152 21.699 98.896C21.6137 98.5547 21.6137 98.2133 21.699 97.872C21.5283 97.7013 21.2297 97.5733 20.803 97.488L20.547 97.616C20.547 97.9573 20.5897 98.2133 20.675 98.384C20.675 98.7253 20.3337 99.1093 19.651 99.536C19.651 99.536 19.4803 99.4507 19.139 99.28C18.7977 99.024 18.5843 98.896 18.499 98.896L16.835 99.792H15.299ZM38.339 27.344C37.4857 27.088 37.0163 27.0027 36.931 27.088C37.2723 27.1733 37.571 27.2587 37.827 27.344C38.083 27.344 38.2537 27.344 38.339 27.344ZM36.931 30.032C36.931 29.9467 36.803 29.776 36.547 29.52L36.291 29.776C36.3763 29.8613 36.4617 29.904 36.547 29.904C36.7177 29.904 36.8457 29.9467 36.931 30.032ZM15.171 30.416C15.171 30.2453 15.0857 30.0747 14.915 29.904C14.8297 29.7333 14.659 29.776 14.403 30.032C14.403 30.288 14.659 30.416 15.171 30.416ZM15.299 43.856C15.299 43.5147 15.171 43.216 14.915 42.96H14.019L13.891 43.472C14.0617 43.472 14.275 43.6 14.531 43.856H15.299ZM18.627 55.504C18.9683 54.9067 18.8403 54.4373 18.243 54.096C18.0723 54.4373 17.987 54.6933 17.987 54.864C17.987 54.864 18.2003 55.0773 18.627 55.504ZM29.123 58.064C29.123 57.9787 29.4643 57.8507 30.147 57.68C30.5737 57.5093 30.787 57.296 30.787 57.04L30.659 56.784C30.659 56.6987 30.8297 56.4853 31.171 56.144L31.555 55.632C31.555 55.5467 31.5123 55.504 31.427 55.504C31.2563 55.4187 30.9577 55.376 30.531 55.376C29.9337 55.376 29.4217 55.5467 28.995 55.888C29.0803 55.9733 29.123 56.2293 29.123 56.656L28.995 56.784H28.867C28.2697 57.1253 28.1843 57.5093 28.611 57.936C28.7817 58.1067 28.9523 58.1493 29.123 58.064ZM35.139 59.984L35.011 59.344V58.704L34.627 59.088C34.7123 59.1733 34.7977 59.3013 34.883 59.472C34.9683 59.6427 35.0537 59.8133 35.139 59.984ZM17.731 59.088C17.6457 59.088 17.475 59.216 17.219 59.472L17.731 60.368V59.088ZM22.083 72.912L21.699 72.528C21.6137 72.528 21.4857 72.6133 21.315 72.784H21.699C21.7843 72.8693 21.9123 72.912 22.083 72.912ZM23.747 75.984L24.643 75.6L24.259 74.576C23.9177 74.6613 23.747 74.832 23.747 75.088V75.984ZM22.083 77.136L22.979 76.88L22.595 75.856C22.2537 75.9413 22.083 76.112 22.083 76.368V77.136ZM17.731 83.152C17.731 82.896 17.6457 82.6827 17.475 82.512C17.3043 82.512 17.1337 82.5973 16.963 82.768C17.1337 83.024 17.3897 83.152 17.731 83.152ZM16.323 88.4C16.4937 87.9733 16.4937 87.632 16.323 87.376L15.683 87.504L15.555 88.144C15.8963 88.3147 16.1523 88.4 16.323 88.4ZM45.587 98.512C45.2457 98.1707 45.075 97.9573 45.075 97.872C45.075 97.5307 45.587 96.72 46.611 95.44V94.928C46.611 94.5867 46.5683 94.288 46.483 94.032C46.483 93.6907 46.4403 93.3493 46.355 93.008L47.635 90.448C47.891 89.8507 47.9337 89.4667 47.763 89.296L46.227 89.04L46.483 88.144C46.6537 87.9733 46.6537 87.632 46.483 87.12C45.8857 86.608 45.587 86.224 45.587 85.968C45.587 84.8587 45.971 83.8773 46.739 83.024H46.867C46.867 83.024 46.6537 82.8533 46.227 82.512C45.8857 82.1707 45.6723 82 45.587 82L45.843 80.208C45.843 80.1227 45.9283 79.9947 46.099 79.824C46.2697 79.6533 46.355 79.5253 46.355 79.44L45.971 78.416C45.715 77.7333 45.587 77.3493 45.587 77.264L45.971 76.752V74.832L46.355 73.296C46.4403 73.1253 46.4403 72.9547 46.355 72.784C46.355 72.6133 46.355 72.4 46.355 72.144L46.227 70.864C46.227 70.7787 46.355 70.608 46.611 70.352C46.867 70.096 46.995 69.9253 46.995 69.84C46.995 69.84 46.7817 69.5413 46.355 68.944L46.483 68.56C46.483 68.4747 46.483 68.3467 46.483 68.176C46.483 68.0053 46.4403 67.7493 46.355 67.408C46.355 67.408 46.3123 67.408 46.227 67.408C46.227 67.3227 46.227 67.2373 46.227 67.152C46.227 66.7253 46.2697 66.384 46.355 66.128C46.5257 65.872 46.611 65.7013 46.611 65.616L46.355 64.976C46.1843 64.6347 46.099 64.464 46.099 64.464L46.483 63.696C46.739 63.2693 46.867 62.9707 46.867 62.8L46.483 60.88C46.3977 60.2827 46.2697 59.856 46.099 59.6C46.0137 59.344 45.971 59.1733 45.971 59.088C45.971 58.832 46.1843 58.576 46.611 58.32L47.251 57.936C47.5923 57.2533 47.763 56.7413 47.763 56.4C47.763 55.2907 47.635 54.608 47.379 54.352C46.867 53.6693 46.611 53.328 46.611 53.328L46.483 52.432V50.768C47.9337 50.5973 48.659 50.0853 48.659 49.232C48.659 48.72 48.4457 48.464 48.019 48.464C47.8483 48.464 47.5923 48.5493 47.251 48.72L46.995 48.08C46.9097 47.9093 46.8243 47.7813 46.739 47.696C46.6537 47.5253 46.611 47.3973 46.611 47.312C46.611 46.8853 46.5683 46.3307 46.483 45.648C46.483 44.88 46.4403 44.0267 46.355 43.088C46.355 43.0027 46.2697 42.8747 46.099 42.704C45.9283 42.5333 45.843 42.3627 45.843 42.192C45.843 41.424 46.099 41.04 46.611 41.04L48.147 41.296C48.5737 41.3813 48.8723 41.4667 49.043 41.552C49.299 41.6373 49.4697 41.68 49.555 41.68L50.067 41.552H50.707L51.347 41.68C51.5177 41.68 51.603 41.7227 51.603 41.808C51.6883 41.808 51.7737 41.808 51.859 41.808L52.499 41.552C52.6697 41.4667 52.8403 41.424 53.011 41.424L54.419 41.552C54.8457 41.6373 55.1443 41.68 55.315 41.68C55.4857 41.68 55.6137 41.68 55.699 41.68L56.723 41.424C57.0643 41.3387 57.2777 41.296 57.363 41.296C57.5337 41.296 57.6617 41.296 57.747 41.296C58.3443 41.296 58.7283 41.8933 58.899 43.088C59.0697 44.368 59.6243 45.008 60.563 45.008C61.1603 45.008 61.587 44.8373 61.843 44.496C61.9283 44.3253 62.0137 44.1547 62.099 43.984C62.1843 43.8133 62.3123 43.6 62.483 43.344H63.379C64.2323 42.2347 65.0003 41.68 65.683 41.68L66.451 42.064C66.451 42.064 66.5363 41.9787 66.707 41.808C67.987 41.2107 68.8403 40.912 69.267 40.912C69.523 40.912 69.8217 40.9547 70.163 41.04C70.5043 41.04 70.8457 41.0827 71.187 41.168C71.5283 41.5093 71.699 41.8933 71.699 42.32C71.699 42.32 71.4857 42.6187 71.059 43.216C71.1443 43.5573 71.187 43.984 71.187 44.496C71.2723 45.008 71.2723 45.6053 71.187 46.288C70.931 46.8 70.7177 47.056 70.547 47.056C70.547 47.056 70.5897 47.0987 70.675 47.184C70.7603 47.2693 70.8457 47.4827 70.931 47.824L71.315 48.72C71.315 49.0613 71.187 49.3173 70.931 49.488C70.675 49.5733 70.547 49.744 70.547 50C70.547 50.0853 70.5897 50.2133 70.675 50.384C70.7603 50.4693 70.8457 50.5973 70.931 50.768L71.187 51.408C71.187 51.408 71.1443 51.4933 71.059 51.664C70.9737 51.7493 70.8457 51.8773 70.675 52.048C71.187 52.3893 71.443 53.072 71.443 54.096C71.443 54.7787 71.1017 55.12 70.419 55.12C70.419 55.12 69.6937 54.9493 68.243 54.608C66.8777 54.2667 65.8537 54.096 65.171 54.096C65.427 54.096 64.7017 54.3947 62.995 54.992H62.739C62.1417 54.992 61.5017 55.1627 60.819 55.504C60.7337 55.76 60.6057 56.0587 60.435 56.4C60.2643 56.7413 60.0937 57.1253 59.923 57.552C59.7523 57.6373 59.539 57.7227 59.283 57.808C59.1123 57.8933 58.899 58.0213 58.643 58.192C58.643 58.192 58.5577 58.576 58.387 59.344C57.5337 59.6853 57.107 60.0693 57.107 60.496C57.107 60.8373 57.4057 61.0507 58.003 61.136C58.1737 61.0507 58.3443 61.2213 58.515 61.648L58.259 63.056C58.6857 64.336 58.9417 64.976 59.027 64.976C59.027 64.976 58.9843 65.0613 58.899 65.232C58.8137 65.4027 58.6857 65.5307 58.515 65.616C58.003 65.7867 57.747 65.872 57.747 65.872C57.747 65.9573 57.747 66.1707 57.747 66.512C57.8323 66.768 57.9177 67.152 58.003 67.664C57.9177 67.8347 57.875 68.1333 57.875 68.56C57.875 68.9013 57.875 69.2853 57.875 69.712C57.7043 69.8827 57.619 70.0107 57.619 70.096C57.619 70.1813 57.875 70.3093 58.387 70.48C58.8137 70.736 59.027 70.9067 59.027 70.992C59.027 71.0773 58.9843 71.12 58.899 71.12L57.875 72.144C57.7897 72.4 57.747 72.784 57.747 73.296C57.747 73.9787 58.003 74.576 58.515 75.088L58.003 76.24V76.496C58.003 76.5813 58.003 76.7093 58.003 76.88C58.003 77.0507 58.0457 77.264 58.131 77.52L57.363 78.416C57.619 78.672 57.875 79.056 58.131 79.568C58.2163 79.7387 58.259 79.9947 58.259 80.336C58.3443 80.592 58.387 80.9333 58.387 81.36C58.387 81.0187 58.259 81.232 58.003 82C57.9177 82.256 57.875 82.8533 57.875 83.792C57.875 83.8773 58.003 84.048 58.259 84.304C58.3443 84.4747 58.387 84.6027 58.387 84.688C58.4723 84.7733 58.515 84.8587 58.515 84.944C58.4297 84.944 58.259 85.3707 58.003 86.224C58.003 86.48 58.0457 86.6507 58.131 86.736V86.864C58.131 87.2053 58.003 87.76 57.747 88.528L57.875 89.424V89.68C57.875 89.7653 57.8323 89.8933 57.747 90.064C57.747 90.2347 57.7043 90.448 57.619 90.704C57.619 90.7893 57.363 90.9173 56.851 91.088C56.851 91.344 56.979 91.9413 57.235 92.88C57.491 93.5627 57.4483 94.16 57.107 94.672V95.056C57.2777 95.1413 57.747 95.184 58.515 95.184L58.643 95.568C58.643 95.9093 58.4723 96.3787 58.131 96.976C57.7897 97.744 57.491 98.128 57.235 98.128L56.723 98C56.5523 97.9147 56.339 97.872 56.083 97.872L55.571 98.128C55.315 98.2133 55.059 98.256 54.803 98.256L50.707 97.744L50.323 97.872C50.2377 97.872 50.1523 97.9147 50.067 98C50.067 98 50.0243 98 49.939 98C49.8537 98 49.7683 97.9573 49.683 97.872C49.5977 97.7867 49.4697 97.744 49.299 97.744L48.659 97.616C48.403 97.616 48.2323 97.6587 48.147 97.744L47.635 98C47.4643 98.0853 46.7817 98.256 45.587 98.512ZM49.555 44.624C49.555 44.368 49.4697 44.1547 49.299 43.984C49.2137 43.8133 49.043 43.856 48.787 44.112C48.787 44.2827 49.043 44.4533 49.555 44.624ZM55.699 48.464C55.7843 48.3787 55.699 48.208 55.443 47.952L55.059 48.208C55.1443 48.2933 55.2297 48.336 55.315 48.336C55.4857 48.336 55.6137 48.3787 55.699 48.464ZM55.827 50.512C55.9123 50.3413 55.8697 50.1707 55.699 50C55.5283 49.8293 55.315 49.8293 55.059 50C55.1443 50.1707 55.4003 50.3413 55.827 50.512ZM66.451 51.792C66.5363 51.536 66.4937 51.3227 66.323 51.152C66.2377 51.0667 66.0243 51.1093 65.683 51.28C65.683 51.4507 65.939 51.6213 66.451 51.792ZM58.259 56.144L58.387 55.888L57.235 55.248V56.016L58.259 56.144ZM51.475 71.376C51.6457 71.376 51.8163 71.1627 51.987 70.736L52.243 70.096V69.2L51.347 68.816C50.323 68.816 49.7257 68.944 49.555 69.2V69.328C49.555 69.584 49.8537 69.84 50.451 70.096L50.963 70.736C51.219 71.1627 51.3897 71.376 51.475 71.376ZM58.515 84.944V85.072C58.515 85.072 58.515 85.0293 58.515 84.944ZM55.571 86.736L55.443 86.352C55.3577 86.4373 55.4003 86.5653 55.571 86.736ZM47.635 96.592C47.7203 96.592 47.9337 96.4213 48.275 96.08C48.3603 95.9093 48.3177 95.7387 48.147 95.568C48.0617 95.3973 47.891 95.44 47.635 95.696V96.592ZM50.195 96.592L50.451 96.208H49.811L50.195 96.592ZM88.512 99.664C88.3413 99.664 88.2987 99.664 88.384 99.664C88.2987 99.664 88.128 99.5787 87.872 99.408L87.232 99.152C87.0613 99.2373 86.848 99.28 86.592 99.28C86.4213 99.28 86.208 99.3227 85.952 99.408L84.16 98.384C83.904 97.7867 83.5627 97.488 83.136 97.488C83.0507 97.4027 82.9653 97.4027 82.88 97.488C82.7947 97.5733 82.624 97.616 82.368 97.616C82.368 97.616 81.9413 97.2747 81.088 96.592L80.064 96.208C79.808 95.952 79.5093 95.6533 79.168 95.312C78.912 94.9707 78.5707 94.5867 78.144 94.16L77.12 93.392V93.136C77.12 92.7947 76.9067 92.2827 76.48 91.6C76.0533 91.1733 75.712 90.832 75.456 90.576C75.2853 90.2347 75.1573 90.0213 75.072 89.936V88.4C75.4987 88.656 75.7547 88.6133 75.84 88.272C76.0107 88.016 75.84 87.76 75.328 87.504C74.9867 87.248 74.816 87.0347 74.816 86.864V85.328C74.816 85.072 74.816 84.816 74.816 84.56C74.816 84.304 74.7733 84.048 74.688 83.792C74.6027 83.3653 74.5173 82.9813 74.432 82.64C74.432 82.2133 74.4747 81.8293 74.56 81.488L74.816 80.208C74.7307 79.696 74.688 79.184 74.688 78.672C74.688 78.0747 74.688 77.4773 74.688 76.88C74.688 76.5387 74.816 76.112 75.072 75.6L75.456 74.576C75.3707 73.8933 75.2853 73.168 75.2 72.4C75.1147 71.5467 75.0293 70.6933 74.944 69.84C74.944 69.584 75.2853 68.7733 75.968 67.408C76.1387 67.3227 76.3093 67.2373 76.48 67.152C76.6507 67.0667 76.8213 66.9387 76.992 66.768C76.992 66.6827 76.608 66.384 75.84 65.872L75.456 63.184C75.456 62.7573 75.6267 62.5013 75.968 62.416C76.224 62.2453 76.3093 61.9467 76.224 61.52L77.888 60.368C77.8027 60.0267 77.504 59.8133 76.992 59.728C76.9067 59.728 76.608 59.8133 76.096 59.984C75.84 59.8133 75.712 59.6427 75.712 59.472C75.712 58.96 75.968 58.5333 76.48 58.192C76.992 57.7653 77.248 57.5093 77.248 57.424L76.608 55.248C76.608 55.248 76.9493 54.6507 77.632 53.456C78.2293 53.3707 78.528 53.2 78.528 52.944C78.528 52.7733 78.4 52.56 78.144 52.304C77.8027 52.048 77.632 51.8347 77.632 51.664C77.632 51.5787 77.7173 51.4507 77.888 51.28C78.144 50.768 78.4 49.8293 78.656 48.464L79.424 47.696L79.808 46.416C80.32 46.2453 80.9173 45.9893 81.6 45.648L83.264 43.6C84.1173 42.4907 84.8427 41.9787 85.44 42.064L85.824 42.192C85.824 42.1067 86.1653 41.9787 86.848 41.808C88.896 41.1253 90.048 40.8267 90.304 40.912L90.944 41.04C91.456 40.6987 91.84 40.4 92.096 40.144L92.736 40.272C92.9067 40.272 93.0347 40.3147 93.12 40.4C93.2053 40.4853 93.2907 40.528 93.376 40.528L94.4 40.4L95.552 41.424C95.552 41.424 95.808 41.3387 96.32 41.168L96.96 40.912C97.3013 41.0827 97.6853 41.2533 98.112 41.424C98.5387 41.5947 98.9653 41.7653 99.392 41.936C99.8187 41.7653 100.416 41.7653 101.184 41.936L101.056 42.576V42.704C101.056 43.216 101.525 43.472 102.464 43.472H103.488C103.488 43.472 104.043 44.496 105.152 46.544L105.92 46.288C106.261 46.288 106.475 46.416 106.56 46.672L107.968 51.536C107.883 51.7067 107.84 52.0053 107.84 52.432C107.84 52.7733 107.84 53.1573 107.84 53.584L108.224 54.48C108.395 54.992 108.48 55.248 108.48 55.248L108.224 55.632C108.139 55.7173 108.096 55.8453 108.096 56.016V57.936C108.011 58.0213 107.925 58.192 107.84 58.448C107.755 58.6187 107.669 58.8747 107.584 59.216C107.072 59.3013 106.816 59.472 106.816 59.728C106.816 59.984 107.2 60.4533 107.968 61.136C108.651 61.8187 108.992 62.2453 108.992 62.416C108.992 62.5867 108.779 62.672 108.352 62.672L107.968 64.464C107.883 64.5493 107.755 64.8053 107.584 65.232C107.584 65.744 107.84 66.8533 108.352 68.56C108.011 68.7307 107.755 68.944 107.584 69.2C107.584 69.2 107.584 69.5413 107.584 70.224L107.712 71.504C107.712 71.5893 107.712 71.76 107.712 72.016C107.712 72.1867 107.669 72.4427 107.584 72.784L107.456 74.064H106.816C106.133 74.064 105.579 73.7227 105.152 73.04C104.811 72.4427 104.512 72.144 104.256 72.144C104.171 72.144 103.915 72.4 103.488 72.912C102.976 73.424 102.635 73.68 102.464 73.68L101.056 73.552C100.629 73.4667 100.288 73.4667 100.032 73.552C99.776 73.552 99.6053 73.552 99.52 73.552L96.832 72.4C96.2347 72.912 95.552 73.168 94.784 73.168C93.8453 73.168 93.0347 72.8693 92.352 72.272C92.1813 72.4427 92.096 72.5707 92.096 72.656H90.176C90.0907 72.656 90.048 72.656 90.048 72.656C90.048 72.5707 90.0053 72.528 89.92 72.528H89.408C88.64 72.528 88 72.9973 87.488 73.936V74.448C87.4027 74.6187 87.2747 74.8747 87.104 75.216C87.0187 75.472 86.8907 75.7707 86.72 76.112C86.72 76.1973 86.8053 76.3253 86.976 76.496L87.232 77.008V77.264C87.232 77.3493 87.232 77.52 87.232 77.776C87.232 77.9467 87.1893 78.2027 87.104 78.544C87.1893 78.8 87.232 79.2267 87.232 79.824C87.232 80.1653 87.0187 80.464 86.592 80.72L86.336 84.944C86.848 85.3707 87.0613 86.096 86.976 87.12H88.512C89.024 87.12 89.408 87.2907 89.664 87.632C89.92 87.9733 90.0907 88.144 90.176 88.144L91.072 87.76L91.968 88.4C92.224 88.4 92.3947 88.272 92.48 88.016L93.248 86.224V84.304L93.376 82.384C93.4613 82.128 93.504 81.9147 93.504 81.744C93.5893 81.488 93.632 81.3173 93.632 81.232L93.504 80.848C93.6747 80.5067 93.76 80.2507 93.76 80.08C93.76 79.824 93.76 79.6533 93.76 79.568L93.504 78.416C93.8453 77.5627 94.272 77.136 94.784 77.136C95.4667 77.4773 96.4053 77.776 97.6 78.032L98.24 77.776C98.496 77.6907 98.7093 77.648 98.88 77.648C99.0507 77.648 99.3493 77.9893 99.776 78.672C100.715 78.3307 101.184 78.16 101.184 78.16L102.208 78.8H102.464C103.488 78.8 104.469 78.3733 105.408 77.52L107.584 79.568C107.157 80.336 106.688 81.3173 106.176 82.512C106.091 82.9387 105.963 83.4507 105.792 84.048C105.707 84.6453 105.536 85.2853 105.28 85.968C104.683 86.224 104.384 86.5653 104.384 86.992C104.384 87.1627 104.512 87.4613 104.768 87.888C105.024 88.4 105.152 88.7413 105.152 88.912L104.896 89.296C105.067 89.7227 105.024 90.1067 104.768 90.448L104.384 91.088C104.469 91.1733 104.512 91.344 104.512 91.6C104.512 92.368 103.957 93.008 102.848 93.52L102.592 93.776C102.677 93.8613 102.72 93.9893 102.72 94.16C102.72 94.7573 102.379 95.1413 101.696 95.312C100.757 95.568 100.203 95.7813 100.032 95.952C99.8613 96.208 99.6053 96.5067 99.264 96.848C98.9227 97.1893 98.5387 97.5733 98.112 98C96.4053 99.1093 95.2107 99.5787 94.528 99.408L92.992 99.024C92.5653 99.024 92.1387 99.152 91.712 99.408C91.2853 99.664 90.944 99.7493 90.688 99.664L90.176 99.536H89.536C89.1947 99.536 88.9387 99.536 88.768 99.536C88.5973 99.6213 88.4693 99.664 88.384 99.664C88.4693 99.664 88.512 99.664 88.512 99.664ZM91.072 45.776L91.328 45.264L90.944 45.008C90.944 45.264 90.9867 45.52 91.072 45.776ZM100.032 50.128C100.459 50.128 100.715 49.872 100.8 49.36L100.672 47.696H100.416C100.16 47.696 100.032 47.4827 100.032 47.056C99.8613 46.6293 99.648 46.416 99.392 46.416C99.0507 46.2453 98.7947 46.3733 98.624 46.8C98.5387 46.8853 98.496 47.0133 98.496 47.184C98.5813 47.3547 98.624 47.5253 98.624 47.696L98.752 48.592L98.368 48.976L100.032 50.128ZM88.768 51.792C89.4507 51.536 89.4507 51.2373 88.768 50.896C88.5973 51.0667 88.5973 51.3653 88.768 51.792ZM105.408 51.664L105.152 51.152L104.768 51.408L105.408 51.664ZM88.384 63.312L89.664 62.928L91.456 62.416C92.0533 62.416 92.6933 62.3733 93.376 62.288C94.0587 62.1173 94.8267 61.9467 95.68 61.776L96.064 60.24C96.1493 60.1547 96.3627 60.0267 96.704 59.856C96.3627 59.5147 96.064 59.1733 95.808 58.832C95.6373 58.4907 95.5947 58.1493 95.68 57.808L95.808 56.912V56.144C95.808 55.376 95.4667 54.736 94.784 54.224C94.8693 53.968 94.912 53.6267 94.912 53.2C94.912 52.5173 94.144 52.1333 92.608 52.048C92.352 52.048 91.8827 52.304 91.2 52.816L89.152 54.224C89.4933 54.48 89.536 54.8213 89.28 55.248C89.1947 55.5893 88.896 55.76 88.384 55.76V56.144C88.64 55.9733 88.896 56.1013 89.152 56.528C89.3227 56.8693 89.3653 57.0827 89.28 57.168L89.024 61.008C89.024 61.264 89.024 61.4773 89.024 61.648C89.1093 61.8187 89.152 61.904 89.152 61.904C89.152 62.16 89.024 62.288 88.768 62.288C88.512 62.1173 88.2987 61.904 88.128 61.648L87.744 61.904L87.616 62.672L88.384 63.312ZM97.344 55.504C97.5147 55.76 97.7707 55.76 98.112 55.504C97.856 54.736 97.6 54.736 97.344 55.504ZM89.152 61.776C89.152 61.9467 89.152 61.9893 89.152 61.904C89.152 61.904 89.152 61.8613 89.152 61.776ZM77.888 71.888C78.144 71.7173 78.4853 71.248 78.912 70.48L78.784 70.096H78.528C78.1013 70.096 77.5467 70.3093 76.864 70.736C77.12 71.1627 77.4613 71.5467 77.888 71.888ZM102.464 70.992C102.549 70.736 102.507 70.5227 102.336 70.352C102.251 70.2667 102.037 70.3093 101.696 70.48C101.696 70.6507 101.952 70.8213 102.464 70.992ZM80.32 88.144L81.344 87.632L81.216 87.12L80.576 86.992L80.32 87.248V87.12L80.192 86.608L79.808 86.48L79.552 87.888L80.32 88.144ZM90.048 90.192C90.1333 90.0213 90.0907 89.8507 89.92 89.68C89.7493 89.5093 89.5787 89.5093 89.408 89.68C89.408 89.8507 89.6213 90.0213 90.048 90.192ZM127.387 99.664C127.216 99.664 127.174 99.664 127.259 99.664C127.174 99.664 127.003 99.5787 126.747 99.408L126.107 99.152C125.936 99.2373 125.723 99.28 125.467 99.28C125.296 99.28 125.083 99.3227 124.827 99.408L123.035 98.384C122.779 97.7867 122.438 97.488 122.011 97.488C121.926 97.4027 121.84 97.4027 121.755 97.488C121.67 97.5733 121.499 97.616 121.243 97.616C121.243 97.616 120.816 97.2747 119.963 96.592L118.939 96.208C118.683 95.952 118.384 95.6533 118.043 95.312C117.787 94.9707 117.446 94.5867 117.019 94.16L115.995 93.392V93.136C115.995 92.7947 115.782 92.2827 115.355 91.6C114.928 91.1733 114.587 90.832 114.331 90.576C114.16 90.2347 114.032 90.0213 113.947 89.936V88.4C114.374 88.656 114.63 88.6133 114.715 88.272C114.886 88.016 114.715 87.76 114.203 87.504C113.862 87.248 113.691 87.0347 113.691 86.864V85.328C113.691 85.072 113.691 84.816 113.691 84.56C113.691 84.304 113.648 84.048 113.563 83.792C113.478 83.3653 113.392 82.9813 113.307 82.64C113.307 82.2133 113.35 81.8293 113.435 81.488L113.691 80.208C113.606 79.696 113.563 79.184 113.563 78.672C113.563 78.0747 113.563 77.4773 113.563 76.88C113.563 76.5387 113.691 76.112 113.947 75.6L114.331 74.576C114.246 73.8933 114.16 73.168 114.075 72.4C113.99 71.5467 113.904 70.6933 113.819 69.84C113.819 69.584 114.16 68.7733 114.843 67.408C115.014 67.3227 115.184 67.2373 115.355 67.152C115.526 67.0667 115.696 66.9387 115.867 66.768C115.867 66.6827 115.483 66.384 114.715 65.872L114.331 63.184C114.331 62.7573 114.502 62.5013 114.843 62.416C115.099 62.2453 115.184 61.9467 115.099 61.52L116.763 60.368C116.678 60.0267 116.379 59.8133 115.867 59.728C115.782 59.728 115.483 59.8133 114.971 59.984C114.715 59.8133 114.587 59.6427 114.587 59.472C114.587 58.96 114.843 58.5333 115.355 58.192C115.867 57.7653 116.123 57.5093 116.123 57.424L115.483 55.248C115.483 55.248 115.824 54.6507 116.507 53.456C117.104 53.3707 117.403 53.2 117.403 52.944C117.403 52.7733 117.275 52.56 117.019 52.304C116.678 52.048 116.507 51.8347 116.507 51.664C116.507 51.5787 116.592 51.4507 116.763 51.28C117.019 50.768 117.275 49.8293 117.531 48.464L118.299 47.696L118.683 46.416C119.195 46.2453 119.792 45.9893 120.475 45.648L122.139 43.6C122.992 42.4907 123.718 41.9787 124.315 42.064L124.699 42.192C124.699 42.1067 125.04 41.9787 125.723 41.808C127.771 41.1253 128.923 40.8267 129.179 40.912L129.819 41.04C130.331 40.6987 130.715 40.4 130.971 40.144L131.611 40.272C131.782 40.272 131.91 40.3147 131.995 40.4C132.08 40.4853 132.166 40.528 132.251 40.528L133.275 40.4L134.427 41.424C134.427 41.424 134.683 41.3387 135.195 41.168L135.835 40.912C136.176 41.0827 136.56 41.2533 136.987 41.424C137.414 41.5947 137.84 41.7653 138.267 41.936C138.694 41.7653 139.291 41.7653 140.059 41.936L139.931 42.576V42.704C139.931 43.216 140.4 43.472 141.339 43.472H142.363C142.363 43.472 142.918 44.496 144.027 46.544L144.795 46.288C145.136 46.288 145.35 46.416 145.435 46.672L146.843 51.536C146.758 51.7067 146.715 52.0053 146.715 52.432C146.715 52.7733 146.715 53.1573 146.715 53.584L147.099 54.48C147.27 54.992 147.355 55.248 147.355 55.248L147.099 55.632C147.014 55.7173 146.971 55.8453 146.971 56.016V57.936C146.886 58.0213 146.8 58.192 146.715 58.448C146.63 58.6187 146.544 58.8747 146.459 59.216C145.947 59.3013 145.691 59.472 145.691 59.728C145.691 59.984 146.075 60.4533 146.843 61.136C147.526 61.8187 147.867 62.2453 147.867 62.416C147.867 62.5867 147.654 62.672 147.227 62.672L146.843 64.464C146.758 64.5493 146.63 64.8053 146.459 65.232C146.459 65.744 146.715 66.8533 147.227 68.56C146.886 68.7307 146.63 68.944 146.459 69.2C146.459 69.2 146.459 69.5413 146.459 70.224L146.587 71.504C146.587 71.5893 146.587 71.76 146.587 72.016C146.587 72.1867 146.544 72.4427 146.459 72.784L146.331 74.064H145.691C145.008 74.064 144.454 73.7227 144.027 73.04C143.686 72.4427 143.387 72.144 143.131 72.144C143.046 72.144 142.79 72.4 142.363 72.912C141.851 73.424 141.51 73.68 141.339 73.68L139.931 73.552C139.504 73.4667 139.163 73.4667 138.907 73.552C138.651 73.552 138.48 73.552 138.395 73.552L135.707 72.4C135.11 72.912 134.427 73.168 133.659 73.168C132.72 73.168 131.91 72.8693 131.227 72.272C131.056 72.4427 130.971 72.5707 130.971 72.656H129.051C128.966 72.656 128.923 72.656 128.923 72.656C128.923 72.5707 128.88 72.528 128.795 72.528H128.283C127.515 72.528 126.875 72.9973 126.363 73.936V74.448C126.278 74.6187 126.15 74.8747 125.979 75.216C125.894 75.472 125.766 75.7707 125.595 76.112C125.595 76.1973 125.68 76.3253 125.851 76.496L126.107 77.008V77.264C126.107 77.3493 126.107 77.52 126.107 77.776C126.107 77.9467 126.064 78.2027 125.979 78.544C126.064 78.8 126.107 79.2267 126.107 79.824C126.107 80.1653 125.894 80.464 125.467 80.72L125.211 84.944C125.723 85.3707 125.936 86.096 125.851 87.12H127.387C127.899 87.12 128.283 87.2907 128.539 87.632C128.795 87.9733 128.966 88.144 129.051 88.144L129.947 87.76L130.843 88.4C131.099 88.4 131.27 88.272 131.355 88.016L132.123 86.224V84.304L132.251 82.384C132.336 82.128 132.379 81.9147 132.379 81.744C132.464 81.488 132.507 81.3173 132.507 81.232L132.379 80.848C132.55 80.5067 132.635 80.2507 132.635 80.08C132.635 79.824 132.635 79.6533 132.635 79.568L132.379 78.416C132.72 77.5627 133.147 77.136 133.659 77.136C134.342 77.4773 135.28 77.776 136.475 78.032L137.115 77.776C137.371 77.6907 137.584 77.648 137.755 77.648C137.926 77.648 138.224 77.9893 138.651 78.672C139.59 78.3307 140.059 78.16 140.059 78.16L141.083 78.8H141.339C142.363 78.8 143.344 78.3733 144.283 77.52L146.459 79.568C146.032 80.336 145.563 81.3173 145.051 82.512C144.966 82.9387 144.838 83.4507 144.667 84.048C144.582 84.6453 144.411 85.2853 144.155 85.968C143.558 86.224 143.259 86.5653 143.259 86.992C143.259 87.1627 143.387 87.4613 143.643 87.888C143.899 88.4 144.027 88.7413 144.027 88.912L143.771 89.296C143.942 89.7227 143.899 90.1067 143.643 90.448L143.259 91.088C143.344 91.1733 143.387 91.344 143.387 91.6C143.387 92.368 142.832 93.008 141.723 93.52L141.467 93.776C141.552 93.8613 141.595 93.9893 141.595 94.16C141.595 94.7573 141.254 95.1413 140.571 95.312C139.632 95.568 139.078 95.7813 138.907 95.952C138.736 96.208 138.48 96.5067 138.139 96.848C137.798 97.1893 137.414 97.5733 136.987 98C135.28 99.1093 134.086 99.5787 133.403 99.408L131.867 99.024C131.44 99.024 131.014 99.152 130.587 99.408C130.16 99.664 129.819 99.7493 129.563 99.664L129.051 99.536H128.411C128.07 99.536 127.814 99.536 127.643 99.536C127.472 99.6213 127.344 99.664 127.259 99.664C127.344 99.664 127.387 99.664 127.387 99.664ZM129.947 45.776L130.203 45.264L129.819 45.008C129.819 45.264 129.862 45.52 129.947 45.776ZM138.907 50.128C139.334 50.128 139.59 49.872 139.675 49.36L139.547 47.696H139.291C139.035 47.696 138.907 47.4827 138.907 47.056C138.736 46.6293 138.523 46.416 138.267 46.416C137.926 46.2453 137.67 46.3733 137.499 46.8C137.414 46.8853 137.371 47.0133 137.371 47.184C137.456 47.3547 137.499 47.5253 137.499 47.696L137.627 48.592L137.243 48.976L138.907 50.128ZM127.643 51.792C128.326 51.536 128.326 51.2373 127.643 50.896C127.472 51.0667 127.472 51.3653 127.643 51.792ZM144.283 51.664L144.027 51.152L143.643 51.408L144.283 51.664ZM127.259 63.312L128.539 62.928L130.331 62.416C130.928 62.416 131.568 62.3733 132.251 62.288C132.934 62.1173 133.702 61.9467 134.555 61.776L134.939 60.24C135.024 60.1547 135.238 60.0267 135.579 59.856C135.238 59.5147 134.939 59.1733 134.683 58.832C134.512 58.4907 134.47 58.1493 134.555 57.808L134.683 56.912V56.144C134.683 55.376 134.342 54.736 133.659 54.224C133.744 53.968 133.787 53.6267 133.787 53.2C133.787 52.5173 133.019 52.1333 131.483 52.048C131.227 52.048 130.758 52.304 130.075 52.816L128.027 54.224C128.368 54.48 128.411 54.8213 128.155 55.248C128.07 55.5893 127.771 55.76 127.259 55.76V56.144C127.515 55.9733 127.771 56.1013 128.027 56.528C128.198 56.8693 128.24 57.0827 128.155 57.168L127.899 61.008C127.899 61.264 127.899 61.4773 127.899 61.648C127.984 61.8187 128.027 61.904 128.027 61.904C128.027 62.16 127.899 62.288 127.643 62.288C127.387 62.1173 127.174 61.904 127.003 61.648L126.619 61.904L126.491 62.672L127.259 63.312ZM136.219 55.504C136.39 55.76 136.646 55.76 136.987 55.504C136.731 54.736 136.475 54.736 136.219 55.504ZM128.027 61.776C128.027 61.9467 128.027 61.9893 128.027 61.904C128.027 61.904 128.027 61.8613 128.027 61.776ZM116.763 71.888C117.019 71.7173 117.36 71.248 117.787 70.48L117.659 70.096H117.403C116.976 70.096 116.422 70.3093 115.739 70.736C115.995 71.1627 116.336 71.5467 116.763 71.888ZM141.339 70.992C141.424 70.736 141.382 70.5227 141.211 70.352C141.126 70.2667 140.912 70.3093 140.571 70.48C140.571 70.6507 140.827 70.8213 141.339 70.992ZM119.195 88.144L120.219 87.632L120.091 87.12L119.451 86.992L119.195 87.248V87.12L119.067 86.608L118.683 86.48L118.427 87.888L119.195 88.144ZM128.923 90.192C129.008 90.0213 128.966 89.8507 128.795 89.68C128.624 89.5093 128.454 89.5093 128.283 89.68C128.283 89.8507 128.496 90.0213 128.923 90.192ZM152.95 100.048C152.523 100.048 152.139 99.7493 151.798 99.152C151.713 99.0667 151.67 98.7253 151.67 98.128V96.976C151.67 96.5493 151.67 96.1227 151.67 95.696C151.67 95.2693 151.713 94.8 151.798 94.288L152.182 93.776L151.798 89.808C151.969 89.4667 152.182 89.04 152.438 88.528C152.694 87.9307 152.993 87.2907 153.334 86.608C153.249 86.5227 153.206 86.224 153.206 85.712L154.358 84.304C154.187 83.792 154.23 83.3653 154.486 83.024C154.827 82.512 155.126 82.128 155.382 81.872C155.297 81.1893 155.297 80.6773 155.382 80.336L156.278 78.544C156.278 78.3733 156.363 78.288 156.534 78.288H156.79C156.79 78.3733 156.833 78.416 156.918 78.416C157.174 78.416 157.345 78.2453 157.43 77.904V77.264C157.601 77.0933 157.771 76.9227 157.942 76.752C158.113 76.5813 158.283 76.368 158.454 76.112C158.625 75.7707 158.753 75.472 158.838 75.216C158.923 74.8747 158.966 74.576 158.966 74.32C158.966 73.3813 158.881 72.784 158.71 72.528C158.625 72.1867 158.539 72.1867 158.454 72.528L158.582 72.272C158.923 72.1013 159.179 72.016 159.35 72.016C159.435 72.016 159.649 71.5893 159.99 70.736C160.417 69.968 160.673 69.584 160.758 69.584L160.63 69.328C160.63 68.9867 160.971 68.2613 161.654 67.152C162.337 66.2133 162.593 65.4453 162.422 64.848C162.422 64.848 162.678 64.7627 163.19 64.592C163.787 63.9947 164.129 63.7813 164.214 63.952L164.342 63.568C164.257 63.4827 164.043 63.3547 163.702 63.184L163.83 62.8C163.915 62.7147 163.958 62.5867 163.958 62.416V60.88C164.129 60.7947 164.427 60.4533 164.854 59.856L165.494 58.064C165.494 58.1493 165.537 58.192 165.622 58.192C165.793 58.192 165.921 57.8933 166.006 57.296C166.177 56.784 166.305 56.528 166.39 56.528C167.073 56.3573 167.414 56.1867 167.414 56.016L167.158 55.248C166.902 54.8213 166.774 54.48 166.774 54.224C166.518 53.968 166.091 53.84 165.494 53.84C165.153 53.7547 164.811 53.712 164.47 53.712C164.129 53.6267 163.787 53.584 163.446 53.584C163.019 53.584 162.55 53.6693 162.038 53.84C161.441 54.0107 160.971 54.1387 160.63 54.224C160.289 54.3093 160.075 54.352 159.99 54.352H158.966L158.07 54.096L157.302 53.84C156.961 54.096 156.449 54.352 155.766 54.608L154.23 54.224C154.145 54.3093 153.803 54.4373 153.206 54.608C152.438 54.608 152.011 54.1813 151.926 53.328C151.926 53.072 151.926 52.7733 151.926 52.432C152.011 52.0053 152.097 51.5787 152.182 51.152V49.616C152.267 49.5307 152.395 49.232 152.566 48.72L152.31 47.696C152.225 47.44 152.139 47.2267 152.054 47.056C152.054 46.8 152.054 46.5867 152.054 46.416C152.054 45.136 152.097 44.5387 152.182 44.624L151.542 42.96C151.542 41.7653 151.883 41.168 152.566 41.168C152.993 41.168 153.505 41.424 154.102 41.936C154.614 42.448 155.041 42.704 155.382 42.704C155.553 42.448 155.766 42.1493 156.022 41.808C156.363 41.4667 156.705 41.1253 157.046 40.784C157.985 41.4667 158.497 41.808 158.582 41.808L159.222 41.424C159.734 41.2533 159.99 41.168 159.99 41.168C160.331 41.168 160.545 41.3387 160.63 41.68C160.801 42.1067 161.099 42.32 161.526 42.32L163.574 41.552C163.574 41.296 163.745 41.1253 164.086 41.04C164.513 41.04 164.769 41.2107 164.854 41.552L165.238 42.448C165.409 42.192 165.707 41.7653 166.134 41.168C167.073 41.8507 167.457 42.192 167.286 42.192L168.054 41.424C168.139 41.5093 168.31 41.68 168.566 41.936C168.907 42.192 169.163 42.32 169.334 42.32C169.419 42.32 169.59 42.064 169.846 41.552C170.102 41.1253 170.273 40.912 170.358 40.912L170.87 41.04C171.211 41.2107 171.425 41.296 171.51 41.296C171.595 41.296 171.681 41.2533 171.766 41.168C171.766 41.0827 171.809 41.04 171.894 41.04H172.918C172.918 41.296 173.046 41.6373 173.302 42.064H173.686L174.198 41.168C174.625 41.168 175.393 41.7227 176.502 42.832C176.587 42.064 177.099 41.2107 178.038 40.272L178.806 40.4C179.062 40.4853 179.318 40.528 179.574 40.528C180.086 41.04 180.385 41.296 180.47 41.296H181.366V42.064C181.366 42.4907 181.281 42.96 181.11 43.472C180.854 43.728 180.598 43.9413 180.342 44.112C180.342 44.1973 180.47 44.368 180.726 44.624C180.982 44.88 181.11 45.0507 181.11 45.136C181.11 45.5627 181.067 45.9467 180.982 46.288C180.982 46.6293 180.939 46.9707 180.854 47.312C180.939 47.568 180.982 47.8667 180.982 48.208C180.982 48.8053 180.769 49.4027 180.342 50L180.086 51.28C180.086 51.4507 180.257 51.7493 180.598 52.176C180.939 52.6027 181.11 52.9013 181.11 53.072C179.83 53.7547 179.147 54.3947 179.062 54.992C178.977 55.6747 178.849 56.4 178.678 57.168C178.593 57.8507 178.507 58.5333 178.422 59.216C178.251 59.6427 178.081 60.1547 177.91 60.752C177.739 61.3493 177.569 61.9893 177.398 62.672C177.227 62.8427 177.014 62.928 176.758 62.928L175.99 62.672C175.819 62.5867 175.649 62.544 175.478 62.544C175.307 62.544 175.179 62.544 175.094 62.544C174.582 62.544 174.326 62.6293 174.326 62.8C174.497 63.2267 174.838 63.6107 175.35 63.952C175.947 64.2933 176.246 64.592 176.246 64.848C176.246 65.1893 176.075 65.5307 175.734 65.872L175.094 66.384C175.094 67.0667 175.051 67.536 174.966 67.792C174.369 68.9013 173.857 70.1387 173.43 71.504C173.089 72.4427 172.875 72.8693 172.79 72.784C172.79 72.8693 172.662 72.9973 172.406 73.168C172.321 73.168 172.193 73.0827 172.022 72.912C172.022 73.2533 171.979 73.6373 171.894 74.064C171.894 74.4053 171.851 74.8747 171.766 75.472L170.87 76.88C170.614 77.3067 170.273 77.9893 169.846 78.928L168.31 79.824L168.566 80.08L168.31 82.128C168.225 82.9813 167.926 83.5787 167.414 83.92C167.499 84.176 167.542 84.7307 167.542 85.584L167.03 87.12C167.457 87.4613 167.841 87.5893 168.182 87.504L168.822 87.376C169.334 87.376 169.59 87.888 169.59 88.912C169.59 89.168 169.633 89.3387 169.718 89.424H170.102L170.742 86.864L173.43 87.248C173.942 87.248 174.241 87.248 174.326 87.248V87.12H174.454C174.539 87.2053 174.497 87.248 174.326 87.248V87.504C174.326 88.272 174.667 88.656 175.35 88.656L176.886 86.736C177.142 86.736 177.398 86.9493 177.654 87.376C177.739 87.7173 177.995 87.888 178.422 87.888C178.763 87.888 178.977 87.632 179.062 87.12C179.233 86.608 179.489 86.352 179.83 86.352L180.342 86.608C180.513 86.608 180.726 86.608 180.982 86.608C181.323 86.608 181.707 86.5653 182.134 86.48L181.878 87.248C182.134 87.504 182.347 87.8027 182.518 88.144C182.518 88.3147 182.475 88.4427 182.39 88.528L182.262 88.912V89.424C182.262 89.68 182.262 89.936 182.262 90.192C182.262 90.448 182.305 90.704 182.39 90.96C181.793 91.5573 181.281 91.856 180.854 91.856L180.214 91.6C180.214 91.2587 180.257 90.96 180.342 90.704C180.342 90.5333 180.214 90.32 179.958 90.064C179.787 90.064 179.659 90.2347 179.574 90.576L179.446 91.6C179.446 91.6 179.531 91.856 179.702 92.368C179.873 92.624 180.086 92.752 180.342 92.752C180.513 93.1787 180.811 93.4347 181.238 93.52L181.878 95.568C181.793 95.7387 181.75 95.952 181.75 96.208C181.75 96.464 181.707 96.7627 181.622 97.104C181.878 97.1893 182.219 97.5307 182.646 98.128C182.646 98.64 182.347 98.9387 181.75 99.024H180.214C179.702 99.024 179.275 98.9387 178.934 98.768C178.507 98.4267 178.294 98.256 178.294 98.256C178.209 98.3413 178.166 98.5973 178.166 99.024L175.222 99.152C175.051 99.152 174.838 99.1093 174.582 99.024L173.686 98.768C173.515 98.768 173.345 98.8107 173.174 98.896L172.534 99.024C172.278 99.024 172.065 98.9387 171.894 98.768L171.638 98.512L170.87 99.28L169.846 98.768C169.761 98.8533 169.633 98.896 169.462 98.896C169.377 98.896 169.291 98.9387 169.206 99.024C168.865 99.1093 168.566 99.0667 168.31 98.896L167.03 99.152C166.774 98.64 166.475 98.384 166.134 98.384C165.963 98.384 165.707 98.4693 165.366 98.64C165.11 98.896 164.982 99.024 164.982 99.024L163.062 99.152H162.678C162.593 99.0667 162.422 99.024 162.166 99.024C161.739 99.024 161.355 99.1947 161.014 99.536C160.673 99.536 160.331 99.536 159.99 99.536C159.734 99.536 159.521 99.4933 159.35 99.408L158.71 99.024C158.369 98.8533 158.198 98.768 158.198 98.768C158.027 98.768 157.729 98.896 157.302 99.152L156.534 99.408C156.363 99.408 156.193 99.3653 156.022 99.28L155.382 99.152L154.87 99.536L153.846 99.664L152.95 100.048ZM166.262 45.392C166.689 44.9653 166.945 44.7947 167.03 44.88L165.622 43.984H165.11V44.368H165.238C165.579 44.368 165.75 44.7093 165.75 45.392H166.262ZM162.806 48.592C162.806 48.5067 162.678 48.336 162.422 48.08L162.038 48.336C162.038 48.336 162.294 48.4213 162.806 48.592ZM162.934 50.64C163.019 50.384 162.977 50.1707 162.806 50C162.721 50 162.507 50.0853 162.166 50.256C162.337 50.512 162.593 50.64 162.934 50.64ZM175.478 51.536C175.563 51.3653 175.521 51.1947 175.35 51.024C175.265 50.9387 175.051 50.9813 174.71 51.152C174.881 51.408 175.137 51.536 175.478 51.536ZM171.254 65.872C171.254 65.7013 171.169 65.5307 170.998 65.36C170.913 65.1893 170.742 65.232 170.486 65.488C170.486 65.744 170.742 65.872 171.254 65.872ZM159.99 85.2C160.587 85.0293 161.057 84.6453 161.398 84.048C161.313 83.9627 161.27 83.7493 161.27 83.408C160.331 84.176 159.862 84.6027 159.862 84.688C159.862 84.944 159.905 85.1147 159.99 85.2ZM172.278 90.576L172.662 90.192C172.662 90.1067 172.577 89.9787 172.406 89.808C172.321 89.9787 172.278 90.2347 172.278 90.576ZM167.414 94.8C167.585 94.8 167.755 94.7147 167.926 94.544C168.097 94.3733 168.054 94.2027 167.798 94.032C167.542 94.1173 167.414 94.3733 167.414 94.8ZM157.046 96.464C157.046 96.208 156.961 95.9947 156.79 95.824C156.619 95.6533 156.449 95.7387 156.278 96.08C156.278 96.336 156.534 96.464 157.046 96.464ZM199.637 99.664C199.466 99.664 199.424 99.664 199.509 99.664C199.424 99.664 199.253 99.5787 198.997 99.408L198.357 99.152C198.186 99.2373 197.973 99.28 197.717 99.28C197.546 99.28 197.333 99.3227 197.077 99.408L195.285 98.384C195.029 97.7867 194.688 97.488 194.261 97.488C194.176 97.4027 194.09 97.4027 194.005 97.488C193.92 97.5733 193.749 97.616 193.493 97.616C193.493 97.616 193.066 97.2747 192.213 96.592L191.189 96.208C190.933 95.952 190.634 95.6533 190.293 95.312C190.037 94.9707 189.696 94.5867 189.269 94.16L188.245 93.392V93.136C188.245 92.7947 188.032 92.2827 187.605 91.6C187.178 91.1733 186.837 90.832 186.581 90.576C186.41 90.2347 186.282 90.0213 186.197 89.936V88.4C186.624 88.656 186.88 88.6133 186.965 88.272C187.136 88.016 186.965 87.76 186.453 87.504C186.112 87.248 185.941 87.0347 185.941 86.864V85.328C185.941 85.072 185.941 84.816 185.941 84.56C185.941 84.304 185.898 84.048 185.813 83.792C185.728 83.3653 185.642 82.9813 185.557 82.64C185.557 82.2133 185.6 81.8293 185.685 81.488L185.941 80.208C185.856 79.696 185.813 79.184 185.813 78.672C185.813 78.0747 185.813 77.4773 185.813 76.88C185.813 76.5387 185.941 76.112 186.197 75.6L186.581 74.576C186.496 73.8933 186.41 73.168 186.325 72.4C186.24 71.5467 186.154 70.6933 186.069 69.84C186.069 69.584 186.41 68.7733 187.093 67.408C187.264 67.3227 187.434 67.2373 187.605 67.152C187.776 67.0667 187.946 66.9387 188.117 66.768C188.117 66.6827 187.733 66.384 186.965 65.872L186.581 63.184C186.581 62.7573 186.752 62.5013 187.093 62.416C187.349 62.2453 187.434 61.9467 187.349 61.52L189.013 60.368C188.928 60.0267 188.629 59.8133 188.117 59.728C188.032 59.728 187.733 59.8133 187.221 59.984C186.965 59.8133 186.837 59.6427 186.837 59.472C186.837 58.96 187.093 58.5333 187.605 58.192C188.117 57.7653 188.373 57.5093 188.373 57.424L187.733 55.248C187.733 55.248 188.074 54.6507 188.757 53.456C189.354 53.3707 189.653 53.2 189.653 52.944C189.653 52.7733 189.525 52.56 189.269 52.304C188.928 52.048 188.757 51.8347 188.757 51.664C188.757 51.5787 188.842 51.4507 189.013 51.28C189.269 50.768 189.525 49.8293 189.781 48.464L190.549 47.696L190.933 46.416C191.445 46.2453 192.042 45.9893 192.725 45.648L194.389 43.6C195.242 42.4907 195.968 41.9787 196.565 42.064L196.949 42.192C196.949 42.1067 197.29 41.9787 197.973 41.808C200.021 41.1253 201.173 40.8267 201.429 40.912L202.069 41.04C202.581 40.6987 202.965 40.4 203.221 40.144L203.861 40.272C204.032 40.272 204.16 40.3147 204.245 40.4C204.33 40.4853 204.416 40.528 204.501 40.528L205.525 40.4L206.677 41.424C206.677 41.424 206.933 41.3387 207.445 41.168L208.085 40.912C208.426 41.0827 208.81 41.2533 209.237 41.424C209.664 41.5947 210.09 41.7653 210.517 41.936C210.944 41.7653 211.541 41.7653 212.309 41.936L212.181 42.576V42.704C212.181 43.216 212.65 43.472 213.589 43.472H214.613C214.613 43.472 215.168 44.496 216.277 46.544L217.045 46.288C217.386 46.288 217.6 46.416 217.685 46.672L219.093 51.536C219.008 51.7067 218.965 52.0053 218.965 52.432C218.965 52.7733 218.965 53.1573 218.965 53.584L219.349 54.48C219.52 54.992 219.605 55.248 219.605 55.248L219.349 55.632C219.264 55.7173 219.221 55.8453 219.221 56.016V57.936C219.136 58.0213 219.05 58.192 218.965 58.448C218.88 58.6187 218.794 58.8747 218.709 59.216C218.197 59.3013 217.941 59.472 217.941 59.728C217.941 59.984 218.325 60.4533 219.093 61.136C219.776 61.8187 220.117 62.2453 220.117 62.416C220.117 62.5867 219.904 62.672 219.477 62.672L219.093 64.464C219.008 64.5493 218.88 64.8053 218.709 65.232C218.709 65.744 218.965 66.8533 219.477 68.56C219.136 68.7307 218.88 68.944 218.709 69.2C218.709 69.2 218.709 69.5413 218.709 70.224L218.837 71.504C218.837 71.5893 218.837 71.76 218.837 72.016C218.837 72.1867 218.794 72.4427 218.709 72.784L218.581 74.064H217.941C217.258 74.064 216.704 73.7227 216.277 73.04C215.936 72.4427 215.637 72.144 215.381 72.144C215.296 72.144 215.04 72.4 214.613 72.912C214.101 73.424 213.76 73.68 213.589 73.68L212.181 73.552C211.754 73.4667 211.413 73.4667 211.157 73.552C210.901 73.552 210.73 73.552 210.645 73.552L207.957 72.4C207.36 72.912 206.677 73.168 205.909 73.168C204.97 73.168 204.16 72.8693 203.477 72.272C203.306 72.4427 203.221 72.5707 203.221 72.656H201.301C201.216 72.656 201.173 72.656 201.173 72.656C201.173 72.5707 201.13 72.528 201.045 72.528H200.533C199.765 72.528 199.125 72.9973 198.613 73.936V74.448C198.528 74.6187 198.4 74.8747 198.229 75.216C198.144 75.472 198.016 75.7707 197.845 76.112C197.845 76.1973 197.93 76.3253 198.101 76.496L198.357 77.008V77.264C198.357 77.3493 198.357 77.52 198.357 77.776C198.357 77.9467 198.314 78.2027 198.229 78.544C198.314 78.8 198.357 79.2267 198.357 79.824C198.357 80.1653 198.144 80.464 197.717 80.72L197.461 84.944C197.973 85.3707 198.186 86.096 198.101 87.12H199.637C200.149 87.12 200.533 87.2907 200.789 87.632C201.045 87.9733 201.216 88.144 201.301 88.144L202.197 87.76L203.093 88.4C203.349 88.4 203.52 88.272 203.605 88.016L204.373 86.224V84.304L204.501 82.384C204.586 82.128 204.629 81.9147 204.629 81.744C204.714 81.488 204.757 81.3173 204.757 81.232L204.629 80.848C204.8 80.5067 204.885 80.2507 204.885 80.08C204.885 79.824 204.885 79.6533 204.885 79.568L204.629 78.416C204.97 77.5627 205.397 77.136 205.909 77.136C206.592 77.4773 207.53 77.776 208.725 78.032L209.365 77.776C209.621 77.6907 209.834 77.648 210.005 77.648C210.176 77.648 210.474 77.9893 210.901 78.672C211.84 78.3307 212.309 78.16 212.309 78.16L213.333 78.8H213.589C214.613 78.8 215.594 78.3733 216.533 77.52L218.709 79.568C218.282 80.336 217.813 81.3173 217.301 82.512C217.216 82.9387 217.088 83.4507 216.917 84.048C216.832 84.6453 216.661 85.2853 216.405 85.968C215.808 86.224 215.509 86.5653 215.509 86.992C215.509 87.1627 215.637 87.4613 215.893 87.888C216.149 88.4 216.277 88.7413 216.277 88.912L216.021 89.296C216.192 89.7227 216.149 90.1067 215.893 90.448L215.509 91.088C215.594 91.1733 215.637 91.344 215.637 91.6C215.637 92.368 215.082 93.008 213.973 93.52L213.717 93.776C213.802 93.8613 213.845 93.9893 213.845 94.16C213.845 94.7573 213.504 95.1413 212.821 95.312C211.882 95.568 211.328 95.7813 211.157 95.952C210.986 96.208 210.73 96.5067 210.389 96.848C210.048 97.1893 209.664 97.5733 209.237 98C207.53 99.1093 206.336 99.5787 205.653 99.408L204.117 99.024C203.69 99.024 203.264 99.152 202.837 99.408C202.41 99.664 202.069 99.7493 201.813 99.664L201.301 99.536H200.661C200.32 99.536 200.064 99.536 199.893 99.536C199.722 99.6213 199.594 99.664 199.509 99.664C199.594 99.664 199.637 99.664 199.637 99.664ZM202.197 45.776L202.453 45.264L202.069 45.008C202.069 45.264 202.112 45.52 202.197 45.776ZM211.157 50.128C211.584 50.128 211.84 49.872 211.925 49.36L211.797 47.696H211.541C211.285 47.696 211.157 47.4827 211.157 47.056C210.986 46.6293 210.773 46.416 210.517 46.416C210.176 46.2453 209.92 46.3733 209.749 46.8C209.664 46.8853 209.621 47.0133 209.621 47.184C209.706 47.3547 209.749 47.5253 209.749 47.696L209.877 48.592L209.493 48.976L211.157 50.128ZM199.893 51.792C200.576 51.536 200.576 51.2373 199.893 50.896C199.722 51.0667 199.722 51.3653 199.893 51.792ZM216.533 51.664L216.277 51.152L215.893 51.408L216.533 51.664ZM199.509 63.312L200.789 62.928L202.581 62.416C203.178 62.416 203.818 62.3733 204.501 62.288C205.184 62.1173 205.952 61.9467 206.805 61.776L207.189 60.24C207.274 60.1547 207.488 60.0267 207.829 59.856C207.488 59.5147 207.189 59.1733 206.933 58.832C206.762 58.4907 206.72 58.1493 206.805 57.808L206.933 56.912V56.144C206.933 55.376 206.592 54.736 205.909 54.224C205.994 53.968 206.037 53.6267 206.037 53.2C206.037 52.5173 205.269 52.1333 203.733 52.048C203.477 52.048 203.008 52.304 202.325 52.816L200.277 54.224C200.618 54.48 200.661 54.8213 200.405 55.248C200.32 55.5893 200.021 55.76 199.509 55.76V56.144C199.765 55.9733 200.021 56.1013 200.277 56.528C200.448 56.8693 200.49 57.0827 200.405 57.168L200.149 61.008C200.149 61.264 200.149 61.4773 200.149 61.648C200.234 61.8187 200.277 61.904 200.277 61.904C200.277 62.16 200.149 62.288 199.893 62.288C199.637 62.1173 199.424 61.904 199.253 61.648L198.869 61.904L198.741 62.672L199.509 63.312ZM208.469 55.504C208.64 55.76 208.896 55.76 209.237 55.504C208.981 54.736 208.725 54.736 208.469 55.504ZM200.277 61.776C200.277 61.9467 200.277 61.9893 200.277 61.904C200.277 61.904 200.277 61.8613 200.277 61.776ZM189.013 71.888C189.269 71.7173 189.61 71.248 190.037 70.48L189.909 70.096H189.653C189.226 70.096 188.672 70.3093 187.989 70.736C188.245 71.1627 188.586 71.5467 189.013 71.888ZM213.589 70.992C213.674 70.736 213.632 70.5227 213.461 70.352C213.376 70.2667 213.162 70.3093 212.821 70.48C212.821 70.6507 213.077 70.8213 213.589 70.992ZM191.445 88.144L192.469 87.632L192.341 87.12L191.701 86.992L191.445 87.248V87.12L191.317 86.608L190.933 86.48L190.677 87.888L191.445 88.144ZM201.173 90.192C201.258 90.0213 201.216 89.8507 201.045 89.68C200.874 89.5093 200.704 89.5093 200.533 89.68C200.533 89.8507 200.746 90.0213 201.173 90.192Z" fill="#8C62C2"/>
<path d="M246.576 101.712C246.576 101.712 246.363 101.541 245.936 101.2C245.595 101.029 245.211 100.944 244.784 100.944L244.144 101.2C243.888 101.285 243.632 101.328 243.376 101.328L241.072 101.072C240.987 100.901 240.731 100.773 240.304 100.688C237.147 100.347 235.568 100.048 235.568 99.792C235.568 99.792 235.653 99.7067 235.824 99.536L236.592 98.768L236.464 97.616C236.464 97.616 236.549 97.4453 236.72 97.104C236.891 96.9333 236.976 96.8053 236.976 96.72L236.208 95.568C235.867 95.568 235.696 95.8667 235.696 96.464C235.696 96.72 235.653 96.8907 235.568 96.976C235.483 96.8907 235.397 96.848 235.312 96.848C235.056 96.848 234.757 97.1467 234.416 97.744C234.16 98.0853 233.947 98.256 233.776 98.256C233.435 98.256 232.795 97.9147 231.856 97.232L230.832 95.44C230.661 95.3547 230.363 95.0987 229.936 94.672L228.656 93.008C228.571 92.8373 228.485 92.6667 228.4 92.496C228.315 92.24 228.187 91.9413 228.016 91.6C227.419 90.576 227.333 89.8507 227.76 89.424C227.504 89.3387 227.077 88.9973 226.48 88.4C226.565 88.2293 226.608 87.8453 226.608 87.248C226.608 87.0773 226.565 86.8213 226.48 86.48C226.48 86.1387 226.437 85.7973 226.352 85.456L226.096 84.176C226.096 84.0907 226.309 83.6213 226.736 82.768C226.309 82.5973 226.011 82.4267 225.84 82.256C226.011 82.0853 226.224 81.488 226.48 80.464C226.565 80.208 226.608 79.7387 226.608 79.056C226.608 79.056 226.523 78.8853 226.352 78.544C226.096 78.3733 225.968 78.2027 225.968 78.032C225.968 77.264 226.139 76.3253 226.48 75.216L225.712 74.832L225.584 71.632C225.669 71.7173 225.755 70.7787 225.84 68.816C225.84 68.816 225.883 68.688 225.968 68.432C226.139 68.0907 226.224 67.8773 226.224 67.792C225.883 67.4507 225.669 67.0667 225.584 66.64C225.584 65.5307 225.712 64.336 225.968 63.056C226.224 61.6053 226.352 60.6667 226.352 60.24C226.352 59.3013 226.096 58.4053 225.584 57.552L225.84 54.608C226.096 54.608 226.352 54.4373 226.608 54.096V53.584C226.267 53.4133 226.053 53.328 225.968 53.328L225.072 53.584C225.157 52.7307 225.2 51.8773 225.2 51.024C225.2 50.0853 225.2 49.0613 225.2 47.952C225.029 47.696 224.859 47.3973 224.688 47.056C224.688 46.6293 224.816 45.6053 225.072 43.984L224.816 42.96C224.901 42.1067 224.987 41.7227 225.072 41.808C224.987 41.552 224.901 41.0827 224.816 40.4C224.731 39.4613 224.603 38.9493 224.432 38.864C224.432 38.5227 224.859 37.9253 225.712 37.072C225.541 36.6453 225.2 36.5173 224.688 36.688C224.688 36.3467 224.816 35.8773 225.072 35.28C224.389 34.5973 224.048 34.0853 224.048 33.744C224.048 33.488 224.176 33.0613 224.432 32.464C224.603 32.2933 224.987 32.208 225.584 32.208C225.499 32.208 226.224 32.5067 227.76 33.104C227.845 33.0187 227.888 32.848 227.888 32.592C227.888 31.824 227.504 31.44 226.736 31.44L226.096 31.824C225.84 31.824 225.285 31.5253 224.432 30.928C224.517 30.16 224.56 29.4347 224.56 28.752C224.645 27.984 224.645 27.2587 224.56 26.576L224.048 25.296V24.912C224.048 23.8027 224.432 23.248 225.2 23.248L225.84 23.504C226.352 23.6747 226.608 23.76 226.608 23.76L227.376 23.376C227.888 23.2053 228.144 23.12 228.144 23.12L228.784 23.376C229.125 23.5467 229.296 23.632 229.296 23.632L229.808 23.504H230.192L231.088 23.76C231.344 23.8453 231.515 23.9307 231.6 24.016C231.771 24.1013 231.899 24.144 231.984 24.144C232.155 24.144 232.752 23.888 233.776 23.376C234.8 22.9493 235.355 22.736 235.44 22.736C235.611 22.8213 235.781 22.9067 235.952 22.992C236.208 22.992 236.507 23.0347 236.848 23.12C237.019 23.12 237.189 23.12 237.36 23.12C237.531 23.0347 237.701 22.9493 237.872 22.864L238.768 23.888L238.128 25.424C238.213 26.2773 238.256 26.832 238.256 27.088C238.256 27.344 238.299 27.3867 238.384 27.216C238.384 27.472 238.213 27.728 237.872 27.984L237.616 28.496L238.256 29.648C238.512 30.2453 238.64 30.928 238.64 31.696C238.555 32.0373 238.512 32.4213 238.512 32.848C238.512 33.1893 238.512 33.6587 238.512 34.256C237.488 34.8533 236.976 35.408 236.976 35.92C236.976 36.176 237.275 36.176 237.872 35.92C238.299 36.3467 238.512 36.688 238.512 36.944C238.512 37.1147 238.384 37.5413 238.128 38.224C237.872 38.992 237.744 39.4613 237.744 39.632C237.915 40.144 238.384 40.784 239.152 41.552C238.811 41.8933 238.683 42.4053 238.768 43.088L239.024 44.752C239.024 44.752 238.939 44.9653 238.768 45.392L238.896 45.52C238.981 45.6053 239.024 45.776 239.024 46.032V47.184L238 47.568C238.085 47.9093 238.384 48.1227 238.896 48.208C239.152 48.3787 239.323 48.6773 239.408 49.104C239.408 49.616 239.195 50 238.768 50.256L238.896 50.768V53.328L238.256 53.2C238.171 53.2853 238.043 53.4133 237.872 53.584C237.787 53.7547 237.616 53.968 237.36 54.224C237.019 54.5653 236.848 54.7787 236.848 54.864L237.232 55.504C237.488 55.248 237.531 54.992 237.36 54.736C237.616 54.736 238 54.608 238.512 54.352C239.024 54.1813 239.365 54.1387 239.536 54.224C239.365 54.736 239.28 55.12 239.28 55.376V55.632C238.768 55.9733 238.512 56.4427 238.512 57.04C238.683 57.3813 239.067 57.7653 239.664 58.192C239.323 59.0453 239.195 59.7707 239.28 60.368L239.792 62.544C239.792 62.6293 239.792 62.8 239.792 63.056C239.792 63.2267 239.749 63.44 239.664 63.696L239.92 63.824C239.835 63.824 239.749 63.952 239.664 64.208C239.92 64.6347 240.005 64.9333 239.92 65.104L239.408 66.128C239.664 67.2373 239.792 68.9013 239.792 71.12C239.707 71.2053 239.664 71.2907 239.664 71.376C239.579 71.632 239.493 71.76 239.408 71.76C239.323 71.8453 239.237 71.9733 239.152 72.144C238.981 72.5707 238.939 73.2533 239.024 74.192L239.664 74.704V74.96C239.664 75.3013 239.621 75.6427 239.536 75.984C239.451 76.3253 239.451 76.9653 239.536 77.904L240.176 79.696C239.579 80.0373 239.28 80.336 239.28 80.592C239.28 80.6773 239.323 80.8053 239.408 80.976C239.493 81.0613 239.579 81.1893 239.664 81.36L239.92 82.128V82.256C239.92 82.4267 239.707 83.152 239.28 84.432C239.621 84.6027 239.877 84.7733 240.048 84.944C240.219 85.456 240.56 85.968 241.072 86.48V87.12L240.816 87.376C240.475 87.2053 239.877 86.736 239.024 85.968H238.768C238.597 86.1387 238.512 86.2667 238.512 86.352C238.512 86.6933 238.768 87.0773 239.28 87.504L240.304 88.272C240.731 88.3573 241.029 88.4 241.2 88.4C241.371 88.4 241.456 88.4 241.456 88.4L242.736 87.888C242.821 88.5707 243.589 89.1253 245.04 89.552L245.424 89.168L244.784 88.528V88.016L246.32 87.888C246.491 87.888 246.747 88.0587 247.088 88.4C247.856 87.888 248.24 87.0773 248.24 85.968H250.416C251.355 85.968 251.739 85.2427 251.568 83.792L251.952 83.28C251.952 83.1093 251.781 82.9813 251.44 82.896C250.843 84.0053 250.715 84.7307 251.056 85.072L250.672 85.456C249.733 84.944 249.264 84.4747 249.264 84.048L250.032 82.896C250.288 82.384 250.416 81.7867 250.416 81.104C250.416 80.848 250.416 80.5493 250.416 80.208C250.416 79.8667 250.331 79.5253 250.16 79.184L250.672 78.16L250.544 78.032C250.544 78.032 250.331 78.1173 249.904 78.288C249.648 77.264 249.52 76.5813 249.52 76.24C249.691 75.3867 249.819 74.5333 249.904 73.68C249.989 72.7413 250.075 71.8453 250.16 70.992L250.032 69.968L250.288 69.84L250.032 69.712C249.947 69.6267 249.989 69.3707 250.16 68.944V68.688C250.075 68.6027 249.947 68.5173 249.776 68.432C249.691 68.3467 249.563 68.2187 249.392 68.048L250.16 65.36C249.989 65.1893 249.776 65.104 249.52 65.104H249.264L249.136 63.824L248.88 62.8C248.965 62.4587 249.008 62.1173 249.008 61.776C249.093 61.3493 249.136 60.8373 249.136 60.24C249.563 59.984 250.075 59.5147 250.672 58.832C250.501 58.6613 250.373 58.576 250.288 58.576L249.648 58.832C249.563 58.832 249.435 58.704 249.264 58.448C249.008 57.7653 248.88 57.1253 248.88 56.528L249.008 56.144C249.008 56.0587 249.008 56.016 249.008 56.016C249.093 56.016 249.136 55.9733 249.136 55.888L249.008 53.584C249.179 53.2427 249.264 53.072 249.264 53.072C249.264 52.816 249.179 52.56 249.008 52.304L248.624 51.664C248.624 51.2373 248.795 50.8107 249.136 50.384C249.563 50.384 249.947 50.768 250.288 51.536H250.8L250.928 51.152C250.928 50.384 250.587 50.128 249.904 50.384L250.032 49.872C249.861 49.5307 249.52 49.3173 249.008 49.232L248.624 47.952C248.709 47.7813 248.752 47.5253 248.752 47.184C248.837 46.7573 248.837 46.2453 248.752 45.648L248.624 44.624C249.563 43.856 250.032 43.216 250.032 42.704C250.032 42.7893 249.648 42.192 248.88 40.912C248.88 40.8267 248.837 40.784 248.752 40.784C248.752 40.6987 248.752 40.6133 248.752 40.528C248.752 40.272 248.88 39.888 249.136 39.376C249.136 39.376 248.965 38.9067 248.624 37.968L248.88 35.92L248.624 35.024C248.453 34.512 248.368 34.256 248.368 34.256C248.368 34.1707 248.581 33.7867 249.008 33.104L248.752 31.696C248.837 31.6107 248.923 31.5253 249.008 31.44C249.093 31.2693 249.179 31.1413 249.264 31.056C249.349 30.8853 249.392 30.6293 249.392 30.288C249.136 29.776 248.709 28.624 248.112 26.832C248.027 26.4907 247.941 26.1067 247.856 25.68C247.856 25.2533 247.856 24.7413 247.856 24.144L247.344 23.12L247.728 22.736L250.416 22.352C250.843 22.352 251.184 22.5653 251.44 22.992L251.824 22.864L252.336 22.736C252.507 22.736 252.891 22.7787 253.488 22.864C254.085 22.9493 254.853 23.0773 255.792 23.248L256.432 23.504C256.603 23.504 256.901 23.1627 257.328 22.48H258.608C259.035 22.3947 259.461 22.3093 259.888 22.224C260.315 22.1387 260.784 22.0533 261.296 21.968C262.149 21.968 262.619 22.1387 262.704 22.48C262.789 22.8213 262.789 23.12 262.704 23.376C262.704 23.5467 262.704 23.6747 262.704 23.76L262.448 24.528V25.04C262.448 25.296 262.448 25.5947 262.448 25.936C262.448 26.2773 262.491 26.704 262.576 27.216L262.064 27.728C262.064 27.728 262.149 27.984 262.32 28.496C262.405 28.8373 262.192 29.136 261.68 29.392C262.448 29.5627 262.704 30.2453 262.448 31.44L262.064 31.824C262.235 32.2507 262.363 32.7627 262.448 33.36C262.533 33.872 262.619 34.4693 262.704 35.152C262.704 34.9813 262.661 35.152 262.576 35.664C262.491 36.176 262.363 37.0293 262.192 38.224C262.363 38.992 262.491 39.8453 262.576 40.784C262.576 40.784 262.491 40.9547 262.32 41.296C262.064 41.6373 261.936 41.8507 261.936 41.936C261.936 42.1067 262.192 42.4053 262.704 42.832L263.088 44.752L263.472 54.352C263.131 54.6933 263.003 55.12 263.088 55.632C263.088 55.632 263.003 55.7173 262.832 55.888C262.747 56.0587 262.704 56.2293 262.704 56.4L263.216 57.296C263.387 57.6373 263.472 57.8933 263.472 58.064C263.557 58.1493 263.6 58.2347 263.6 58.32L263.216 59.088C262.96 59.4293 262.832 59.6853 262.832 59.856L263.728 62.032H263.6C263.088 62.032 262.747 62.3733 262.576 63.056L262.192 64.848C262.107 66.128 261.979 66.768 261.808 66.768C261.979 66.8533 262.192 66.9387 262.448 67.024C262.704 67.1093 262.917 67.2373 263.088 67.408C263.344 68.7733 263.387 70.1813 263.216 71.632C263.131 72.3147 263.045 72.912 262.96 73.424C262.96 73.936 262.96 74.3627 262.96 74.704L262.064 75.216L262.32 75.6C262.747 75.6853 262.96 75.728 262.96 75.728L263.344 75.6L263.6 75.984C263.515 76.1547 263.344 76.4107 263.088 76.752C262.917 77.008 262.661 77.3493 262.32 77.776C262.661 77.8613 263.003 77.8187 263.344 77.648C263.685 77.7333 263.856 77.9893 263.856 78.416L263.728 78.928C263.557 79.2693 263.472 79.4827 263.472 79.568L263.728 82.256L263.216 83.92C263.301 84.0053 263.344 84.2613 263.344 84.688C262.917 85.968 262.704 86.4373 262.704 86.096C262.789 87.2053 262.832 87.8027 262.832 87.888C262.661 88.0587 262.576 88.272 262.576 88.528L262.448 90.448C261.765 90.6187 261.424 91.3013 261.424 92.496C261.083 92.5813 260.571 92.9653 259.888 93.648C259.803 93.9893 259.632 94.3733 259.376 94.8C259.205 95.1413 258.949 95.6107 258.608 96.208L257.072 97.104V97.744H256.688C256.091 97.744 255.664 98.0853 255.408 98.768L253.36 99.792C253.019 99.792 252.379 99.92 251.44 100.176C251.099 100.347 250.629 100.517 250.032 100.688C249.435 100.944 248.795 101.2 248.112 101.456H247.984C247.899 101.456 247.856 101.413 247.856 101.328C247.856 101.328 247.813 101.328 247.728 101.328L246.576 101.712ZM233.776 30.16C233.776 29.9893 233.819 29.8613 233.904 29.776C233.904 29.6907 233.563 29.1787 232.88 28.24C232.283 27.5573 231.984 27.0027 231.984 26.576C231.387 26.6613 231.088 26.8747 231.088 27.216V28.752C231.088 29.264 231.472 29.6053 232.24 29.776L233.776 30.16ZM259.888 30.544L260.144 30.416H260.4C260.485 30.3307 260.528 30.032 260.528 29.52C260.357 28.8373 260.144 28.496 259.888 28.496C259.461 29.3493 259.248 29.6907 259.248 29.52C259.248 29.776 259.461 30.1173 259.888 30.544ZM254.896 29.264C254.896 29.0933 254.811 28.9227 254.64 28.752C254.555 28.5813 254.384 28.624 254.128 28.88C254.128 29.136 254.384 29.264 254.896 29.264ZM256.432 38.352C256.688 38.4373 256.944 38.2667 257.2 37.84C257.115 37.7547 256.944 37.712 256.688 37.712C256.517 37.712 256.432 37.9253 256.432 38.352ZM234.416 48.336L235.568 47.696C235.568 47.5253 235.397 47.2693 235.056 46.928C235.056 46.928 234.971 46.8427 234.8 46.672H234.416L234.032 47.056C234.203 47.2267 234.331 47.6533 234.416 48.336ZM230.704 60.752C230.789 60.6667 231.003 60.5387 231.344 60.368C231.259 60.2827 231.045 60.2827 230.704 60.368V60.752ZM260.016 61.648C260.187 61.7333 260.357 61.6907 260.528 61.52C260.613 61.4347 260.571 61.2213 260.4 60.88C260.144 60.9653 260.016 61.2213 260.016 61.648ZM232.368 61.52C232.624 61.6053 232.88 61.4773 233.136 61.136C233.051 61.0507 232.923 61.008 232.752 61.008C232.496 61.008 232.368 61.1787 232.368 61.52ZM239.92 63.824C239.92 63.7387 239.92 63.7387 239.92 63.824V63.824ZM237.744 66.512C238 66.5973 238.256 66.4693 238.512 66.128C238.256 65.872 238.043 65.8293 237.872 66C237.701 66.1707 237.659 66.3413 237.744 66.512ZM233.776 67.408H233.264L233.776 68.048V67.408ZM234.928 74.32C235.013 74.2347 235.056 74.1067 235.056 73.936C235.056 73.68 234.885 73.552 234.544 73.552C234.459 73.808 234.587 74.064 234.928 74.32ZM254.128 76.496L254.384 76.24C254.469 76.1547 254.512 76.1547 254.512 76.24C254.512 76.24 254.555 76.1973 254.64 76.112L254.384 75.728C254.384 75.728 254.299 75.984 254.128 76.496ZM239.408 80.208C239.408 80.0373 239.323 79.8667 239.152 79.696C239.067 79.5253 238.896 79.568 238.64 79.824C238.64 80.08 238.896 80.208 239.408 80.208ZM254.768 84.56C255.195 84.56 255.792 84.176 256.56 83.408V81.616H255.792C255.109 81.616 254.384 82.2987 253.616 83.664C253.957 84.2613 254.341 84.56 254.768 84.56ZM225.712 82.128L225.84 82.256C225.755 82.256 225.712 82.256 225.712 82.256V82.128ZM262.96 87.76C262.875 87.9307 262.832 87.9733 262.832 87.888C262.832 87.888 262.875 87.8453 262.96 87.76ZM255.792 88.4C255.877 88.2293 255.835 88.0587 255.664 87.888C255.579 87.8027 255.365 87.8453 255.024 88.016C255.195 88.272 255.451 88.4 255.792 88.4ZM239.536 95.568C239.536 95.3973 239.408 95.2693 239.152 95.184L238.896 95.312C238.981 95.3973 239.067 95.44 239.152 95.44C239.323 95.44 239.451 95.4827 239.536 95.568ZM239.792 97.616C239.792 97.4453 239.707 97.2747 239.536 97.104C239.451 96.9333 239.28 96.976 239.024 97.232C239.024 97.488 239.28 97.616 239.792 97.616ZM283.604 99.024L282.708 98.384L282.196 98.512C282.025 98.5973 281.812 98.64 281.556 98.64L280.532 98.128C279.935 97.7867 279.551 97.616 279.38 97.616C279.124 97.616 278.953 97.7867 278.868 98.128C278.527 98.4693 278.228 98.5973 277.972 98.512L277.46 98.384C277.204 98.2987 276.948 98.256 276.692 98.256L276.052 98.512C275.711 98.5973 275.455 98.5973 275.284 98.512C275.284 98.512 275.028 98.4267 274.516 98.256L273.748 97.872C273.748 97.872 273.279 98.128 272.34 98.64H271.7L271.444 98.256L271.828 96.336C271.913 95.9093 272.041 95.4827 272.212 95.056C272.383 94.544 272.511 93.9893 272.596 93.392L272.212 92.752C272.127 92.496 271.999 92.2827 271.828 92.112C271.743 91.9413 271.7 91.7707 271.7 91.6L272.34 89.68C272.255 88.656 272.255 87.12 272.34 85.072C272.937 85.072 273.535 84.944 274.132 84.688C274.132 84.5173 273.833 84.2613 273.236 83.92L272.212 83.408L272.98 82.64V81.488C272.724 81.232 272.553 80.976 272.468 80.72L272.34 78.928C272.425 77.904 272.681 76.9227 273.108 75.984H273.62C273.791 75.984 273.919 75.6853 274.004 75.088C274.004 74.576 273.961 74.2773 273.876 74.192C273.791 74.2773 273.577 74.32 273.236 74.32L272.724 73.296C272.639 72.6987 272.553 72.2293 272.468 71.888C272.468 71.4613 272.511 71.0773 272.596 70.736C272.596 70.1387 272.937 69.4987 273.62 68.816C273.705 68.56 273.748 68.304 273.748 68.048C273.748 67.792 273.748 67.5787 273.748 67.408C273.748 66.7253 273.62 66.3413 273.364 66.256L273.876 60.496C273.364 59.8133 273.108 59.2587 273.108 58.832L273.236 55.12L274.004 50.256C274.004 50.1707 273.791 49.9147 273.364 49.488C273.705 48.976 273.876 48.5493 273.876 48.208L274.132 45.52C274.047 45.3493 274.004 45.1787 274.004 45.008C274.004 44.752 273.961 44.4533 273.876 44.112L274.132 42.832C274.217 42.7467 274.345 42.6613 274.516 42.576C274.687 42.4907 274.857 42.4053 275.028 42.32C275.199 42.064 275.071 41.936 274.644 41.936H274.004C274.089 41.8507 274.175 41.5093 274.26 40.912C274.175 40.5707 274.132 40.2293 274.132 39.888C274.132 39.4613 274.132 38.992 274.132 38.48C274.217 38.0533 274.26 37.712 274.26 37.456C274.345 37.1147 274.388 36.8587 274.388 36.688C274.388 36.0907 274.345 35.6213 274.26 35.28C274.26 34.9387 274.303 34.7253 274.388 34.64L274.9 34L274.26 33.36C274.175 33.2747 274.132 32.9333 274.132 32.336L274.772 29.648C274.687 29.4773 274.644 29.0933 274.644 28.496L275.028 27.728C274.943 27.5573 274.815 27.3867 274.644 27.216C274.559 26.96 274.473 26.6613 274.388 26.32C274.388 26.2347 274.473 26.1067 274.644 25.936C274.815 25.7653 274.9 25.5947 274.9 25.424L274.516 23.376C274.601 23.2907 274.687 23.0773 274.772 22.736C274.687 22.5653 274.559 22.3093 274.388 21.968V20.944H275.54L276.564 21.584L279.124 21.968C279.124 22.0533 278.996 22.4373 278.74 23.12C278.911 23.2907 279.124 23.2907 279.38 23.12C279.465 22.9493 279.423 22.5653 279.252 21.968C279.423 21.7973 279.892 21.712 280.66 21.712C281.257 21.712 281.727 21.7973 282.068 21.968L283.092 21.2C283.007 21.2853 283.22 21.4987 283.732 21.84C284.244 22.0107 284.756 22.096 285.268 22.096L285.652 21.84C285.737 21.7547 285.865 21.712 286.036 21.712L287.06 21.84C287.231 21.84 287.401 21.8827 287.572 21.968C287.743 22.0533 287.871 22.096 287.956 22.096L288.468 21.84C288.809 21.6693 288.98 21.584 288.98 21.584C289.833 21.584 290.175 21.84 290.004 22.352L289.748 24.016C289.577 24.1867 289.407 24.4853 289.236 24.912C289.151 24.9973 289.108 25.2107 289.108 25.552C289.108 26.1493 289.065 26.4907 288.98 26.576C288.468 26.832 288.212 27.0027 288.212 27.088C288.041 26.9173 287.871 26.7893 287.7 26.704L287.444 27.088C287.359 27.1733 287.444 27.2587 287.7 27.344C287.785 27.344 287.871 27.3013 287.956 27.216C287.956 27.1307 287.999 27.1307 288.084 27.216L289.236 27.856L288.98 32.208C288.383 32.5493 287.999 33.4027 287.828 34.768C288.169 35.1093 288.468 35.28 288.724 35.28C288.809 35.28 288.895 35.2373 288.98 35.152C288.98 35.0667 289.023 35.024 289.108 35.024C289.279 35.024 289.577 35.2373 290.004 35.664C289.748 36.176 289.364 36.176 288.852 35.664L288.468 36.688C288.127 36.8587 287.871 37.072 287.7 37.328C287.7 38.096 288.041 38.608 288.724 38.864C288.553 38.7787 288.383 39.12 288.212 39.888C288.639 40.0587 288.852 40.3573 288.852 40.784C288.852 41.04 288.639 41.3813 288.212 41.808L288.468 42.32L288.34 42.832C288.34 42.7467 288.127 42.6613 287.7 42.576C287.7 42.576 287.487 42.7893 287.06 43.216C286.889 43.3013 286.676 43.3867 286.42 43.472C286.164 43.5573 285.823 43.6853 285.396 43.856C285.567 44.112 285.78 44.24 286.036 44.24H286.548C286.548 44.4107 286.633 44.5813 286.804 44.752C286.719 44.9227 286.676 45.264 286.676 45.776C287.103 45.9467 287.529 46.288 287.956 46.8C288.041 47.056 288.084 47.5253 288.084 48.208C287.999 48.976 287.871 49.4453 287.7 49.616C287.615 49.7867 287.572 49.9573 287.572 50.128L288.084 52.432C288.169 52.7733 288.212 53.2 288.212 53.712C288.212 54.0533 288.169 54.352 288.084 54.608C288.084 54.7787 288.041 54.9493 287.956 55.12C288.212 55.7173 288.34 56.144 288.34 56.4L287.316 57.808C287.231 57.9787 287.188 58.2773 287.188 58.704C287.273 58.704 287.444 59.0027 287.7 59.6C287.871 59.9413 287.956 60.24 287.956 60.496C287.956 60.9227 287.7 61.264 287.188 61.52C287.188 61.6907 287.231 61.904 287.316 62.16C287.401 62.416 287.487 62.7573 287.572 63.184L287.828 64.336C287.743 64.4213 287.657 64.5493 287.572 64.72C287.572 64.8907 287.487 65.0613 287.316 65.232L287.572 66.512C287.487 66.5973 287.359 66.768 287.188 67.024C287.017 67.1947 286.847 67.408 286.676 67.664C286.591 67.92 286.548 68.3893 286.548 69.072C286.548 69.4133 286.676 69.7973 286.932 70.224L286.804 70.736C286.975 70.8213 287.06 71.1627 287.06 71.76V72.912C287.316 73.5093 287.487 73.8507 287.572 73.936L286.42 75.216C286.591 75.3013 286.761 75.3867 286.932 75.472C287.103 75.5573 287.316 75.6853 287.572 75.856C287.401 76.5387 287.188 77.136 286.932 77.648C286.505 78.3307 286.292 78.7573 286.292 78.928L287.06 82.64C286.975 82.7253 286.889 82.8107 286.804 82.896C286.719 82.9813 286.633 83.1093 286.548 83.28L286.42 85.712C286.335 85.7973 286.121 85.9253 285.78 86.096C285.78 86.5227 286.036 86.8213 286.548 86.992C286.121 87.1627 285.908 87.376 285.908 87.632V87.888C285.908 88.3147 286.079 88.656 286.42 88.912C286.847 89.3387 287.06 89.68 287.06 89.936L286.42 90.832V92.24H286.164C285.652 92.24 285.055 92.4107 284.372 92.752L284.884 93.264H285.14C286.079 93.264 286.591 94.2027 286.676 96.08H285.908C285.737 95.9093 285.396 96.1653 284.884 96.848C284.884 96.848 285.012 96.9333 285.268 97.104L286.036 96.848L286.42 98.384C285.311 98.7253 284.799 98.896 284.884 98.896H285.012C285.012 98.896 284.969 98.896 284.884 98.896L284.244 98.768C283.988 98.768 283.775 98.8533 283.604 99.024ZM283.092 28.752C283.348 28.8373 283.604 28.7093 283.86 28.368C283.775 28.2827 283.647 28.24 283.476 28.24C283.22 28.24 283.092 28.4107 283.092 28.752ZM285.012 34.128L285.396 34L285.78 33.104C286.121 32.9333 286.42 32.72 286.676 32.464L285.652 30.032C285.311 30.1173 285.055 30.2453 284.884 30.416V30.8C284.884 31.1413 284.799 31.4827 284.628 31.824C284.287 32.08 283.903 32.464 283.476 32.976C283.988 33.744 284.5 34.128 285.012 34.128ZM282.836 37.328C282.921 37.072 282.879 36.8587 282.708 36.688C282.623 36.5173 282.452 36.56 282.196 36.816C282.196 36.9867 282.409 37.1573 282.836 37.328ZM282.068 39.504L281.812 40.016C281.897 39.9307 281.983 39.888 282.068 39.888H282.196C282.196 39.7173 282.153 39.5893 282.068 39.504ZM274.004 41.936C274.004 42.0213 274.004 42.0213 274.004 41.936V41.936ZM276.692 43.984C276.863 44.0693 277.033 44.0267 277.204 43.856C277.375 43.6853 277.332 43.5147 277.076 43.344C276.82 43.344 276.692 43.5573 276.692 43.984ZM282.58 52.176C282.665 52.0053 282.623 51.8347 282.452 51.664C282.367 51.4933 282.196 51.536 281.94 51.792C281.94 52.048 282.153 52.176 282.58 52.176ZM276.692 52.304C276.777 52.2187 276.82 52.0053 276.82 51.664H276.308C276.223 51.664 276.265 51.7493 276.436 51.92C276.607 52.0907 276.692 52.2187 276.692 52.304ZM277.46 58.576C277.545 58.4907 277.588 58.3627 277.588 58.192C277.588 57.936 277.417 57.8507 277.076 57.936C276.905 58.1067 277.033 58.32 277.46 58.576ZM280.66 66V65.488C280.575 65.3173 280.447 65.3173 280.276 65.488L280.66 66ZM281.3 72.4C281.471 72.2293 281.556 72.1013 281.556 72.016C281.556 71.76 281.343 71.632 280.916 71.632C280.831 71.888 280.959 72.144 281.3 72.4ZM276.948 73.936L277.844 73.296C277.673 72.8693 277.332 72.4853 276.82 72.144C276.223 72.0587 275.924 72.1867 275.924 72.528C275.924 73.04 276.265 73.5093 276.948 73.936ZM287.572 73.808C287.572 73.8933 287.572 73.936 287.572 73.936V73.808ZM274.004 87.376C274.26 87.4613 274.516 87.2907 274.772 86.864C274.687 86.7787 274.559 86.736 274.388 86.736C274.132 86.736 274.004 86.9493 274.004 87.376ZM281.94 94.544C281.94 94.288 281.897 94.1173 281.812 94.032C281.727 93.9467 281.513 93.9893 281.172 94.16C281.172 94.416 281.428 94.544 281.94 94.544ZM273.876 95.824C273.876 95.6533 273.791 95.4827 273.62 95.312C273.449 95.1413 273.279 95.1413 273.108 95.312C273.108 95.4827 273.364 95.6533 273.876 95.824Z" fill="#EA5D5D"/>
</g>
</g>
<defs>
<filter id="filter0_ddddddiiiiiii_1_8" x="5.795" y="20.56" width="288.465" height="89.152" filterUnits="userSpaceOnUse" color-interpolation-filters="sRGB">
<feFlood flood-opacity="0" result="BackgroundImageFix"/>
<feColorMatrix in="SourceAlpha" type="matrix" values="0 0 0 0 0 0 0 0 0 0 0 0 0 0 0 0 0 0 127 0" result="hardAlpha"/>
<feOffset dy="4"/>
<feGaussianBlur stdDeviation="2"/>
<feComposite in2="hardAlpha" operator="out"/>
<feColorMatrix type="matrix" values="0 0 0 0 0 0 0 0 0 0 0 0 0 0 0 0 0 0 0.25 0"/>
<feBlend mode="normal" in2="BackgroundImageFix" result="effect1_dropShadow_1_8"/>
<feColorMatrix in="SourceAlpha" type="matrix" values="0 0 0 0 0 0 0 0 0 0 0 0 0 0 0 0 0 0 127 0" result="hardAlpha"/>
<feOffset dy="4"/>
<feGaussianBlur stdDeviation="2"/>
<feComposite in2="hardAlpha" operator="out"/>
<feColorMatrix type="matrix" values="0 0 0 0 0 0 0 0 0 0 0 0 0 0 0 0 0 0 0.25 0"/>
<feBlend mode="normal" in2="effect1_dropShadow_1_8" result="effect2_dropShadow_1_8"/>
<feColorMatrix in="SourceAlpha" type="matrix" values="0 0 0 0 0 0 0 0 0 0 0 0 0 0 0 0 0 0 127 0" result="hardAlpha"/>
<feOffset dy="4"/>
<feGaussianBlur stdDeviation="2"/>
<feComposite in2="hardAlpha" operator="out"/>
<feColorMatrix type="matrix" values="0 0 0 0 0 0 0 0 0 0 0 0 0 0 0 0 0 0 0.25 0"/>
<feBlend mode="normal" in2="effect2_dropShadow_1_8" result="effect3_dropShadow_1_8"/>
<feColorMatrix in="SourceAlpha" type="matrix" values="0 0 0 0 0 0 0 0 0 0 0 0 0 0 0 0 0 0 127 0" result="hardAlpha"/>
<feOffset dy="4"/>
<feGaussianBlur stdDeviation="2"/>
<feComposite in2="hardAlpha" operator="out"/>
<feColorMatrix type="matrix" values="0 0 0 0 0 0 0 0 0 0 0 0 0 0 0 0 0 0 0.25 0"/>
<feBlend mode="normal" in2="effect3_dropShadow_1_8" result="effect4_dropShadow_1_8"/>
<feColorMatrix in="SourceAlpha" type="matrix" values="0 0 0 0 0 0 0 0 0 0 0 0 0 0 0 0 0 0 127 0" result="hardAlpha"/>
<feOffset dy="4"/>
<feGaussianBlur stdDeviation="2"/>
<feComposite in2="hardAlpha" operator="out"/>
<feColorMatrix type="matrix" values="0 0 0 0 0 0 0 0 0 0 0 0 0 0 0 0 0 0 0.25 0"/>
<feBlend mode="normal" in2="effect4_dropShadow_1_8" result="effect5_dropShadow_1_8"/>
<feColorMatrix in="SourceAlpha" type="matrix" values="0 0 0 0 0 0 0 0 0 0 0 0 0 0 0 0 0 0 127 0" result="hardAlpha"/>
<feOffset dy="4"/>
<feGaussianBlur stdDeviation="2"/>
<feComposite in2="hardAlpha" operator="out"/>
<feColorMatrix type="matrix" values="0 0 0 0 0 0 0 0 0 0 0 0 0 0 0 0 0 0 0.25 0"/>
<feBlend mode="normal" in2="effect5_dropShadow_1_8" result="effect6_dropShadow_1_8"/>
<feBlend mode="normal" in="SourceGraphic" in2="effect6_dropShadow_1_8" result="shape"/>
<feColorMatrix in="SourceAlpha" type="matrix" values="0 0 0 0 0 0 0 0 0 0 0 0 0 0 0 0 0 0 127 0" result="hardAlpha"/>
<feOffset dy="4"/>
<feGaussianBlur stdDeviation="2"/>
<feComposite in2="hardAlpha" operator="arithmetic" k2="-1" k3="1"/>
<feColorMatrix type="matrix" values="0 0 0 0 0 0 0 0 0 0 0 0 0 0 0 0 0 0 0.25 0"/>
<feBlend mode="normal" in2="shape" result="effect7_innerShadow_1_8"/>
<feColorMatrix in="SourceAlpha" type="matrix" values="0 0 0 0 0 0 0 0 0 0 0 0 0 0 0 0 0 0 127 0" result="hardAlpha"/>
<feOffset dy="4"/>
<feGaussianBlur stdDeviation="2"/>
<feComposite in2="hardAlpha" operator="arithmetic" k2="-1" k3="1"/>
<feColorMatrix type="matrix" values="0 0 0 0 0 0 0 0 0 0 0 0 0 0 0 0 0 0 0.25 0"/>
<feBlend mode="normal" in2="effect7_innerShadow_1_8" result="effect8_innerShadow_1_8"/>
<feColorMatrix in="SourceAlpha" type="matrix" values="0 0 0 0 0 0 0 0 0 0 0 0 0 0 0 0 0 0 127 0" result="hardAlpha"/>
<feOffset dy="4"/>
<feGaussianBlur stdDeviation="2"/>
<feComposite in2="hardAlpha" operator="arithmetic" k2="-1" k3="1"/>
<feColorMatrix type="matrix" values="0 0 0 0 0 0 0 0 0 0 0 0 0 0 0 0 0 0 0.25 0"/>
<feBlend mode="normal" in2="effect8_innerShadow_1_8" result="effect9_innerShadow_1_8"/>
<feColorMatrix in="SourceAlpha" type="matrix" values="0 0 0 0 0 0 0 0 0 0 0 0 0 0 0 0 0 0 127 0" result="hardAlpha"/>
<feOffset dy="4"/>
<feGaussianBlur stdDeviation="2"/>
<feComposite in2="hardAlpha" operator="arithmetic" k2="-1" k3="1"/>
<feColorMatrix type="matrix" values="0 0 0 0 0 0 0 0 0 0 0 0 0 0 0 0 0 0 0.25 0"/>
<feBlend mode="normal" in2="effect9_innerShadow_1_8" result="effect10_innerShadow_1_8"/>
<feColorMatrix in="SourceAlpha" type="matrix" values="0 0 0 0 0 0 0 0 0 0 0 0 0 0 0 0 0 0 127 0" result="hardAlpha"/>
<feOffset dy="4"/>
<feGaussianBlur stdDeviation="2"/>
<feComposite in2="hardAlpha" operator="arithmetic" k2="-1" k3="1"/>
<feColorMatrix type="matrix" values="0 0 0 0 0 0 0 0 0 0 0 0 0 0 0 0 0 0 0.25 0"/>
<feBlend mode="normal" in2="effect10_innerShadow_1_8" result="effect11_innerShadow_1_8"/>
<feColorMatrix in="SourceAlpha" type="matrix" values="0 0 0 0 0 0 0 0 0 0 0 0 0 0 0 0 0 0 127 0" result="hardAlpha"/>
<feOffset dy="4"/>
<feGaussianBlur stdDeviation="2"/>
<feComposite in2="hardAlpha" operator="arithmetic" k2="-1" k3="1"/>
<feColorMatrix type="matrix" values="0 0 0 0 0 0 0 0 0 0 0 0 0 0 0 0 0 0 0.25 0"/>
<feBlend mode="normal" in2="effect11_innerShadow_1_8" result="effect12_innerShadow_1_8"/>
<feColorMatrix in="SourceAlpha" type="matrix" values="0 0 0 0 0 0 0 0 0 0 0 0 0 0 0 0 0 0 127 0" result="hardAlpha"/>
<feOffset dy="4"/>
<feGaussianBlur stdDeviation="2"/>
<feComposite in2="hardAlpha" operator="arithmetic" k2="-1" k3="1"/>
<feColorMatrix type="matrix" values="0 0 0 0 0 0 0 0 0 0 0 0 0 0 0 0 0 0 0.25 0"/>
<feBlend mode="normal" in2="effect12_innerShadow_1_8" result="effect13_innerShadow_1_8"/>
</filter>
<clipPath id="clip0_1_8">
<rect width="300" height="120" fill="white"/>
</clipPath>
</defs>
</svg>
