<svg width="40" height="40" viewBox="0 0 40 40" fill="none" xmlns="http://www.w3.org/2000/svg">
<path d="M9.44441 36.6667C8.69441 36.6667 8.04396 36.3912 7.49304 35.8403C6.94212 35.2894 6.66666 34.6389 6.66666 33.8889V6.11108C6.66666 5.36108 6.94212 4.71062 7.49304 4.1597C8.04396 3.60879 8.69441 3.33333 9.44441 3.33333H23.9167L33.3333 12.75V33.8889C33.3333 34.6389 33.0579 35.2894 32.507 35.8403C31.956 36.3912 31.3056 36.6667 30.5556 36.6667H9.44441ZM26.5 10L22.5278 6.11108H9.44441V33.8889H30.5556V14.0555L26.5 10Z" fill="#323744"/>
<path fill-rule="evenodd" clip-rule="evenodd" d="M19.5 8C23.6418 8 27 11.3582 27 15.5C27 19.6418 23.6418 23 19.5 23C15.3582 23 12 19.6418 12 15.5C12 11.3582 15.3582 8 19.5 8ZM19.5 14.9153C19.8235 14.9153 20.0847 15.1777 20.0847 15.5C20.0847 15.8223 19.8235 16.0847 19.5 16.0847C19.1777 16.0847 18.9153 15.8235 18.9153 15.5C18.9153 15.1777 19.1777 14.9153 19.5 14.9153ZM19.5 13.1257C20.811 13.1257 21.8743 14.189 21.8743 15.5C21.8743 16.811 20.811 17.8743 19.5 17.8743C18.189 17.8743 17.127 16.811 17.127 15.5C17.127 14.189 18.189 13.1257 19.5 13.1257ZM13.6589 14.0974C14.0508 13.0488 14.6721 12.1138 15.4619 11.3533C16.2505 10.594 17.2075 10.0068 18.2695 9.65527L18.46 10.2314C17.4834 10.5549 16.6057 11.0933 15.8818 11.7903C15.1555 12.4897 14.5854 13.3479 14.2266 14.3086L13.6589 14.0974ZM15.5547 14.5405C15.8 13.8826 16.1907 13.2942 16.6863 12.8169C17.1819 12.3396 17.7825 11.9709 18.4502 11.7512L18.6394 12.3274C18.0583 12.5203 17.5371 12.8401 17.1062 13.2539C16.6741 13.6702 16.3347 14.1804 16.1211 14.7517L15.5547 14.5405ZM23.5088 16.3667C23.2634 17.0247 22.8728 17.613 22.3772 18.0903C21.8816 18.5676 21.281 18.9363 20.6133 19.156L20.4241 18.5798C21.0051 18.387 21.5276 18.0684 21.9573 17.6533C22.3894 17.2371 22.7288 16.7268 22.9424 16.1555L23.5088 16.3667ZM25.4045 16.8098C25.0127 17.8572 24.3914 18.7922 23.6016 19.554C22.813 20.3145 21.856 20.9004 20.7939 21.252L20.6035 20.6758C21.5801 20.3523 22.4578 19.814 23.1816 19.1169C23.908 18.4175 24.478 17.5593 24.8369 16.5986L25.4045 16.8098Z" fill="#323744"/>
<path d="M9.82 32V23.759H10.435V32H9.82ZM17.8355 32V23.759H18.4505V32H17.8355ZM11.173 32V23.759H11.788L14.125 26.6905L16.4825 23.759H17.0975V32H16.4825V26.8955L15.0065 28.7815L11.788 24.743V25.932L14.535 29.3555L14.1455 29.8475L11.788 26.916V32H11.173ZM16.4825 24.7225L14.535 27.1825L15.0065 27.777L16.4825 25.9115V24.7225ZM23.1445 30.852C22.5979 30.852 22.1469 30.7495 21.7915 30.5445C21.4499 30.3395 21.2585 30.073 21.2175 29.745L21.8325 29.663C21.8462 29.8407 21.9692 29.9842 22.2015 30.0935C22.4339 30.1892 22.7482 30.237 23.1445 30.237C24.0192 30.237 24.4565 30.0457 24.4565 29.663C24.4565 29.499 24.3677 29.3555 24.19 29.2325C24.0124 29.0958 23.6912 28.9592 23.2265 28.8225L22.181 28.515C21.5387 28.3237 20.9989 28.0367 20.5615 27.654C20.1379 27.2713 19.926 26.7588 19.926 26.1165C19.926 25.6245 20.0627 25.1872 20.336 24.8045C20.623 24.4218 21.0125 24.1212 21.5045 23.9025C21.9965 23.6702 22.5432 23.554 23.1445 23.554C24.0192 23.554 24.7504 23.7658 25.338 24.1895C25.9257 24.6132 26.2605 25.1598 26.3425 25.8295L25.7275 25.891C25.6729 25.3717 25.4064 24.9548 24.928 24.6405C24.4634 24.3262 23.8689 24.169 23.1445 24.169C22.3929 24.169 21.771 24.3535 21.279 24.7225C20.787 25.0915 20.541 25.5562 20.541 26.1165C20.541 26.6222 20.705 27.0117 21.033 27.285C21.361 27.5583 21.8257 27.7838 22.427 27.9615L23.5545 28.2895C24.5659 28.5902 25.0715 29.0412 25.0715 29.6425C25.0715 30.0252 24.8939 30.3258 24.5385 30.5445C24.1969 30.7495 23.7322 30.852 23.1445 30.852ZM23.1445 32.205C22.2425 32.205 21.4909 31.9932 20.8895 31.5695C20.3019 31.1458 19.967 30.5992 19.885 29.9295L20.5 29.8475C20.5684 30.3668 20.8417 30.7905 21.32 31.1185C21.7984 31.4328 22.4065 31.59 23.1445 31.59C23.9372 31.59 24.5795 31.4123 25.0715 31.057C25.5635 30.688 25.8095 30.1892 25.8095 29.5605C25.8095 29.0548 25.6524 28.6448 25.338 28.3305C25.0237 28.0162 24.5659 27.7838 23.9645 27.6335L22.714 27.3055C22.2494 27.1825 21.894 27.0322 21.648 26.8545C21.402 26.6632 21.279 26.4172 21.279 26.1165C21.279 25.7475 21.4499 25.4537 21.7915 25.235C22.1469 25.0163 22.5979 24.907 23.1445 24.907C23.6502 24.907 24.0739 25.0095 24.4155 25.2145C24.7572 25.4058 24.9485 25.6587 24.9895 25.973L24.395 26.055C24.3267 25.6997 23.9099 25.522 23.1445 25.522C22.7619 25.522 22.4544 25.5767 22.222 25.686C22.0034 25.7817 21.894 25.9252 21.894 26.1165C21.894 26.2395 21.9692 26.3488 22.1195 26.4445C22.2699 26.5265 22.5979 26.6427 23.1035 26.793L24.19 27.1005C24.9007 27.3055 25.4474 27.6062 25.83 28.0025C26.2264 28.3988 26.4245 28.9182 26.4245 29.5605C26.4245 30.3805 26.117 31.0297 25.502 31.508C24.9007 31.9727 24.1149 32.205 23.1445 32.205ZM29.2106 32V23.759H29.8256V32H29.2106ZM27.8576 32V23.759H28.4726V32H27.8576Z" fill="white"/>
</svg>
