<svg width="421" height="512" viewBox="0 0 421 512" fill="none" xmlns="http://www.w3.org/2000/svg">
<g clip-path="url(#clip0_0_1)">
<path fill-rule="evenodd" clip-rule="evenodd" d="M95.705 0.0140076H294.799L421 136.548V454.103C421 485.643 395.039 511.605 363.498 511.605H95.705C64.155 511.605 38.203 485.732 38.203 454.103V57.515C38.203 25.886 64.076 0.0140076 95.705 0.0140076Z" fill="#FFCC80"/>
<path d="M112.947 222.168L112.765 222.643L113.243 222.817L123.649 226.604L124.112 226.772L124.287 226.313C130.839 209.156 141.247 193.83 154.51 181.336C167.728 168.887 183.754 159.271 201.587 153.493L202.068 153.337L201.906 152.857L198.415 142.525L198.257 142.057L197.787 142.209C178.246 148.537 160.636 159.105 146.126 172.771L146.438 173.103L146.126 172.771C131.593 186.46 120.158 203.292 112.947 222.168ZM147.702 230.115L147.521 230.589L147.998 230.763L158.382 234.55L158.845 234.719L159.02 234.259C162.909 224.086 169.087 214.999 176.957 207.584C184.804 200.213 194.295 194.516 204.877 191.08L205.357 190.924L205.196 190.445L201.728 180.113L201.57 179.645L201.1 179.796C188.787 183.76 177.711 190.41 168.572 199.019C159.433 207.629 152.228 218.244 147.702 230.115ZM294.462 263.221L294.642 262.747L294.166 262.573L283.782 258.786L283.319 258.617L283.143 259.077C279.255 269.25 273.076 278.338 265.207 285.752L265.207 285.753C257.383 293.145 247.869 298.82 237.287 302.256L236.807 302.412L236.967 302.891L240.436 313.224L240.593 313.692L241.063 313.54C253.377 309.577 264.452 302.927 273.591 294.317C282.731 285.707 289.936 275.093 294.462 263.221ZM329.217 271.168L329.398 270.693L328.921 270.519L318.514 266.732L318.052 266.564L317.876 267.024C311.324 284.18 300.916 299.507 287.654 312C274.436 324.45 258.409 334.065 240.577 339.843L240.095 339.999L240.257 340.479L243.749 350.812L243.907 351.279L244.376 351.127C263.918 344.8 281.528 334.253 296.038 320.565C310.571 306.854 322.006 290.023 329.217 271.168ZM220.5 113.5C296.168 113.5 357.5 173.509 357.5 247.5C357.5 321.491 296.168 381.5 220.5 381.5C144.832 381.5 83.5 321.491 83.5 247.5C83.5 173.509 144.832 113.5 220.5 113.5ZM220.5 237.514C226.164 237.514 230.72 242.007 230.72 247.5C230.72 252.993 226.164 257.486 220.5 257.486C214.857 257.486 210.28 253.014 210.28 247.5C210.28 242.007 214.857 237.514 220.5 237.514ZM264.528 247.5C264.528 223.702 244.801 204.421 220.5 204.421C196.198 204.421 176.494 223.703 176.494 247.5C176.494 271.297 196.198 290.579 220.5 290.579C244.801 290.579 264.528 271.298 264.528 247.5Z" fill="#ACD1FF" stroke="black"/>
<path fill-rule="evenodd" clip-rule="evenodd" d="M341.028 133.408H341.009L421 188.771V136.705H366.643C357.185 136.555 348.645 135.431 341.028 133.408Z" fill="#CD4445"/>
<path fill-rule="evenodd" clip-rule="evenodd" d="M294.8 0L421 136.533V136.705H366.643C321.575 135.987 297.313 113.308 294.8 75.321V0Z" fill="#FBCFD0"/>
<path d="M0 431.901V253.404L0.028 252.143C0.696 235.697 14.361 222.437 30.964 222.437H38.202V273.026H381.177C394.039 273.026 404.55 283.536 404.55 296.397V431.901C404.55 444.731 394.007 455.274 381.177 455.274H23.373C10.541 455.274 0 444.75 0 431.901Z" fill="#CD4445"/>
<path d="M11.329 276.171V430.899C11.329 438.692 17.709 445.077 25.508 445.077H380.175C387.974 445.077 394.353 438.698 394.353 430.899V297.405C394.353 289.607 387.965 283.227 380.175 283.227H37.892C25.274 283.131 18.306 281.589 11.329 276.171Z" fill="white"/>
<path d="M119.638 401.572H92.253L97.233 319.678H131.432L141.652 361.347H142.568L152.788 319.678H186.988L191.967 401.572H164.582L163.009 361.871H162.093L152.133 401.572H132.087L121.997 361.871H121.212L119.638 401.572ZM203.431 400.132L207.1 378.512C215.137 380.52 222.364 381.524 228.787 381.524C235.207 381.524 240.381 381.262 244.312 380.738V374.187L232.52 373.138C221.863 372.177 214.546 369.623 210.573 365.474C206.597 361.325 204.611 355.188 204.611 347.063C204.611 335.882 207.034 328.197 211.883 324.003C216.732 319.809 224.963 317.713 236.581 317.713C248.199 317.713 258.683 318.805 268.029 320.989L264.754 341.953C256.63 340.643 250.122 339.988 245.23 339.988C240.338 339.988 236.19 340.207 232.781 340.643V347.063L242.216 347.982C253.658 349.116 261.564 351.846 265.932 356.17C270.301 360.495 272.484 366.5 272.484 374.187C272.484 379.691 271.742 384.341 270.256 388.141C268.772 391.941 267.002 394.825 264.949 396.79C262.896 398.755 259.993 400.262 256.236 401.311C252.481 402.358 249.182 402.992 246.343 403.21C243.505 403.429 239.726 403.538 235.01 403.538C223.653 403.538 213.127 402.403 203.431 400.132ZM287.224 401.572V319.678H313.429V401.572H287.224Z" fill="#1A1A1A"/>
</g>
<defs>
<clipPath id="clip0_0_1">
<rect width="421" height="511.605" fill="white"/>
</clipPath>
</defs>
</svg>
