<svg width="199" height="51" viewBox="0 0 199 51" fill="none" xmlns="http://www.w3.org/2000/svg">
<rect width="199" height="51" rx="10" fill="#B3EB14"/>
<path d="M5 33L8.24 17.76H14.696C15.688 17.76 16.552 17.864 17.288 18.072C18.04 18.264 18.656 18.592 19.136 19.056C19.632 19.52 20 20.128 20.24 20.88C20.496 21.632 20.624 22.552 20.624 23.64C20.624 24.808 20.472 25.952 20.168 27.072C19.88 28.192 19.392 29.192 18.704 30.072C18.016 30.952 17.112 31.664 15.992 32.208C14.888 32.736 13.52 33 11.888 33H5ZM11.576 31.32C12.104 31.32 12.568 31.104 12.968 30.672C13.384 30.224 13.736 29.664 14.024 28.992C14.328 28.304 14.576 27.552 14.768 26.736C14.976 25.904 15.136 25.104 15.248 24.336C15.376 23.568 15.464 22.88 15.512 22.272C15.576 21.664 15.608 21.232 15.608 20.976C15.608 20.48 15.504 20.096 15.296 19.824C15.104 19.536 14.76 19.392 14.264 19.392H13.112L10.544 31.32H11.576ZM30.7546 17.52C32.1306 17.52 33.2426 17.696 34.0906 18.048C34.9546 18.4 35.6346 18.944 36.1306 19.68C36.4506 20.176 36.6986 20.736 36.8746 21.36C37.0506 21.984 37.1386 22.704 37.1386 23.52C37.1386 24.224 37.0746 24.928 36.9466 25.632C36.8186 26.336 36.6346 27.016 36.3946 27.672C36.1706 28.312 35.8906 28.92 35.5546 29.496C35.2346 30.056 34.8746 30.552 34.4746 30.984C33.7226 31.8 32.8506 32.376 31.8586 32.712C30.8826 33.032 29.6746 33.192 28.2346 33.192C26.8426 33.192 25.7226 33.048 24.8746 32.76C24.0266 32.472 23.3546 32.008 22.8586 31.368C22.5066 30.92 22.2266 30.352 22.0186 29.664C21.8266 28.976 21.7306 28.112 21.7306 27.072C21.7306 25.296 22.0426 23.712 22.6666 22.32C23.3066 20.912 24.2106 19.8 25.3786 18.984C26.0826 18.488 26.8666 18.12 27.7306 17.88C28.5946 17.64 29.6026 17.52 30.7546 17.52ZM28.0426 31.512C28.4106 31.512 28.7546 31.352 29.0746 31.032C29.4106 30.696 29.7146 30.256 29.9866 29.712C30.2746 29.152 30.5306 28.52 30.7546 27.816C30.9946 27.112 31.1946 26.384 31.3546 25.632C31.5146 24.88 31.6346 24.136 31.7146 23.4C31.8106 22.648 31.8586 21.968 31.8586 21.36C31.8586 20.528 31.7706 19.96 31.5946 19.656C31.4346 19.336 31.1946 19.176 30.8746 19.176C30.5066 19.176 30.1546 19.336 29.8186 19.656C29.4826 19.976 29.1626 20.408 28.8586 20.952C28.5706 21.48 28.3066 22.096 28.0666 22.8C27.8426 23.488 27.6426 24.2 27.4666 24.936C27.3066 25.672 27.1786 26.4 27.0826 27.12C27.0026 27.84 26.9626 28.504 26.9626 29.112C26.9626 30.024 27.0586 30.656 27.2506 31.008C27.4586 31.344 27.7226 31.512 28.0426 31.512ZM50.8563 31.704C50.4563 31.896 50.0403 32.088 49.6083 32.28C49.1923 32.456 48.7443 32.616 48.2643 32.76C47.7843 32.888 47.2563 32.992 46.6803 33.072C46.1203 33.152 45.5043 33.192 44.8323 33.192C42.6883 33.192 41.0323 32.712 39.8643 31.752C38.7123 30.792 38.1363 29.192 38.1363 26.952C38.1363 25.656 38.3363 24.44 38.7363 23.304C39.1363 22.152 39.7283 21.152 40.5123 20.304C41.2963 19.44 42.2643 18.76 43.4163 18.264C44.5683 17.768 45.8883 17.52 47.3763 17.52C48.0803 17.52 48.7203 17.568 49.2963 17.664C49.8883 17.76 50.4163 17.888 50.8803 18.048C51.3603 18.192 51.7843 18.352 52.1523 18.528C52.5363 18.704 52.8803 18.872 53.1843 19.032L52.3203 23.496H48.0003C48.0163 23.336 48.0323 23.128 48.0483 22.872C48.0803 22.616 48.1043 22.36 48.1203 22.104C48.1363 21.832 48.1523 21.568 48.1683 21.312C48.1843 21.056 48.1923 20.84 48.1923 20.664C48.1923 20.536 48.1843 20.392 48.1683 20.232C48.1523 20.056 48.1123 19.888 48.0483 19.728C47.9843 19.568 47.8803 19.44 47.7363 19.344C47.6083 19.232 47.4323 19.176 47.2083 19.176C46.7923 19.176 46.4083 19.352 46.0563 19.704C45.7203 20.04 45.4163 20.496 45.1443 21.072C44.8723 21.632 44.6323 22.272 44.4243 22.992C44.2163 23.712 44.0403 24.448 43.8963 25.2C43.7683 25.936 43.6643 26.664 43.5843 27.384C43.5203 28.104 43.4883 28.736 43.4883 29.28C43.4883 29.44 43.4963 29.64 43.5123 29.88C43.5283 30.12 43.5763 30.352 43.6563 30.576C43.7363 30.8 43.8563 30.992 44.0163 31.152C44.1923 31.312 44.4243 31.392 44.7123 31.392C45.2083 31.392 45.6883 31.088 46.1523 30.48C46.6163 29.856 47.0243 28.752 47.3763 27.168H51.8163L50.8563 31.704ZM59.0564 27.552C58.9764 27.904 58.9124 28.208 58.8644 28.464C58.8164 28.72 58.7924 28.96 58.7924 29.184C58.7924 29.744 58.9844 30.192 59.3684 30.528C59.7684 30.864 60.3524 31.032 61.1204 31.032C61.6804 31.032 62.1364 30.936 62.4884 30.744C62.8564 30.552 63.1524 30.296 63.3764 29.976C63.6164 29.656 63.8004 29.288 63.9284 28.872C64.0724 28.456 64.1924 28.016 64.2884 27.552L66.3284 17.76H68.5124L66.4244 27.6C66.2644 28.368 66.0324 29.088 65.7284 29.76C65.4244 30.432 64.9844 31.024 64.4084 31.536C63.8484 32.048 63.1204 32.456 62.2244 32.76C61.3284 33.048 60.2164 33.192 58.8884 33.192C57.0484 33.192 55.6884 32.896 54.8084 32.304C53.9284 31.696 53.4884 30.768 53.4884 29.52C53.4884 28.96 53.5604 28.248 53.7044 27.384C53.8484 26.52 54.0324 25.584 54.2564 24.576L55.7204 17.76H61.1684L59.0564 27.552ZM85.3816 33H80.0536L82.2616 22.632L76.5736 33H73.3096L72.2296 22.272L69.9256 33H67.7656L71.0056 17.76H77.1256L77.8696 26.352L82.4776 17.76H88.6456L85.3816 33ZM91.2556 17.76H101.36L100.976 19.584H96.0796L95.0716 24.216H99.1756L98.7916 26.016H94.6876L93.5836 31.152H98.4796L98.1196 33H88.0156L91.2556 17.76ZM112.878 33H107.262L104.598 21.984L102.246 33H100.086L103.326 17.76H109.062L111.582 28.92L113.958 17.76H116.166L112.878 33ZM130.147 19.584H126.283L123.427 33H118.243L121.099 19.584H117.283L117.715 17.76H130.555L130.147 19.584ZM141.015 33H135.399L135.063 29.184H130.623L128.919 33H126.591L133.671 17.76H139.359L141.015 33ZM131.415 27.432H134.895L134.343 20.904L131.415 27.432ZM155.507 19.584H151.643L148.787 33H143.603L146.459 19.584H142.643L143.075 17.76H155.915L155.507 19.584ZM159.387 33H154.203L157.443 17.76H162.651L159.387 33ZM171.895 17.52C173.271 17.52 174.383 17.696 175.231 18.048C176.095 18.4 176.775 18.944 177.271 19.68C177.591 20.176 177.839 20.736 178.015 21.36C178.191 21.984 178.279 22.704 178.279 23.52C178.279 24.224 178.215 24.928 178.087 25.632C177.959 26.336 177.775 27.016 177.535 27.672C177.311 28.312 177.031 28.92 176.695 29.496C176.375 30.056 176.015 30.552 175.615 30.984C174.863 31.8 173.991 32.376 172.999 32.712C172.023 33.032 170.815 33.192 169.375 33.192C167.983 33.192 166.863 33.048 166.015 32.76C165.167 32.472 164.495 32.008 163.999 31.368C163.647 30.92 163.367 30.352 163.159 29.664C162.967 28.976 162.871 28.112 162.871 27.072C162.871 25.296 163.183 23.712 163.807 22.32C164.447 20.912 165.351 19.8 166.519 18.984C167.223 18.488 168.007 18.12 168.871 17.88C169.735 17.64 170.743 17.52 171.895 17.52ZM169.183 31.512C169.551 31.512 169.895 31.352 170.215 31.032C170.551 30.696 170.855 30.256 171.127 29.712C171.415 29.152 171.671 28.52 171.895 27.816C172.135 27.112 172.335 26.384 172.495 25.632C172.655 24.88 172.775 24.136 172.855 23.4C172.951 22.648 172.999 21.968 172.999 21.36C172.999 20.528 172.911 19.96 172.735 19.656C172.575 19.336 172.335 19.176 172.015 19.176C171.647 19.176 171.295 19.336 170.959 19.656C170.623 19.976 170.303 20.408 169.999 20.952C169.711 21.48 169.447 22.096 169.207 22.8C168.983 23.488 168.783 24.2 168.607 24.936C168.447 25.672 168.319 26.4 168.223 27.12C168.143 27.84 168.103 28.504 168.103 29.112C168.103 30.024 168.199 30.656 168.391 31.008C168.599 31.344 168.863 31.512 169.183 31.512ZM191.253 33H185.637L182.973 21.984L180.621 33H178.461L181.701 17.76H187.437L189.957 28.92L192.333 17.76H194.541L191.253 33Z" fill="black"/>
</svg>
