<svg width="40" height="40" viewBox="0 0 40 40" fill="none" xmlns="http://www.w3.org/2000/svg">
<path d="M9.44441 36.6667C8.69441 36.6667 8.04396 36.3912 7.49304 35.8403C6.94212 35.2894 6.66666 34.6389 6.66666 33.8889V6.11108C6.66666 5.36108 6.94212 4.71062 7.49304 4.1597C8.04396 3.60879 8.69441 3.33333 9.44441 3.33333H23.9167L33.3333 12.75V33.8889C33.3333 34.6389 33.0579 35.2894 32.507 35.8403C31.956 36.3912 31.3056 36.6667 30.5556 36.6667H9.44441ZM26.5 10L22.5278 6.11108H9.44441V33.8889H30.5556V14.0555L26.5 10Z" fill="#323744"/>
<path d="M11.12 32V23.96H15.9V24.56H11.72V25.28H15.9V25.88H11.72V27.02H15.26V27.62H11.72V28.34H15.26V28.94H11.72V30.08H15.9V30.68H11.72V31.4H15.9V32H11.12ZM9.8 32V23.96H10.4V32H9.8ZM22.5503 32L17.9903 23.96H18.6903L19.7903 25.88L20.8703 23.96H21.5503L20.1303 26.5L20.5503 27.24L22.3703 23.96H23.0703L20.8903 27.84L23.2503 32H22.5503ZM16.2703 32L18.6503 27.8L16.4703 23.96H17.1703L21.7303 32H21.0303L19.7503 29.76L18.4903 32H17.7903L19.4103 29.14L18.9903 28.42L16.9703 32H16.2703ZM25.3778 32V23.96H30.1578V24.56H25.9778V25.28H30.1578V25.88H25.9778V27.02H29.5178V27.62H25.9778V28.34H29.5178V28.94H25.9778V30.08H30.1578V30.68H25.9778V31.4H30.1578V32H25.3778ZM24.0578 32V23.96H24.6578V32H24.0578Z" fill="white"/>
<g clip-path="url(#clip0_0_1)">
<path d="M20.7566 9.4246C20.6407 9.30814 20.5049 9.25072 20.3476 9.25072C20.1904 9.25072 20.0527 9.30814 19.9388 9.4246L19.3155 10.049C19.1483 9.94035 18.9715 9.84539 18.7867 9.76043C18.602 9.67548 18.4131 9.6026 18.2224 9.53929V8.57876C18.2224 8.41681 18.1675 8.28047 18.0553 8.16784C17.9435 8.05521 17.8079 8 17.6466 8H16.4473C16.2939 8 16.1605 8.05521 16.0445 8.16784C15.9305 8.28047 15.8734 8.41681 15.8734 8.57876V9.45817C15.673 9.50543 15.4783 9.56477 15.2914 9.63794C15.1029 9.71097 14.924 9.79415 14.7548 9.88691L14.0647 9.20317C13.9566 9.08862 13.825 9.02929 13.6657 9.02929C13.5083 9.02929 13.3728 9.08862 13.2567 9.20317L12.4174 10.049C12.3015 10.1655 12.2444 10.3019 12.2444 10.4598C12.2444 10.6179 12.3015 10.7563 12.4174 10.8708L13.0388 11.4973C12.9307 11.6652 12.8363 11.843 12.7518 12.0285C12.6671 12.2143 12.5946 12.4043 12.5315 12.5958H11.5761C11.4147 12.5958 11.2791 12.651 11.1671 12.7636C11.0551 12.8764 11 13.0128 11 13.1749V14.3802C11 14.5341 11.0551 14.6687 11.167 14.7853C11.2789 14.8997 11.4147 14.9571 11.576 14.9571H12.4506C12.4978 15.1583 12.5567 15.354 12.6296 15.5417C12.7026 15.7315 12.7851 15.9153 12.8773 16.093L12.1971 16.7746C12.083 16.8834 12.0241 17.0158 12.0241 17.176C12.0241 17.334 12.083 17.4705 12.1971 17.5871L13.0386 18.4426C13.1545 18.5513 13.2901 18.6049 13.4476 18.6049C13.6046 18.6049 13.7422 18.5514 13.8564 18.4426L14.4796 17.8064C14.6466 17.9149 14.8237 18.0098 15.0084 18.095C15.1933 18.1797 15.3819 18.253 15.5727 18.3161V19.2765C15.5727 19.4385 15.6277 19.5747 15.7396 19.6872C15.8517 19.8001 15.9875 19.8554 16.1486 19.8554H17.3478C17.5011 19.8554 17.6347 19.8001 17.7507 19.6872C17.8646 19.5747 17.9217 19.4385 17.9217 19.2765V18.3971C18.1222 18.3499 18.3167 18.2905 18.5035 18.2172C18.6923 18.1442 18.8753 18.061 19.052 17.9682L19.7302 18.6521C19.8384 18.7667 19.9719 18.826 20.1334 18.826C20.2963 18.826 20.4301 18.7668 20.5385 18.6521L21.3897 17.8064C21.4978 17.6897 21.5511 17.5533 21.5511 17.3954C21.5511 17.2374 21.498 17.099 21.3897 16.9844L20.7567 16.358C20.8648 16.19 20.9592 16.0123 21.0438 15.8266C21.1281 15.641 21.2009 15.451 21.2639 15.2595H22.2194C22.3805 15.2595 22.516 15.2038 22.6279 15.0915C22.7401 14.9787 22.7952 14.8425 22.7952 14.6804V13.4752C22.7952 13.3211 22.7401 13.1869 22.6279 13.07C22.516 12.9555 22.3805 12.8982 22.2194 12.8982H21.3444C21.2973 12.7046 21.2382 12.511 21.1654 12.3194C21.0928 12.1257 21.01 11.944 20.9177 11.7738L21.5981 11.0805C21.7121 10.9718 21.7711 10.8393 21.7711 10.6794C21.7711 10.5212 21.7123 10.385 21.5981 10.2684L20.7566 9.4246ZM27.3942 15.8988C27.3201 15.8465 27.2413 15.8282 27.1559 15.8434C27.0705 15.8583 27.0011 15.9024 26.9507 15.9765L26.6712 16.3743C26.5704 16.3313 26.4658 16.2969 26.3571 16.2682C26.2492 16.2396 26.1397 16.2177 26.0303 16.2018L25.9401 15.6809C25.9247 15.5931 25.8822 15.5244 25.8106 15.4739C25.7394 15.4234 25.6606 15.4063 25.5731 15.4217L24.9226 15.5357C24.8397 15.5503 24.7725 15.5931 24.72 15.6651C24.6688 15.7368 24.6504 15.8163 24.666 15.9044L24.7486 16.3811C24.6441 16.4257 24.5442 16.4765 24.4502 16.5339C24.3544 16.5916 24.2652 16.6535 24.1824 16.72L23.7437 16.4148C23.674 16.363 23.5974 16.3436 23.5108 16.3584C23.4254 16.3736 23.3576 16.4183 23.3054 16.4915L22.9298 17.0302C22.878 17.1044 22.8597 17.1839 22.8746 17.2692C22.8896 17.3553 22.9335 17.4248 23.0072 17.4759L23.4031 17.7567C23.3604 17.8578 23.3259 17.9631 23.2975 18.0723C23.2689 18.181 23.2473 18.2908 23.2313 18.4008L22.713 18.4915C22.6257 18.5068 22.5573 18.5498 22.5071 18.6216C22.4567 18.6932 22.44 18.7726 22.4552 18.8603L22.5685 19.5142C22.583 19.5975 22.6253 19.6652 22.6974 19.7178C22.7687 19.7693 22.8478 19.7876 22.9353 19.7721L23.4097 19.6891C23.4542 19.794 23.5046 19.8943 23.5618 19.9893C23.6192 20.0853 23.6812 20.1768 23.7481 20.2644L23.4433 20.6991C23.3916 20.769 23.3722 20.8462 23.3872 20.9332C23.4021 21.019 23.4466 21.0873 23.5196 21.1396L24.0564 21.5234C24.1295 21.5713 24.2082 21.5876 24.2935 21.5726C24.3789 21.5577 24.4486 21.5153 24.5 21.4457L24.7782 21.0414C24.879 21.0845 24.9837 21.1191 25.0922 21.1475C25.2003 21.1761 25.3096 21.198 25.4189 21.2138L25.5094 21.735C25.5247 21.8229 25.5674 21.8915 25.6388 21.9417C25.71 21.9923 25.7889 22.0094 25.8762 21.9941L26.5265 21.88C26.6098 21.8653 26.6771 21.8227 26.7295 21.7506C26.7806 21.6787 26.7989 21.5997 26.7834 21.5115L26.7006 21.0343C26.8051 20.9897 26.9051 20.9392 26.9995 20.8816C27.0948 20.8238 27.1861 20.7618 27.2734 20.6947L27.7057 21.001C27.7752 21.0529 27.8533 21.0722 27.9406 21.0567C28.0291 21.0414 28.096 20.9965 28.1439 20.924L28.5261 20.3844C28.5736 20.3108 28.5898 20.2319 28.5748 20.1462C28.56 20.0604 28.5181 19.9903 28.4488 19.9386L28.0462 19.659C28.0893 19.5577 28.1236 19.4525 28.152 19.3434C28.1804 19.2347 28.2021 19.1249 28.2182 19.0148L28.7363 18.9241C28.8238 18.9087 28.892 18.8661 28.9421 18.7941C28.9925 18.7222 29.0094 18.6433 28.9941 18.5554L28.8806 17.9015C28.8661 17.8181 28.8236 17.7506 28.7519 17.6978C28.6805 17.6461 28.6014 17.6281 28.514 17.6435L28.0395 17.7266C27.9957 17.6259 27.9455 17.5267 27.8879 17.4297C27.83 17.3315 27.7684 17.2408 27.7023 17.1573L28.0061 16.7163C28.0578 16.6464 28.077 16.5694 28.0618 16.4822C28.047 16.3964 28.0024 16.3284 27.9293 16.276L27.3942 15.8988ZM25.5254 17.5595C25.6823 17.5318 25.8356 17.5357 25.9864 17.5706C26.1365 17.6068 26.2725 17.6673 26.3932 17.7518C26.514 17.8375 26.6163 17.9456 26.7009 18.0754C26.7849 18.2063 26.8401 18.35 26.8678 18.5077C26.8952 18.6655 26.8912 18.8197 26.8566 18.9715C26.8206 19.1221 26.7607 19.2584 26.676 19.3802C26.5908 19.5014 26.4835 19.6043 26.3543 19.6894C26.2241 19.7737 26.0812 19.8294 25.9241 19.8571C25.7674 19.8844 25.614 19.8805 25.463 19.8457C25.3128 19.8095 25.1773 19.7493 25.0562 19.6643C24.9358 19.5786 24.8333 19.4709 24.7486 19.341C24.6648 19.2101 24.6091 19.0663 24.5819 18.9086C24.5543 18.7511 24.5582 18.5969 24.5929 18.4451C24.6289 18.2942 24.6891 18.1579 24.7732 18.0361C24.8586 17.9152 24.966 17.8122 25.0952 17.7271C25.2257 17.6427 25.3687 17.5871 25.5254 17.5595ZM16.8978 11.5665C17.2202 11.5665 17.5247 11.6279 17.8136 11.7503C18.1008 11.8748 18.3506 12.0427 18.5628 12.2539C18.773 12.4673 18.94 12.7186 19.064 13.0067C19.186 13.2972 19.2468 13.6036 19.2468 13.9275C19.2468 14.2516 19.186 14.5579 19.064 14.8483C18.94 15.1367 18.773 15.388 18.5628 15.6014C18.3506 15.8128 18.1008 15.9805 17.8136 16.105C17.5247 16.2277 17.2202 16.2888 16.8978 16.2888C16.5753 16.2888 16.2705 16.2277 15.9815 16.105C15.6947 15.9805 15.4448 15.8128 15.2327 15.6014C15.0222 15.388 14.8552 15.1369 14.7313 14.8483C14.6095 14.5579 14.5484 14.2516 14.5484 13.9275C14.5484 13.6036 14.6095 13.2972 14.7313 13.0067C14.8552 12.7184 15.0222 12.4673 15.2327 12.2539C15.4448 12.0427 15.6947 11.8747 15.9815 11.7503C16.2704 11.6279 16.5753 11.5665 16.8978 11.5665Z" fill="#323744"/>
</g>
<defs>
<clipPath id="clip0_0_1">
<rect width="18" height="14" fill="white" transform="translate(11 8)"/>
</clipPath>
</defs>
</svg>
