<svg width="421" height="512" viewBox="0 0 421 512" fill="none" xmlns="http://www.w3.org/2000/svg">
<g clip-path="url(#clip0_0_1)">
<path fill-rule="evenodd" clip-rule="evenodd" d="M95.705 0.0140076H294.799L421 136.548V454.102C421 485.643 395.039 511.604 363.499 511.604H95.705C64.155 511.604 38.203 485.731 38.203 454.102V57.515C38.203 25.886 64.076 0.0140076 95.705 0.0140076Z" fill="#FFCC80"/>
<path fill-rule="evenodd" clip-rule="evenodd" d="M341.029 133.407H341.009L421 188.771V136.704H366.643C357.185 136.554 348.646 135.431 341.029 133.407Z" fill="#CD4445"/>
<path fill-rule="evenodd" clip-rule="evenodd" d="M294.8 0L421 136.533V136.704H366.643C321.575 135.987 297.314 113.308 294.8 75.321V0Z" fill="#FBCFD0"/>
<path d="M0 431.9V253.403L0.028 252.142C0.696 235.697 14.361 222.437 30.964 222.437H38.203V273.026H381.177C394.039 273.026 404.55 283.535 404.55 296.397V431.9C404.55 444.73 394.007 455.273 381.177 455.273H23.373C10.541 455.273 0 444.749 0 431.9Z" fill="#CD4445"/>
<path d="M11.329 276.171V430.898C11.329 438.691 17.708 445.077 25.508 445.077H380.175C387.974 445.077 394.353 438.697 394.353 430.898V297.405C394.353 289.606 387.965 283.226 380.175 283.226H37.892C25.274 283.13 18.306 281.589 11.329 276.171Z" fill="white"/>
<path d="M149.646 370.648H123.438V380.607H155.542V401.572H97.233V319.678H154.886L151.611 340.643H123.438V351.651H149.646V370.648ZM192.819 319.678L201.86 341.561H203.17L212.21 319.678H240.644L222.431 359.248L240.644 401.572H211.556L201.729 377.986H200.549L190.854 401.572H163.075L180.895 360.036L163.075 319.678H192.819ZM302.556 370.648H276.348V380.607H308.452V401.572H250.143V319.678H307.797L304.522 340.643H276.348V351.651H302.556V370.648Z" fill="#1A1A1A"/>
<g clip-path="url(#clip1_0_1)">
<mask id="path-7-inside-1_0_1" fill="white">
<path d="M211.516 128.857C212.662 127.643 214.004 127.044 215.56 127.044C217.115 127.044 218.476 127.643 219.603 128.857L225.767 135.369C227.42 134.236 229.168 133.245 230.997 132.359C232.823 131.473 234.69 130.713 236.577 130.053V120.036C236.577 118.347 237.12 116.925 238.229 115.75C239.335 114.576 240.676 114 242.271 114H254.131C255.647 114 256.967 114.576 258.114 115.75C259.241 116.925 259.806 118.347 259.806 120.036V129.207C261.788 129.7 263.713 130.319 265.562 131.082C267.426 131.844 269.195 132.711 270.868 133.678L277.692 126.548C278.761 125.353 280.064 124.734 281.638 124.734C283.196 124.734 284.536 125.353 285.683 126.548L293.983 135.369C295.129 136.583 295.694 138.007 295.694 139.653C295.694 141.302 295.129 142.745 293.983 143.94L287.838 150.473C288.907 152.224 289.84 154.078 290.676 156.013C291.513 157.951 292.23 159.932 292.855 161.929H302.303C303.899 161.929 305.24 162.505 306.347 163.68C307.455 164.856 308 166.278 308 167.968V180.539C308 182.144 307.455 183.547 306.349 184.763C305.242 185.956 303.899 186.555 302.304 186.555H293.654C293.188 188.654 292.606 190.694 291.884 192.652C291.163 194.631 290.347 196.548 289.435 198.401L296.162 205.51C297.29 206.645 297.873 208.025 297.873 209.696C297.873 211.343 297.29 212.767 296.162 213.983L287.84 222.905C286.694 224.038 285.353 224.597 283.795 224.597C282.242 224.597 280.882 224.04 279.752 222.905L273.59 216.271C271.938 217.402 270.187 218.391 268.36 219.28C266.532 220.163 264.666 220.928 262.78 221.586V231.602C262.78 233.291 262.236 234.711 261.129 235.884C260.021 237.062 258.678 237.64 257.084 237.64H245.226C243.709 237.64 242.388 237.062 241.241 235.884C240.116 234.711 239.551 233.291 239.551 231.602V222.431C237.567 221.938 235.644 221.319 233.797 220.554C231.929 219.793 230.12 218.925 228.373 217.958L221.666 225.09C220.596 226.285 219.276 226.904 217.678 226.904C216.067 226.904 214.745 226.286 213.673 225.09L205.255 216.271C204.186 215.053 203.658 213.631 203.658 211.984C203.658 210.336 204.184 208.893 205.255 207.698L211.514 201.165C210.445 199.413 209.512 197.56 208.675 195.623C207.842 193.687 207.122 191.706 206.499 189.709H197.05C195.456 189.709 194.117 189.128 193.01 187.957C191.9 186.781 191.355 185.36 191.355 183.67V171.101C191.355 169.493 191.9 168.094 193.01 166.875C194.117 165.68 195.456 165.083 197.05 165.083H205.702C206.169 163.064 206.753 161.045 207.473 159.047C208.191 157.027 209.01 155.132 209.922 153.357L203.193 146.126C202.066 144.993 201.483 143.611 201.483 141.944C201.483 140.293 202.065 138.873 203.193 137.657L211.516 128.857ZM145.875 196.376C146.608 195.831 147.387 195.64 148.232 195.798C149.077 195.953 149.763 196.414 150.261 197.186L153.025 201.335C154.022 200.887 155.056 200.528 156.131 200.228C157.199 199.93 158.281 199.701 159.363 199.536L160.255 194.103C160.408 193.188 160.828 192.471 161.536 191.944C162.24 191.418 163.019 191.24 163.884 191.401L170.317 192.589C171.137 192.741 171.802 193.188 172.321 193.939C172.828 194.687 173.009 195.516 172.855 196.434L172.038 201.406C173.071 201.871 174.059 202.401 174.989 203C175.937 203.602 176.819 204.246 177.637 204.94L181.976 201.757C182.665 201.217 183.423 201.014 184.279 201.169C185.124 201.328 185.794 201.794 186.31 202.557L190.024 208.176C190.537 208.95 190.718 209.779 190.57 210.668C190.423 211.566 189.988 212.291 189.259 212.823L185.344 215.752C185.767 216.806 186.107 217.904 186.388 219.044C186.671 220.177 186.885 221.322 187.043 222.469L192.168 223.415C193.032 223.575 193.708 224.023 194.205 224.772C194.703 225.519 194.868 226.346 194.718 227.261L193.598 234.08C193.455 234.949 193.036 235.656 192.323 236.204C191.618 236.741 190.835 236.932 189.971 236.77L185.279 235.904C184.838 236.999 184.34 238.045 183.775 239.035C183.207 240.036 182.594 240.991 181.932 241.905L184.947 246.438C185.458 247.167 185.649 247.972 185.502 248.879C185.354 249.774 184.914 250.487 184.192 251.032L178.883 255.035C178.16 255.534 177.382 255.704 176.539 255.548C175.695 255.392 175.005 254.95 174.497 254.224L171.746 250.008C170.749 250.457 169.713 250.818 168.64 251.115C167.571 251.413 166.49 251.641 165.41 251.806L164.514 257.241C164.364 258.158 163.941 258.873 163.235 259.397C162.531 259.925 161.75 260.103 160.887 259.944L154.457 258.754C153.632 258.6 152.967 258.156 152.449 257.404C151.943 256.655 151.762 255.83 151.916 254.91L152.734 249.934C151.701 249.469 150.712 248.942 149.779 248.342C148.836 247.738 147.934 247.092 147.07 246.392L142.795 249.587C142.107 250.127 141.335 250.329 140.472 250.167C139.597 250.008 138.935 249.539 138.461 248.784L134.682 243.156C134.212 242.389 134.052 241.566 134.201 240.672C134.347 239.777 134.761 239.046 135.447 238.507L139.427 235.591C139.001 234.535 138.663 233.437 138.381 232.299C138.1 231.166 137.886 230.021 137.727 228.872L132.603 227.926C131.738 227.767 131.063 227.321 130.568 226.57C130.069 225.821 129.903 224.998 130.053 224.081L131.176 217.262C131.32 216.392 131.74 215.689 132.449 215.137C133.155 214.598 133.937 214.411 134.802 214.571L139.494 215.438C139.927 214.388 140.424 213.353 140.993 212.341C141.566 211.317 142.175 210.371 142.829 209.501L139.824 204.902C139.313 204.173 139.123 203.37 139.274 202.461C139.42 201.566 139.861 200.856 140.583 200.31L145.875 196.376ZM164.356 213.696C162.805 213.407 161.288 213.447 159.798 213.811C158.313 214.188 156.969 214.82 155.775 215.701C154.58 216.595 153.569 217.722 152.731 219.076C151.901 220.441 151.355 221.939 151.081 223.584C150.811 225.23 150.85 226.838 151.191 228.421C151.548 229.991 152.14 231.413 152.978 232.683C153.821 233.947 154.881 235.02 156.159 235.908C157.447 236.787 158.86 237.368 160.413 237.656C161.963 237.942 163.48 237.901 164.974 237.538C166.458 237.16 167.798 236.532 168.996 235.646C170.187 234.753 171.201 233.629 172.038 232.275C172.867 230.91 173.417 229.409 173.687 227.765C173.959 226.122 173.922 224.514 173.578 222.931C173.222 221.358 172.626 219.936 171.795 218.666C170.95 217.405 169.889 216.33 168.611 215.443C167.32 214.563 165.906 213.983 164.356 213.696ZM249.676 151.195C246.488 151.195 243.476 151.835 240.62 153.111C237.779 154.41 235.309 156.161 233.21 158.364C231.131 160.589 229.48 163.21 228.254 166.215C227.048 169.244 226.446 172.439 226.446 175.817C226.446 179.197 227.048 182.392 228.254 185.42C229.48 188.428 231.131 191.049 233.21 193.274C235.309 195.479 237.779 197.228 240.62 198.527C243.476 199.806 246.488 200.443 249.676 200.443C252.865 200.443 255.879 199.806 258.737 198.527C261.574 197.228 264.045 195.479 266.143 193.274C268.224 191.049 269.876 188.43 271.101 185.42C272.305 182.392 272.909 179.197 272.909 175.817C272.909 172.439 272.305 169.244 271.101 166.215C269.876 163.208 268.224 160.589 266.143 158.364C264.045 156.161 261.574 154.409 258.737 153.111C255.881 151.835 252.865 151.195 249.676 151.195Z"/>
</mask>
<path d="M211.516 128.857C212.662 127.643 214.004 127.044 215.56 127.044C217.115 127.044 218.476 127.643 219.603 128.857L225.767 135.369C227.42 134.236 229.168 133.245 230.997 132.359C232.823 131.473 234.69 130.713 236.577 130.053V120.036C236.577 118.347 237.12 116.925 238.229 115.75C239.335 114.576 240.676 114 242.271 114H254.131C255.647 114 256.967 114.576 258.114 115.75C259.241 116.925 259.806 118.347 259.806 120.036V129.207C261.788 129.7 263.713 130.319 265.562 131.082C267.426 131.844 269.195 132.711 270.868 133.678L277.692 126.548C278.761 125.353 280.064 124.734 281.638 124.734C283.196 124.734 284.536 125.353 285.683 126.548L293.983 135.369C295.129 136.583 295.694 138.007 295.694 139.653C295.694 141.302 295.129 142.745 293.983 143.94L287.838 150.473C288.907 152.224 289.84 154.078 290.676 156.013C291.513 157.951 292.23 159.932 292.855 161.929H302.303C303.899 161.929 305.24 162.505 306.347 163.68C307.455 164.856 308 166.278 308 167.968V180.539C308 182.144 307.455 183.547 306.349 184.763C305.242 185.956 303.899 186.555 302.304 186.555H293.654C293.188 188.654 292.606 190.694 291.884 192.652C291.163 194.631 290.347 196.548 289.435 198.401L296.162 205.51C297.29 206.645 297.873 208.025 297.873 209.696C297.873 211.343 297.29 212.767 296.162 213.983L287.84 222.905C286.694 224.038 285.353 224.597 283.795 224.597C282.242 224.597 280.882 224.04 279.752 222.905L273.59 216.271C271.938 217.402 270.187 218.391 268.36 219.28C266.532 220.163 264.666 220.928 262.78 221.586V231.602C262.78 233.291 262.236 234.711 261.129 235.884C260.021 237.062 258.678 237.64 257.084 237.64H245.226C243.709 237.64 242.388 237.062 241.241 235.884C240.116 234.711 239.551 233.291 239.551 231.602V222.431C237.567 221.938 235.644 221.319 233.797 220.554C231.929 219.793 230.12 218.925 228.373 217.958L221.666 225.09C220.596 226.285 219.276 226.904 217.678 226.904C216.067 226.904 214.745 226.286 213.673 225.09L205.255 216.271C204.186 215.053 203.658 213.631 203.658 211.984C203.658 210.336 204.184 208.893 205.255 207.698L211.514 201.165C210.445 199.413 209.512 197.56 208.675 195.623C207.842 193.687 207.122 191.706 206.499 189.709H197.05C195.456 189.709 194.117 189.128 193.01 187.957C191.9 186.781 191.355 185.36 191.355 183.67V171.101C191.355 169.493 191.9 168.094 193.01 166.875C194.117 165.68 195.456 165.083 197.05 165.083H205.702C206.169 163.064 206.753 161.045 207.473 159.047C208.191 157.027 209.01 155.132 209.922 153.357L203.193 146.126C202.066 144.993 201.483 143.611 201.483 141.944C201.483 140.293 202.065 138.873 203.193 137.657L211.516 128.857ZM145.875 196.376C146.608 195.831 147.387 195.64 148.232 195.798C149.077 195.953 149.763 196.414 150.261 197.186L153.025 201.335C154.022 200.887 155.056 200.528 156.131 200.228C157.199 199.93 158.281 199.701 159.363 199.536L160.255 194.103C160.408 193.188 160.828 192.471 161.536 191.944C162.24 191.418 163.019 191.24 163.884 191.401L170.317 192.589C171.137 192.741 171.802 193.188 172.321 193.939C172.828 194.687 173.009 195.516 172.855 196.434L172.038 201.406C173.071 201.871 174.059 202.401 174.989 203C175.937 203.602 176.819 204.246 177.637 204.94L181.976 201.757C182.665 201.217 183.423 201.014 184.279 201.169C185.124 201.328 185.794 201.794 186.31 202.557L190.024 208.176C190.537 208.95 190.718 209.779 190.57 210.668C190.423 211.566 189.988 212.291 189.259 212.823L185.344 215.752C185.767 216.806 186.107 217.904 186.388 219.044C186.671 220.177 186.885 221.322 187.043 222.469L192.168 223.415C193.032 223.575 193.708 224.023 194.205 224.772C194.703 225.519 194.868 226.346 194.718 227.261L193.598 234.08C193.455 234.949 193.036 235.656 192.323 236.204C191.618 236.741 190.835 236.932 189.971 236.77L185.279 235.904C184.838 236.999 184.34 238.045 183.775 239.035C183.207 240.036 182.594 240.991 181.932 241.905L184.947 246.438C185.458 247.167 185.649 247.972 185.502 248.879C185.354 249.774 184.914 250.487 184.192 251.032L178.883 255.035C178.16 255.534 177.382 255.704 176.539 255.548C175.695 255.392 175.005 254.95 174.497 254.224L171.746 250.008C170.749 250.457 169.713 250.818 168.64 251.115C167.571 251.413 166.49 251.641 165.41 251.806L164.514 257.241C164.364 258.158 163.941 258.873 163.235 259.397C162.531 259.925 161.75 260.103 160.887 259.944L154.457 258.754C153.632 258.6 152.967 258.156 152.449 257.404C151.943 256.655 151.762 255.83 151.916 254.91L152.734 249.934C151.701 249.469 150.712 248.942 149.779 248.342C148.836 247.738 147.934 247.092 147.07 246.392L142.795 249.587C142.107 250.127 141.335 250.329 140.472 250.167C139.597 250.008 138.935 249.539 138.461 248.784L134.682 243.156C134.212 242.389 134.052 241.566 134.201 240.672C134.347 239.777 134.761 239.046 135.447 238.507L139.427 235.591C139.001 234.535 138.663 233.437 138.381 232.299C138.1 231.166 137.886 230.021 137.727 228.872L132.603 227.926C131.738 227.767 131.063 227.321 130.568 226.57C130.069 225.821 129.903 224.998 130.053 224.081L131.176 217.262C131.32 216.392 131.74 215.689 132.449 215.137C133.155 214.598 133.937 214.411 134.802 214.571L139.494 215.438C139.927 214.388 140.424 213.353 140.993 212.341C141.566 211.317 142.175 210.371 142.829 209.501L139.824 204.902C139.313 204.173 139.123 203.37 139.274 202.461C139.42 201.566 139.861 200.856 140.583 200.31L145.875 196.376ZM164.356 213.696C162.805 213.407 161.288 213.447 159.798 213.811C158.313 214.188 156.969 214.82 155.775 215.701C154.58 216.595 153.569 217.722 152.731 219.076C151.901 220.441 151.355 221.939 151.081 223.584C150.811 225.23 150.85 226.838 151.191 228.421C151.548 229.991 152.14 231.413 152.978 232.683C153.821 233.947 154.881 235.02 156.159 235.908C157.447 236.787 158.86 237.368 160.413 237.656C161.963 237.942 163.48 237.901 164.974 237.538C166.458 237.16 167.798 236.532 168.996 235.646C170.187 234.753 171.201 233.629 172.038 232.275C172.867 230.91 173.417 229.409 173.687 227.765C173.959 226.122 173.922 224.514 173.578 222.931C173.222 221.358 172.626 219.936 171.795 218.666C170.95 217.405 169.889 216.33 168.611 215.443C167.32 214.563 165.906 213.983 164.356 213.696ZM249.676 151.195C246.488 151.195 243.476 151.835 240.62 153.111C237.779 154.41 235.309 156.161 233.21 158.364C231.131 160.589 229.48 163.21 228.254 166.215C227.048 169.244 226.446 172.439 226.446 175.817C226.446 179.197 227.048 182.392 228.254 185.42C229.48 188.428 231.131 191.049 233.21 193.274C235.309 195.479 237.779 197.228 240.62 198.527C243.476 199.806 246.488 200.443 249.676 200.443C252.865 200.443 255.879 199.806 258.737 198.527C261.574 197.228 264.045 195.479 266.143 193.274C268.224 191.049 269.876 188.43 271.101 185.42C272.305 182.392 272.909 179.197 272.909 175.817C272.909 172.439 272.305 169.244 271.101 166.215C269.876 163.208 268.224 160.589 266.143 158.364C264.045 156.161 261.574 154.409 258.737 153.111C255.881 151.835 252.865 151.195 249.676 151.195Z" fill="#FF7F62" stroke="black" stroke-width="4" mask="url(#path-7-inside-1_0_1)"/>
</g>
</g>
<defs>
<clipPath id="clip0_0_1">
<rect width="421" height="511.604" fill="white"/>
</clipPath>
<clipPath id="clip1_0_1">
<rect width="178" height="146" fill="white" transform="matrix(-1 0 0 1 308 114)"/>
</clipPath>
</defs>
</svg>
