<svg width="123" height="96" viewBox="0 0 123 96" fill="none" xmlns="http://www.w3.org/2000/svg">
<rect width="123" height="96" fill="#1E1E1E"/>
<g clip-path="url(#clip0_0_1)">
<path fill-rule="evenodd" clip-rule="evenodd" d="M8.94 0H113.94C118.86 0 122.88 4.02 122.88 8.94C122.88 13.86 118.86 17.88 113.94 17.88H8.94C4.02 17.88 0 13.86 0 8.94C0 4.02 4.02 0 8.94 0ZM8.94 78.07H113.94C118.86 78.07 122.88 82.09 122.88 87.01C122.88 91.93 118.86 95.95 113.94 95.95H8.94C4.02 95.95 0 91.93 0 87.01C0 82.09 4.02 78.07 8.94 78.07ZM8.94 39.03H113.94C118.86 39.03 122.88 43.05 122.88 47.97C122.88 52.89 118.86 56.91 113.94 56.91H8.94C4.02 56.91 0 52.89 0 47.97C0 43.06 4.02 39.03 8.94 39.03Z" fill="#494E57"/>
</g>
<defs>
<clipPath id="clip0_0_1">
<rect width="122.88" height="95.95" fill="white"/>
</clipPath>
</defs>
</svg>
