<svg width="120" height="120" viewBox="0 0 120 120" fill="none" xmlns="http://www.w3.org/2000/svg">
<g clip-path="url(#clip0_1_7)">
<g clip-path="url(#clip1_1_7)">
<path d="M68.5833 0L115.615 15.1339C115.615 15.1339 117.8 78.8351 115.348 104.142C96.2399 97.8709 63.1616 83.4306 63.1616 83.4306C63.1616 83.4306 12.5032 110.385 8.22468 106.431C3.94695 102.478 5.40412 10.3072 5.40412 10.3072L68.584 0.000578051L68.5833 0Z" fill="#30EEFB"/>
<path d="M114.68 103.384C114.68 103.373 114.675 103.373 114.68 103.384Z" fill="#65F3FA"/>
<path d="M67.9058 20.5457C67.2473 42.107 66.1446 63.6347 64.9725 85.1717C64.8838 86.8043 65.4793 90.9522 67.6611 90.9522C69.9631 90.9522 70.2603 86.8088 70.3496 85.1717C71.5216 63.6365 72.6243 42.1093 73.2828 20.5457C73.3327 18.9103 72.8023 14.7652 70.5943 14.7652C68.3144 14.7669 67.9542 18.9092 67.9058 20.5474V20.5457Z" fill="#3EC3F7"/>
<path opacity="0.65" d="M68.9113 0.104996C76.8219 3.01866 116.758 11.6706 116.55 15.1106C116.403 17.5154 71.5213 26.2063 68.451 25.1583C49.5997 18.7234 24.06 11.3961 3.99677 11.4111L68.908 0.104996H68.9113Z" fill="#D8FCFD"/>
<path d="M64.3247 82.5745C64.3247 82.5745 115.351 100.281 115.351 104.145C115.351 108.008 67.952 119.489 67.952 119.489C67.952 119.489 21.2376 111.368 8.99847 105.639C-3.23584 99.9166 64.3225 82.5751 64.3225 82.5751L64.3247 82.5745Z" fill="#3EC3F7"/>
<g clip-path="url(#clip2_1_7)">
<path d="M60.9397 7.87268C56.5213 7.89306 52.3017 8.26728 48.5889 8.91968C37.6516 10.8385 35.6658 14.8548 35.6658 22.2616V32.0436H61.5121V35.3043H35.6658H25.9659C18.4543 35.3043 11.8768 39.7879 9.81952 48.3171C7.44641 58.0936 7.34115 64.1943 9.81952 74.4026C11.6568 82.0012 16.0444 87.4154 23.556 87.4154H32.4425V75.6889C32.4425 67.2172 39.8238 59.7445 48.5889 59.7445H74.4051C81.5914 59.7445 87.3282 53.8686 87.3282 46.7017V22.2616C87.3282 15.3058 81.4192 10.0806 74.4051 8.91968C69.9651 8.18572 65.3582 7.85229 60.9397 7.87268ZM46.9623 15.7402C49.632 15.7402 51.8122 17.9406 51.8122 20.6462C51.8122 23.3422 49.632 25.5222 46.9623 25.5222C44.2829 25.5222 42.1123 23.3422 42.1123 20.6462C42.1123 17.9406 44.2829 15.7402 46.9623 15.7402Z" fill="url(#paint0_linear_1_7)"/>
<path d="M90.5515 35.3043V46.7017C90.5515 55.538 83.0076 62.9752 74.4051 62.9752H48.5889C41.5175 62.9752 35.6658 68.9854 35.6658 76.018V100.458C35.6658 107.414 41.7567 111.505 48.5889 113.501C56.7704 115.89 64.616 116.322 74.4051 113.501C80.912 111.63 87.3282 107.865 87.3282 100.458V90.6761H61.5121V87.4154H87.3282H100.251C107.763 87.4154 110.562 82.2123 113.175 74.4026C115.873 66.3626 115.758 58.6309 113.175 48.3171C111.318 40.8912 107.773 35.3043 100.251 35.3043H90.5515ZM76.0318 97.1975C78.7111 97.1975 80.8817 99.3776 80.8817 102.074C80.8817 104.779 78.7111 106.98 76.0318 106.98C73.362 106.98 71.1818 104.779 71.1818 102.074C71.1818 99.3776 73.362 97.1975 76.0318 97.1975Z" fill="url(#paint1_linear_1_7)"/>
<g clip-path="url(#clip3_1_7)">
<path fill-rule="evenodd" clip-rule="evenodd" d="M71.5484 81.0325C72.2117 80.9431 73.0666 80.976 74.1131 81.1345C75.3596 81.3352 76.1964 81.4372 76.6182 81.4372C76.8808 81.4372 77.8262 81.4701 79.4538 81.5359C80.6211 81.5822 81.5582 81.5493 82.2622 81.4372C82.5044 81.3908 83.3178 81.223 84.7062 80.9305C85.6728 80.7062 86.5065 80.6042 87.2113 80.6269C87.8534 80.6497 88.7 80.8276 89.7458 81.1674C90.8542 81.5493 91.6676 81.7635 92.1921 81.8065C93.0975 81.9212 94.0143 81.8757 94.9394 81.6708C95.1189 81.6514 95.9859 81.4237 97.5335 80.9996C98.3582 80.7947 99.2425 80.874 100.189 81.2332C101.217 81.6379 101.869 82.234 102.152 83.0215V82.6168C102.895 82.5502 103.731 82.5932 104.657 82.7517C105.824 82.933 106.567 83.2458 106.888 83.6969C107.351 84.3259 107.413 84.9777 107.071 85.653C106.809 86.2357 106.355 86.6876 105.712 87.0004C105.311 87.2045 104.637 87.3824 103.691 87.5401C102.765 87.6758 102.102 87.8562 101.698 88.0805C101.135 88.4161 100.592 88.6438 100.068 88.7559C99.9262 88.7989 99.3338 88.9009 98.288 89.0586C98.3084 89.5755 98.2375 90.3301 98.0753 91.3183C97.8957 92.4448 97.6927 93.1294 97.4739 93.3765C97.1291 93.7584 96.5073 93.927 95.5996 93.8807C94.7771 93.8604 94.1433 93.6893 93.7011 93.3765C93.4182 93.1724 92.8847 92.5206 92.1008 91.4203C91.559 90.6328 90.8716 90.218 90.0499 90.1716C89.3836 90.126 88.6404 90.3301 87.8157 90.7778C86.9902 90.3301 86.035 90.1817 84.9477 90.3402C83.9011 90.4979 82.976 90.9034 82.1709 91.5552C81.8291 91.9372 81.5288 92.1842 81.2662 92.2964C80.9833 92.4085 80.6709 92.4776 80.3291 92.5004C79.9073 92.5206 79.5655 92.5434 79.3029 92.5662C77.956 92.7011 77.0189 93.5906 76.4975 95.2306C76.3556 95.7019 76.1142 97.1876 75.7724 99.6842C74.6255 99.9076 73.9298 99.6378 73.6883 98.8739C73.588 97.7508 73.4672 96.8385 73.3284 96.1429C73.2258 95.5105 73.0545 95.0763 72.813 94.8292C72.5331 94.513 72.1083 94.4211 71.5454 94.5594C71.3039 94.6016 70.9825 94.8292 70.5818 95.2306C70.2189 95.6361 69.9156 95.8267 69.6741 95.8073C69.3142 95.7845 69.0818 95.4911 68.9815 94.9279C68.8396 94.2761 68.6396 93.8706 68.3771 93.7163C68.2148 93.6471 67.7553 93.6235 66.9887 93.6471C66.2047 93.6699 65.7512 93.7255 65.6298 93.8149C65.3679 94.0383 65.2291 95.142 65.2087 97.1218C65.1876 98.8081 64.8254 99.5257 64.1207 99.2786C64.1418 98.6496 64.0414 97.9186 63.8204 97.0856C63.6996 96.6606 63.4574 95.9523 63.0952 94.9608C62.8538 94.2888 62.6621 93.578 62.5233 92.8368C62.4818 92.524 62.3905 91.7921 62.2494 90.6463C60.6226 90.7323 59.9058 90.0696 60.1095 88.6539C59.1837 88.5881 58.1877 88.3175 57.1207 87.8436C55.7535 87.2601 55.128 86.6084 55.2495 85.8866C55.3906 84.965 56.204 84.3259 57.6927 83.9667C59.0426 83.6278 59.647 82.933 59.5051 81.8757C60.8316 81.6514 62.8538 81.503 65.5709 81.4372C68.3061 81.3681 70.2989 81.2332 71.5484 81.0325Z" fill="url(#paint2_linear_1_7)"/>
<path fill-rule="evenodd" clip-rule="evenodd" d="M62.4026 88.9236L62.4614 89.0256C62.5821 91.4303 62.7859 93.3072 63.0658 94.658C63.1865 95.287 63.5404 95.5239 64.1237 95.3662C64.7047 95.1849 64.9288 94.7794 64.7869 94.1504C64.6247 93.2279 64.4949 92.1841 64.3953 91.0146C65.8425 92.1613 67.655 92.9025 69.8273 93.2414C70.9146 93.3763 72.011 93.1951 73.1164 92.701C73.016 93.4421 72.9662 94.2195 72.9662 95.0264C72.6833 94.5559 72.2117 94.3974 71.5484 94.5559C71.307 94.6015 70.9855 94.8257 70.5818 95.2305C70.2189 95.636 69.9186 95.8266 69.6771 95.8038C69.3142 95.781 69.0818 95.4876 68.9815 94.9278C68.8396 94.276 68.6396 93.8704 68.3771 93.7128C68.2178 93.647 67.7553 93.6234 66.9887 93.647C66.2047 93.6664 65.7535 93.722 65.6328 93.8148C65.3709 94.0382 65.2291 95.1419 65.2087 97.1183C65.1876 98.8046 64.8284 99.5256 64.1237 99.2751C64.1418 98.6461 64.0414 97.9151 63.8204 97.0854C63.6996 96.6571 63.4574 95.9488 63.0952 94.9606C62.8538 94.2853 62.6651 93.5779 62.5233 92.8367C62.4818 92.5205 62.3935 91.7887 62.2524 90.6428C60.6226 90.7322 59.9058 90.0694 60.1095 88.6538C59.1837 88.588 58.1877 88.3173 57.1207 87.8435C55.7535 87.26 55.128 86.6082 55.2495 85.8865C55.3083 85.5737 55.3996 85.314 55.5203 85.1125C56.2658 86.6183 57.4625 87.303 59.1135 87.1681C59.2131 87.1681 59.6258 87.1816 60.3509 87.2043C60.9553 87.2043 61.1613 87.0956 60.9674 86.8814C61.1998 87.1285 61.6805 87.8106 62.4026 88.9236Z" fill="#CCD8E0"/>
<path fill-rule="evenodd" clip-rule="evenodd" d="M73.9621 99.3805C73.741 99.1107 73.5878 98.5905 73.5086 97.8266C73.7916 98.1849 74.1628 98.2869 74.6253 98.1293C75.2886 97.8856 75.7217 97.3089 75.9224 96.4101C76.0846 95.7347 76.105 94.9606 75.9843 94.0846C75.905 93.7254 75.8515 93.4421 75.8341 93.2414C75.7722 92.9025 75.7836 92.6225 75.8635 92.3983C75.9428 92.1714 76.1465 91.9472 76.4679 91.7229C76.6475 91.588 76.9101 91.4202 77.2519 91.2161L78.0359 90.7448C79.6657 90.9919 81.3249 90.5998 83.0166 89.5661C83.2377 89.4505 83.7214 89.0812 84.4639 88.4522H84.4963C85.0184 88.7229 85.6108 88.8544 86.277 88.8544C86.9192 88.835 87.8654 89.0028 89.1119 89.362C90.3795 89.7204 91.3461 89.889 92.0093 89.8688L92.1006 89.8325C92.2221 90.4185 92.4726 90.9033 92.8552 91.2853C93.2385 91.69 93.7101 91.9143 94.273 91.9607C95.06 92.0264 95.7738 91.7229 96.4159 91.0483C96.8784 90.5306 97.0618 89.8325 96.9584 88.9565C96.8995 88.6209 96.7577 88.2718 96.5366 87.9126L97.3236 87.2701C97.8246 86.8418 98.6705 86.5947 99.8589 86.529C100.481 86.4826 101.376 86.4269 102.544 86.3612C104.194 86.045 105.733 85.3367 107.162 84.233C107.363 84.7735 107.292 85.3266 106.95 85.8865C106.647 86.3612 106.234 86.7296 105.712 87.0003C105.308 87.2043 104.637 87.3823 103.69 87.5399C102.765 87.6757 102.101 87.8561 101.698 88.0804C101.135 88.416 100.592 88.6403 100.068 88.7558C99.926 88.7988 99.3337 88.9008 98.2879 89.0585C98.3083 89.5753 98.2374 90.3266 98.0751 91.3182C97.8955 92.4413 97.6926 93.1259 97.4715 93.3763C97.1289 93.7583 96.5042 93.9269 95.5995 93.8805C94.774 93.8578 94.1402 93.6892 93.6988 93.3763C93.4181 93.1723 92.8846 92.5205 92.1006 91.4202C91.5558 90.6327 90.8715 90.2178 90.0467 90.1715C89.3835 90.1259 88.638 90.33 87.8156 90.7777C86.9901 90.33 86.0348 90.1816 84.9475 90.3401C83.901 90.4978 82.9759 90.9033 82.1708 91.5551C81.829 91.937 81.5257 92.1841 81.2631 92.2962C80.9831 92.4084 80.6708 92.4775 80.3289 92.4969C79.9072 92.5205 79.5653 92.5433 79.3028 92.5661C77.9559 92.701 77.0187 93.5905 76.4974 95.2305C76.3555 95.7018 76.114 97.1875 75.7722 99.6841C74.8879 99.862 74.2835 99.76 73.9621 99.3805Z" fill="#CCD8E0"/>
</g>
</g>
<g clip-path="url(#clip4_1_7)">
<path fill-rule="evenodd" clip-rule="evenodd" d="M37.117 13.8904C37.4012 13.7114 37.8558 13.4751 38.4798 13.1814C38.9684 12.9044 39.4352 12.7229 39.8843 12.6394C40.196 12.57 40.3984 12.5152 40.494 12.4725C40.5336 12.4579 40.6902 12.3478 40.9608 12.1381C41.0142 12.0833 41.0701 11.9993 41.1235 11.8877C41.1652 11.8037 41.2389 11.7427 41.3477 11.6999C41.4693 11.6592 41.7332 11.6655 42.1405 11.7223H43.9721C46.6159 11.7223 48.4668 11.6879 49.524 11.6164C51.5581 11.4923 53.3892 11.2069 55.0159 10.7604C55.0576 10.6075 55.0302 10.1349 54.9346 9.34247C54.8949 8.89801 55.1176 8.5151 55.6063 8.1948C56.2297 7.80564 57.0698 7.40239 58.1285 6.98453C58.7245 6.7623 59.6006 6.42843 60.7529 5.98397C62.1213 5.41327 63.8156 5.09349 65.838 5.02202C67.004 4.98133 68.74 4.99593 71.0441 5.0648L71.4117 5.62767C72.9688 5.62767 74.1704 5.76018 75.0109 6.02466C76.2186 6.41383 77.1741 7.14364 77.8789 8.21567C78.0142 8.42538 78.211 8.75142 78.4688 9.19536C78.6996 9.58661 78.93 9.87196 79.1604 10.0514C79.7167 10.4693 80.6045 11.04 81.8239 11.763C82.6919 12.3744 83.1471 12.931 83.1887 13.4323C83.2147 13.8497 82.9304 14.5101 82.3324 15.4147C82.0207 15.8878 81.649 16.2076 81.2142 16.3745C80.6579 16.5415 80.1911 16.6943 79.8118 16.8331C79.0251 17.1268 78.4413 17.5076 78.062 17.9823C77.8316 18.2593 77.7081 18.5937 77.6964 18.9829C77.6826 19.2051 77.6882 19.5823 77.7162 20.1097C77.6882 21.0002 77.5672 21.6543 77.3506 22.0722C76.9433 22.8912 76.6854 23.3232 76.5782 23.3644C76.3336 23.476 76.1373 23.4703 75.9883 23.344C75.879 23.234 75.7854 23.0034 75.702 22.6549C75.6761 22.5307 75.6705 21.9173 75.6822 20.8192C75.6822 20.0262 75.5194 19.4555 75.1935 19.107C74.9769 19.1498 74.808 19.2192 74.685 19.3173C74.685 19.6777 74.5579 20.1243 74.2995 20.6517C74.0158 21.2083 73.7234 21.5505 73.4259 21.6747C73.072 21.0633 72.923 20.1932 72.9769 19.0664C73.0445 17.4528 73.0659 16.5337 73.0384 16.3114C72.8752 15.0177 72.1506 14.351 70.8615 14.3082C69.2623 14.5445 68.1222 14.712 67.4449 14.8095C66.2646 14.9765 65.5003 14.8586 65.1464 14.4548C65.0788 14.3713 65.0172 14.2248 64.9638 14.0171C64.9359 13.8904 64.821 13.7949 64.6181 13.7234C64.0897 13.8784 63.7841 13.9597 63.7022 13.9744C63.4978 14.0171 63.1602 14.0291 62.6852 14.0171C62.2245 14.0025 61.893 14.0291 61.688 14.1006C61.4043 14.1961 61.2075 14.3776 61.0982 14.6426C61.0305 14.8095 60.9436 15.1152 60.8343 15.5597C60.7249 15.9082 60.578 16.1935 60.3873 16.4152C60.3196 16.4987 60.0954 16.7152 59.716 17.0631C59.5528 17.2019 59.4435 17.3 59.3901 17.3548C59.2945 17.4382 59.2075 17.5707 59.1257 17.7523C59.0169 18.2943 58.9014 18.6141 58.7804 18.7121C58.6711 18.7956 58.4407 18.8019 58.0868 18.7325C57.7217 18.6631 57.4852 18.6568 57.3759 18.7121C57.0916 18.865 56.9488 19.2416 56.9488 19.8389C56.935 20.1587 56.9549 20.5969 57.0103 21.153C57.0103 21.4587 57.0499 22.176 57.1318 23.3028C57.1455 24.3034 56.9767 24.8741 56.6233 25.0128C56.365 25.125 56.0807 25.1307 55.769 25.0353C55.4848 24.9518 55.2407 24.8047 55.0357 24.5971C54.6564 24.1933 54.4677 23.5313 54.4677 22.6142C54.5354 21.585 54.5415 20.8536 54.4876 20.4237C54.3111 20.395 53.9175 20.4096 53.3078 20.4644C52.7795 20.5072 52.4002 20.4728 52.1698 20.3606C51.9115 20.2344 51.7208 19.9714 51.5998 19.5677C51.4645 19.1357 51.2799 18.8504 51.0496 18.7121C50.7236 18.5165 50.3046 18.4612 49.7879 18.5447C49.0155 18.6714 48.596 18.7325 48.5289 18.7325C48.3657 18.7325 48.0458 18.6428 47.5714 18.4612C47.1778 18.323 46.8523 18.2943 46.596 18.3777C46.2025 18.5165 45.849 18.9422 45.5373 19.6511C45.5114 19.7205 45.4219 20.0408 45.2729 20.611C45.1636 21.0555 45.0507 21.3346 44.9276 21.4467C44.683 21.6403 44.3317 21.6403 43.8704 21.4467C43.4357 21.2652 43.1514 21.0351 43.0167 20.7581C42.9607 20.6314 42.9353 20.3137 42.9353 19.7982C42.9353 19.3517 42.8534 19.0523 42.6907 18.8994C42.5397 18.7607 42.2758 18.6918 41.8964 18.6918H41.0421L40.9826 18.4002C40.7777 18.3433 40.2636 18.3918 39.4352 18.5468C38.7299 18.6996 38.2433 18.6428 37.9713 18.3798C37.9036 18.3084 37.8421 18.1289 37.7882 17.8357C37.7348 17.5587 37.6595 17.3772 37.5639 17.2937C37.4963 17.2384 37.3534 17.1696 37.1368 17.0856C36.9064 16.988 36.7574 16.9186 36.6898 16.8759C36.3247 16.6516 36.0923 16.3949 35.9988 16.1038C35.9174 15.8263 35.951 15.47 36.0999 15.0401C36.2627 14.5795 36.6008 14.1981 37.117 13.8904Z" fill="url(#paint3_linear_1_7)" fill-opacity="0.93"/>
<path fill-rule="evenodd" clip-rule="evenodd" d="M42.5477 17.4607C42.6153 17.6135 42.6626 17.842 42.6906 18.1477C42.7165 18.3287 42.7445 18.6141 42.7719 19.0032L42.6906 18.8994C42.5395 18.7607 42.2756 18.6918 41.8963 18.6918H41.042L40.9825 18.3981C40.7776 18.3433 40.2635 18.3918 39.4351 18.5447C38.7298 18.6975 38.2432 18.6428 37.9711 18.3777C37.9035 18.3084 37.842 18.1273 37.7881 17.8357C37.7347 17.5587 37.6594 17.3772 37.5638 17.2937C37.4962 17.2369 37.3533 17.1675 37.1367 17.084C36.9063 16.988 36.7573 16.9166 36.6897 16.8759C36.3363 16.6536 36.1135 16.4032 36.0184 16.1241C35.9234 15.8466 35.9432 15.5044 36.08 15.1032L36.3841 15.2274L37.5023 15.519C37.7606 16.674 38.4059 17.3428 39.4351 17.5217C40.2218 17.6339 41.2586 17.6135 42.5477 17.4607Z" fill="#CCD8E0"/>
<path fill-rule="evenodd" clip-rule="evenodd" d="M51.9033 18.5243C52.3782 18.8994 52.9544 19.0867 53.6337 19.0867L53.9592 19.046C54.1895 19.4498 54.3167 19.9021 54.3446 20.4013C54.2236 20.3888 53.8498 20.4096 53.2264 20.4644C52.7377 20.5072 52.3859 20.4707 52.1697 20.3606C51.9114 20.2344 51.7207 19.9714 51.5997 19.5677C51.4644 19.1357 51.2798 18.8504 51.0495 18.7121C50.7235 18.5165 50.3045 18.4612 49.7879 18.5447C49.0155 18.6694 48.5959 18.7325 48.5288 18.7325C48.3656 18.7325 48.0457 18.6428 47.5713 18.4612C47.1777 18.323 46.8523 18.2943 46.596 18.3777C46.2024 18.5165 45.849 18.9422 45.5373 19.6511C45.5113 19.7205 45.4218 20.0408 45.2728 20.611C45.1635 21.0555 45.0506 21.3346 44.9276 21.4467C44.683 21.6403 44.3316 21.6403 43.8704 21.4467C43.4356 21.2652 43.1514 21.0351 43.0166 20.7581C42.9607 20.6314 42.9352 20.3403 42.9352 19.8817C43.1239 20.381 43.5032 20.5682 44.0733 20.4441C44.5081 20.346 44.7923 20.0346 44.9276 19.5046C45.0227 19.0606 45.0028 18.5734 44.8655 18.0434L45.2332 17.9395C45.9781 17.6339 46.9275 17.4382 48.0798 17.3548C48.7312 17.3 49.7065 17.2306 51.0093 17.1471C51.1842 17.7173 51.4843 18.1759 51.9033 18.5243Z" fill="#CCD8E0"/>
<path fill-rule="evenodd" clip-rule="evenodd" d="M63.7001 13.9744C63.4978 14.0171 63.1601 14.0312 62.6831 14.0171C62.2224 14.0025 61.8909 14.0312 61.688 14.1006C61.4022 14.1981 61.2054 14.3776 61.0981 14.6426C61.0305 14.8095 60.9415 15.1152 60.8342 15.5618C60.7249 15.9082 60.5759 16.1935 60.3852 16.4173C60.3175 16.4987 60.0953 16.7152 59.716 17.0631C59.5528 17.2019 59.4434 17.3 59.39 17.3548C59.2944 17.4382 59.2075 17.5707 59.1256 17.7523C59.0168 18.2943 58.9014 18.6141 58.7803 18.7121C58.671 18.7956 58.4406 18.8019 58.0867 18.7325C57.7216 18.6631 57.4852 18.6568 57.3758 18.7121C57.0916 18.865 56.9487 19.2416 56.9487 19.8389C56.935 20.1587 56.9548 20.5969 57.0102 21.153C57.0102 21.4587 57.0499 22.176 57.1317 23.3028C57.1455 24.3034 56.9767 24.8741 56.6232 25.0128C56.3649 25.125 56.0807 25.1307 55.7689 25.0353C55.4847 24.9518 55.2406 24.8047 55.0357 24.5971C54.7123 24.2627 54.5272 23.776 54.4875 23.1359C54.5968 23.4129 54.7382 23.6148 54.9147 23.741C55.1313 23.8798 55.3698 23.8714 55.6261 23.7186C56.0608 23.4682 56.3451 23.0159 56.4798 22.3638C56.6029 21.8197 56.609 21.2631 56.5017 20.6945C56.3924 20.0408 56.3308 19.5739 56.3171 19.2948C56.3054 18.8222 56.3588 18.3981 56.4798 18.023C57.0916 17.577 57.775 16.9312 58.5357 16.0814C58.9547 15.6082 59.5451 14.928 60.3059 14.0375L61.0783 13.0573L61.1576 12.9107L61.2613 12.931L61.4439 12.9107C61.5512 13.0489 61.6941 13.1266 61.871 13.1407C62.0597 13.1673 62.6974 13.0489 63.784 12.786C64.5148 12.6191 65.0772 12.7719 65.4703 13.2445C65.8633 13.7318 66.4954 14.0088 67.3614 14.0782C67.8379 14.1069 68.5411 14.0656 69.4788 13.954C70.3051 13.8559 70.8411 13.8069 71.0837 13.8069C71.6817 13.8069 72.2161 13.9128 72.6905 14.1209C73.0445 14.2738 73.227 14.5998 73.2408 15.1012C73.2408 15.1987 73.193 15.5821 73.0979 16.2483L73.0562 16.6255L73.0384 16.3114C72.8751 15.0177 72.1485 14.351 70.8614 14.3082C69.2602 14.5445 68.1221 14.712 67.4448 14.8095C66.2645 14.9765 65.4982 14.8586 65.1463 14.4548C65.0772 14.3713 65.0172 14.2248 64.9617 14.0171C64.9358 13.8904 64.8209 13.7949 64.616 13.7255C64.0876 13.8784 63.784 13.9618 63.7001 13.9744Z" fill="#CCD8E0"/>
<path fill-rule="evenodd" clip-rule="evenodd" d="M77.1878 17.2509H77.2076C77.6963 17.3772 78.1768 17.4382 78.6518 17.4382C78.3258 17.7173 78.1295 17.8989 78.0619 17.9823C77.8316 18.2593 77.71 18.5937 77.6963 18.9829C77.6826 19.2051 77.6882 19.5823 77.7161 20.1097C77.6902 21.0002 77.5671 21.6543 77.3505 22.0722C76.9432 22.8912 76.6874 23.3232 76.5781 23.3644C76.3335 23.476 76.1372 23.4703 75.9882 23.344C75.8789 23.234 75.7853 23.0034 75.704 22.6549C75.676 22.5307 75.6704 21.9173 75.6841 20.8192C75.6841 20.0262 75.5214 19.4555 75.1955 19.107C74.9768 19.1498 74.808 19.2192 74.6869 19.3173C74.6869 19.6777 74.5578 20.1243 74.2995 20.6517C74.0157 21.2083 73.7233 21.5505 73.4259 21.6747C73.1279 21.1593 72.9707 20.4931 72.957 19.6715C73.0124 18.7121 73.046 17.9948 73.0602 17.5217C73.1279 18.0089 73.2906 18.4612 73.5489 18.8791C73.6979 19.1013 73.9003 19.1989 74.1586 19.1707C74.4149 19.1295 74.5776 18.9766 74.6452 18.7121C74.659 18.6834 74.6808 18.4816 74.7068 18.1065C75.2488 18.6897 75.6007 19.095 75.7655 19.3173C75.8865 19.4555 76.0553 19.5108 76.274 19.4842C76.4906 19.4555 76.6396 19.358 76.721 19.191C77.0983 18.4122 77.2554 17.7664 77.1878 17.2509Z" fill="#CCD8E0"/>
</g>
<g opacity="0.4">
<path fill-rule="evenodd" clip-rule="evenodd" d="M114.573 16.2646C109.592 17.9268 70.7228 24.1059 70.5679 27.0655C69.7325 43.0376 69.1754 59.0415 69.0913 75.0385C69.0435 84.1653 69.0294 93.3777 69.9414 102.466C69.9987 103.033 72.0901 116.141 74.4904 111.606C77.7843 105.38 73.4848 92.2742 72.4945 85.7532C71.2169 77.3287 73.5773 69.6782 76.3755 61.7C80.8556 48.9268 91.265 56.8966 90.7741 68.1845C90.4244 76.2218 85.5205 86.6169 84.0179 94.7992C83.0223 100.223 81.7179 109.293 85.4908 114.085C88.8383 118.338 104.551 107.992 107.729 106.174C121.711 98.179 117.427 83.0861 117.346 67.9042C117.29 57.2571 117.138 46.6053 116.698 35.968C116.521 31.7512 117.704 19.6745 114.569 16.271" fill="#D8FCFD"/>
</g>
<g opacity="0.4">
<path fill-rule="evenodd" clip-rule="evenodd" d="M51.0564 7.91294C66.2873 12.6124 76.5342 27.2314 92.8632 19.1023C86.2064 12.8611 63.9617 5.89438 51.059 7.91294H51.0564Z" fill="#CAFCFC"/>
<path d="M82.8807 27.4441C82.8886 27.2104 82.7384 26.9784 82.9795 26.8686C83.7241 26.6276 84.3578 27.4356 85.1145 27.1305L85.1434 26.7498C85.7362 26.8641 86.3679 27.0173 87.0122 27.0797C88.1548 26.8584 89.2591 26.5028 90.302 26.0583C90.2395 25.9341 90.1959 25.8161 90.2888 25.7348C90.7011 25.4971 91.358 25.4554 91.977 25.2428L92.2275 25.0774C92.2716 24.9741 92.248 24.8423 92.2333 24.7616C92.5116 24.6682 92.7673 24.6075 93.0078 24.557L93.9871 23.8042L94.4691 23.4221L94.5888 23.3261L94.6487 23.2781L94.6561 23.2722L94.6576 23.2708C95.1097 19.8674 93.6494 30.8866 95.6711 15.6405L95.6664 15.638L95.648 15.6281L95.6107 15.6083L95.313 15.452C94.5222 15.0636 93.7177 14.5868 92.9505 14.3585C91.3999 13.7658 89.864 13.3879 88.2955 13.0384C87.5625 13.0571 86.8421 13.0836 86.2209 12.9506C85.3319 12.6896 84.34 12.0101 83.5297 11.6034C83.2031 12.8854 81.0035 12.7321 80.9799 14.1541C80.4558 13.9218 79.6682 13.5639 79.5127 13.912C79.0506 14.9399 78.2488 16.0339 76.6798 16.2092C76.1011 16.1652 75.3834 15.4565 75.1286 15.6187C74.7322 15.8756 75.6291 16.5987 75.2305 16.8547C79.1026 18.5016 83.0648 19.5722 86.4518 21.5376C86.8367 21.5613 87.5198 21.8785 88.3973 22.3448C88.6399 22.4594 88.7749 22.5904 88.9849 22.7216L89.2847 22.9245L89.4396 23.0284L89.5184 23.0809L89.5578 23.1074L89.5777 23.1207L89.5877 23.1272L89.593 23.1306L89.5956 23.1323C89.3409 25.0643 91.8257 6.31332 90.7718 14.2517C90.2378 14.521 89.6754 14.8693 89.0926 15.0942C86.7727 16.1823 84.2743 16.3881 83.2671 16.2345L83.0839 16.2557C81.9811 16.1724 80.6453 16.0877 79.5615 16.3531C79.05 16.5554 78.4939 16.8097 77.9211 17.009L78.3795 17.8276C77.8848 17.6466 77.3949 17.4793 77.136 17.6413C75.9031 17.8075 76.2954 18.647 76.4944 19.6718C76.7091 20.1595 76.0979 20.6032 76.5122 21.1499C76.1362 21.0226 75.9577 20.9326 75.5875 20.7867C75.4352 21.1375 76.7937 20.9995 76.3694 21.4985C76.0386 21.2504 75.5728 21.3159 75.1968 21.168C75.1758 21.7025 76.4597 21.8129 76.2743 22.2623C76.0186 22.3218 75.3822 21.2399 75.1254 21.8141C75.0734 21.9286 75.4552 22.0825 75.6463 22.1601C74.405 21.936 73.5401 22.2202 74.4428 23.2919C74.05 23.1395 73.6037 22.6611 73.1699 22.5849L73.1694 22.5956C73.3637 22.6955 73.6698 22.9569 73.8547 23.0393L73.1752 22.7325L73.2093 23.0261C73.3569 23.1675 73.5112 23.295 73.6892 23.3763L73.234 23.1706C73.2823 23.4085 73.3527 23.6467 73.4414 23.8801C73.8599 24.4907 74.2632 25.2366 74.5751 25.367C77.0539 26.5474 79.9252 27.3388 82.8772 27.4417L82.8807 27.4441Z" fill="#D6EEF4"/>
</g>
<path opacity="0.5" fill-rule="evenodd" clip-rule="evenodd" d="M11.9408 98.5981C10.4941 80.0201 10.3321 58.201 11.4535 33.1454C22.5441 7.77998 22.7066 29.5997 11.9408 98.5981Z" fill="#D8FCFD"/>
<g opacity="0.45">
<path d="M55.252 43.4538C55.4686 43.4349 55.6616 43.1975 55.7966 43.5131C56.1229 44.5213 55.4692 45.4335 55.7593 46.4459L56.1148 46.4852C56.0339 47.3031 55.9105 48.1558 55.8184 49.0206C55.9588 50.5871 56.1492 52.144 56.3448 53.6964C56.4713 53.649 56.5882 53.623 56.6407 53.7766C56.757 54.4212 56.6651 55.3272 56.6609 56.2604L56.7362 56.6691C56.8155 56.7724 56.94 56.7961 57.0161 56.8108C57.0172 57.233 57.0025 57.6101 56.9691 57.9579C57.7365 62.5205 58.4672 67.2026 58.8705 72.345C59.09 73.4423 59.3089 74.5545 59.3559 75.6123C59.3184 77.1635 58.7859 79.0671 58.5384 80.537C59.8073 80.528 59.6768 84.3113 61.0425 83.889C60.8464 84.9096 60.41 86.4112 60.7154 86.5873C61.6349 87.1202 62.6997 88.2537 62.3852 91.3246C62.1292 92.4988 61.1058 94.0196 61.1602 94.496C61.2426 95.2536 62.3658 93.3726 62.4522 94.1245C65.9887 85.7654 66.4713 77.5374 66.9638 69.2614C66.8892 66.3385 66.2497 47.5574 65.67 42.7538L65.607 42.3188C65.4064 39.6874 64.9012 36.5071 64.0774 34.3712C63.6158 33.4042 63.1311 32.4459 62.5869 31.4897C62.4832 32.0096 62.3598 32.4891 62.218 32.9074C62.0825 31.869 61.8817 30.8227 61.5941 30.4761C60.6508 28.3967 60.2898 29.8049 59.6224 30.8157C59.3748 31.4897 58.667 30.8193 58.4753 31.8196C58.3651 31.1558 58.3099 30.8227 58.2004 30.1549C57.8421 30.1603 58.7686 32.1529 58.1172 31.8196C58.1225 31.1577 57.788 30.4902 57.6619 29.8371C57.2584 30.1713 57.9295 32.151 57.4556 32.149C57.2815 31.8252 57.726 30.1659 57.1298 30.1775C57.0124 30.1797 57.1195 30.8368 57.1736 31.1645C56.6036 29.1905 55.7732 28.3287 55.5757 30.2289C55.4518 29.6215 55.492 28.6959 55.2654 28.0747L55.2575 28.0823C55.3132 28.4089 55.3239 28.9943 55.3848 29.2909L55.1622 28.1913L54.9708 28.451C54.964 28.7417 54.9708 29.0282 55.0278 29.3119L54.881 28.587L54.4938 29.346C54.3276 30.2915 53.9744 31.216 54.0411 31.6997C54.5202 35.516 54.8864 39.4953 55.2499 43.4423L55.252 43.4538Z" fill="#DDFCFD"/>
</g>
</g>
</g>
<defs>
<linearGradient id="paint0_linear_1_7" x1="8" y1="7.8718" x2="67.2486" y2="58.7132" gradientUnits="userSpaceOnUse">
<stop offset="0.176" stop-color="#B45AD4"/>
<stop offset="0.586" stop-color="#9A4AA7"/>
<stop offset="1" stop-color="#306998"/>
</linearGradient>
<linearGradient id="paint1_linear_1_7" x1="75.4107" y1="101.251" x2="54.2261" y2="71.3574" gradientUnits="userSpaceOnUse">
<stop stop-color="#DE6E2F"/>
<stop offset="1" stop-color="#FFE873"/>
</linearGradient>
<linearGradient id="paint2_linear_1_7" x1="55.6426" y1="94.6018" x2="106.89" y2="85.8412" gradientUnits="userSpaceOnUse">
<stop offset="0.0409998" stop-color="white"/>
<stop offset="0.91" stop-color="#A7EAEE"/>
</linearGradient>
<linearGradient id="paint3_linear_1_7" x1="59.573" y1="25.1023" x2="59.573" y2="4.99951" gradientUnits="userSpaceOnUse">
<stop offset="0.01" stop-color="#B6EAE4"/>
<stop offset="0.371" stop-color="#B1EBE4"/>
<stop offset="1" stop-color="white"/>
</linearGradient>
<clipPath id="clip0_1_7">
<rect width="120" height="120" fill="white"/>
</clipPath>
<clipPath id="clip1_1_7">
<rect width="120" height="120" fill="white" transform="translate(4)"/>
</clipPath>
<clipPath id="clip2_1_7">
<rect width="107" height="109.128" fill="white" transform="translate(8 7.8718)"/>
</clipPath>
<clipPath id="clip3_1_7">
<rect width="52.0541" height="19.1453" fill="white" transform="translate(55.2342 80.6239)"/>
</clipPath>
<clipPath id="clip4_1_7">
<rect width="47.2342" height="20.1026" fill="white" transform="translate(35.955 5)"/>
</clipPath>
</defs>
</svg>
